<svg width="67" height="67" viewBox="0 0 67 67" fill="none" xmlns="http://www.w3.org/2000/svg">
<path d="M27.9167 13.9583L33.5 8.375M22.3333 44.6667L44.6667 22.3333M33.5 58.625L39.0833 53.0417M46.0625 53.0417C47.9135 53.0417 49.6887 52.3064 50.9975 50.9975C52.3064 49.6887 53.0417 47.9135 53.0417 46.0625C53.0417 44.2115 52.3064 42.4363 50.9975 41.1275C49.6887 39.8186 47.9135 39.0833 46.0625 39.0833C44.2115 39.0833 42.4363 39.8186 41.1275 41.1275C39.8186 42.4363 39.0833 44.2115 39.0833 46.0625C39.0833 47.9135 39.8186 49.6887 41.1275 50.9975C42.4363 52.3064 44.2115 53.0417 46.0625 53.0417ZM20.9375 27.9167C22.7885 27.9167 24.5637 27.1814 25.8725 25.8725C27.1814 24.5637 27.9167 22.7885 27.9167 20.9375C27.9167 19.0865 27.1814 17.3113 25.8725 16.0025C24.5637 14.6936 22.7885 13.9583 20.9375 13.9583C19.0865 13.9583 17.3113 14.6936 16.0025 16.0025C14.6936 17.3113 13.9583 19.0865 13.9583 20.9375C13.9583 22.7885 14.6936 24.5637 16.0025 25.8725C17.3113 27.1814 19.0865 27.9167 20.9375 27.9167ZM15.3542 58.625C17.2052 58.625 18.9803 57.8897 20.2892 56.5809C21.598 55.272 22.3333 53.4968 22.3333 51.6458C22.3333 49.7948 21.598 48.0197 20.2892 46.7108C18.9803 45.402 17.2052 44.6667 15.3542 44.6667C13.5032 44.6667 11.728 45.402 10.4192 46.7108C9.1103 48.0197 8.375 49.7948 8.375 51.6458C8.375 53.4968 9.1103 55.272 10.4192 56.5809C11.728 57.8897 13.5032 58.625 15.3542 58.625ZM51.6458 22.3333C53.4968 22.3333 55.272 21.598 56.5809 20.2892C57.8897 18.9803 58.625 17.2052 58.625 15.3542C58.625 13.5032 57.8897 11.728 56.5809 10.4192C55.272 9.1103 53.4968 8.375 51.6458 8.375C49.7948 8.375 48.0197 9.1103 46.7108 10.4192C45.402 11.728 44.6667 13.5032 44.6667 15.3542C44.6667 17.2052 45.402 18.9803 46.7108 20.2892C48.0197 21.598 49.7948 22.3333 51.6458 22.3333Z" stroke="#F7CF2F" stroke-width="5" stroke-linecap="round" stroke-linejoin="round"/>
</svg>
