<svg width="33" height="33" viewBox="0 0 33 33" fill="none" xmlns="http://www.w3.org/2000/svg">
<path d="M32.5166 27.2959H31.7109V15.5332C31.7107 15.4201 31.6711 15.3107 31.5988 15.2238L25.1535 7.48942C25.109 7.43569 25.0533 7.39234 24.9902 7.36239C24.9272 7.33244 24.8584 7.31662 24.7887 7.31604H22.8164C22.6882 7.31604 22.5652 7.36697 22.4746 7.45762C22.3839 7.54828 22.333 7.67123 22.333 7.79944C22.333 7.92764 22.3839 8.0506 22.4746 8.14125C22.5652 8.23191 22.6882 8.28284 22.8164 8.28284H23.751L19.7227 13.1168H4.41568L8.444 8.28284H9.66861C9.79682 8.28284 9.91977 8.23191 10.0104 8.14125C10.1011 8.0506 10.152 7.92764 10.152 7.79944C10.152 7.67123 10.1011 7.54828 10.0104 7.45762C9.91977 7.36697 9.79682 7.31604 9.66861 7.31604H8.21777C8.1469 7.31598 8.07689 7.33154 8.01273 7.36162C7.94856 7.3917 7.89181 7.43555 7.84652 7.49006L1.40121 15.2244C1.3287 15.311 1.28899 15.4203 1.28906 15.5332V27.2959H0.483398C0.355193 27.2959 0.232239 27.3468 0.141584 27.4374C0.0509293 27.5281 0 27.6511 0 27.7793C0 27.9075 0.0509293 28.0304 0.141584 28.1211C0.232239 28.2117 0.355193 28.2627 0.483398 28.2627H32.5166C32.6448 28.2627 32.7678 28.2117 32.8584 28.1211C32.9491 28.0304 33 27.9075 33 27.7793C33 27.6511 32.9491 27.5281 32.8584 27.4374C32.7678 27.3468 32.6448 27.2959 32.5166 27.2959ZM30.1963 15.0498H24.1377C24.0095 15.0498 23.8865 15.1007 23.7959 15.1914C23.7052 15.282 23.6543 15.405 23.6543 15.5332C23.6543 15.6614 23.7052 15.7843 23.7959 15.875C23.8865 15.9656 24.0095 16.0166 24.1377 16.0166H30.7441V27.2959H27.8438V22.623C27.8438 21.811 27.5212 21.0323 26.9471 20.4582C26.3729 19.884 25.5942 19.5615 24.7822 19.5615C23.9703 19.5615 23.1915 19.884 22.6174 20.4582C22.0433 21.0323 21.7207 21.811 21.7207 22.623V27.2959H18.8203V15.7085L24.7822 8.55418L30.1963 15.0498ZM26.877 27.2959H22.6875V22.623C22.6875 22.0675 22.9082 21.5347 23.301 21.1418C23.6939 20.749 24.2267 20.5283 24.7822 20.5283C25.3378 20.5283 25.8706 20.749 26.2634 21.1418C26.6563 21.5347 26.877 22.0675 26.877 22.623V27.2959ZM3.60938 14.083H18.9163L18.1107 15.0498H2.80436L3.60938 14.083ZM2.25586 16.0166H17.8535V27.2959H2.25586V16.0166Z" fill="#212223"/>
<path d="M15.2109 17.9502H4.89844C4.77023 17.9502 4.64728 18.0011 4.55662 18.0918C4.46597 18.1824 4.41504 18.3054 4.41504 18.4336V24.8789C4.41504 25.0071 4.46597 25.1301 4.55662 25.2207C4.64728 25.3114 4.77023 25.3623 4.89844 25.3623H15.2109C15.2744 25.3623 15.3373 25.3498 15.3959 25.3255C15.4546 25.3012 15.5079 25.2656 15.5528 25.2207C15.5976 25.1758 15.6332 25.1225 15.6575 25.0639C15.6818 25.0052 15.6943 24.9424 15.6943 24.8789V18.4336C15.6943 18.3701 15.6818 18.3073 15.6575 18.2486C15.6332 18.19 15.5976 18.1367 15.5528 18.0918C15.5079 18.0469 15.4546 18.0113 15.3959 17.987C15.3373 17.9627 15.2744 17.9502 15.2109 17.9502ZM14.7275 18.917V22.4619H5.38184V18.917H14.7275ZM5.38184 24.3955V23.4287H14.7275V24.3955H5.38184Z" fill="#212223"/>
<path d="M25.5879 23.9121V25.2012C25.5879 25.3294 25.6388 25.4523 25.7295 25.543C25.8201 25.6336 25.9431 25.6846 26.0713 25.6846C26.1995 25.6846 26.3224 25.6336 26.4131 25.543C26.5038 25.4523 26.5547 25.3294 26.5547 25.2012V23.9121C26.5547 23.7839 26.5038 23.6609 26.4131 23.5703C26.3224 23.4796 26.1995 23.4287 26.0713 23.4287C25.9431 23.4287 25.8201 23.4796 25.7295 23.5703C25.6388 23.6609 25.5879 23.7839 25.5879 23.9121Z" fill="#212223"/>
<path d="M6.83203 20.8506H7.34766C7.47586 20.8506 7.59882 20.7997 7.68947 20.709C7.78013 20.6183 7.83105 20.4954 7.83105 20.3672C7.83105 20.239 7.78013 20.116 7.68947 20.0254C7.59882 19.9347 7.47586 19.8838 7.34766 19.8838H6.83203C6.70383 19.8838 6.58087 19.9347 6.49022 20.0254C6.39956 20.116 6.34863 20.239 6.34863 20.3672C6.34863 20.4954 6.39956 20.6183 6.49022 20.709C6.58087 20.7997 6.70383 20.8506 6.83203 20.8506Z" fill="#212223"/>
<path d="M8.76562 20.8506H9.28125C9.40946 20.8506 9.53241 20.7997 9.62306 20.709C9.71372 20.6183 9.76465 20.4954 9.76465 20.3672C9.76465 20.239 9.71372 20.116 9.62306 20.0254C9.53241 19.9347 9.40946 19.8838 9.28125 19.8838H8.76562C8.63742 19.8838 8.51447 19.9347 8.42381 20.0254C8.33316 20.116 8.28223 20.239 8.28223 20.3672C8.28223 20.4954 8.33316 20.6183 8.42381 20.709C8.51447 20.7997 8.63742 20.8506 8.76562 20.8506Z" fill="#212223"/>
<path d="M22.2041 15.0498H21.5596C21.4314 15.0498 21.3084 15.1007 21.2178 15.1914C21.1271 15.282 21.0762 15.405 21.0762 15.5332C21.0762 15.6614 21.1271 15.7844 21.2178 15.875C21.3084 15.9657 21.4314 16.0166 21.5596 16.0166H22.2041C22.3323 16.0166 22.4553 15.9657 22.5459 15.875C22.6366 15.7844 22.6875 15.6614 22.6875 15.5332C22.6875 15.405 22.6366 15.282 22.5459 15.1914C22.4553 15.1007 22.3323 15.0498 22.2041 15.0498Z" fill="#212223"/>
<path d="M26.0215 12.7985C26.0612 12.8497 26.1109 12.8924 26.1674 12.9241C26.224 12.9558 26.2863 12.9757 26.3507 12.9828C26.4152 12.9899 26.4804 12.984 26.5425 12.9653C26.6045 12.9467 26.6623 12.9158 26.7122 12.8744C26.762 12.833 26.8031 12.782 26.8329 12.7245C26.8627 12.6669 26.8806 12.6039 26.8856 12.5393C26.8905 12.4747 26.8824 12.4097 26.8618 12.3483C26.8411 12.2868 26.8083 12.2302 26.7653 12.1817L25.638 10.8217C25.5975 10.7728 25.5477 10.7324 25.4916 10.7028C25.4354 10.6731 25.3739 10.6548 25.3107 10.6489C25.2475 10.643 25.1837 10.6497 25.123 10.6684C25.0624 10.6872 25.006 10.7177 24.9571 10.7582C24.9082 10.7988 24.8678 10.8485 24.8381 10.9047C24.8085 10.9609 24.7902 11.0223 24.7843 11.0855C24.7784 11.1488 24.785 11.2126 24.8038 11.2732C24.8225 11.3339 24.8531 11.3903 24.8936 11.4392L26.0215 12.7985Z" fill="#212223"/>
<path d="M18.0181 6.99316L19.9581 4.7373H17.7545L15.8145 6.99316H18.0181Z" fill="#F7CF2F"/>
<path d="M22.1463 6.99316L23.3232 5.52299C23.3802 5.45187 23.4159 5.3661 23.4263 5.27556C23.4366 5.18502 23.4212 5.0934 23.3817 5.01127C23.3422 4.92913 23.2803 4.85983 23.2031 4.81136C23.126 4.76289 23.0367 4.73722 22.9455 4.7373H21.2337L19.293 6.99316H22.1463Z" fill="#F7CF2F"/>
<path d="M17.1854 7.95996H14.9817L13.041 10.2158H15.2453L17.1854 7.95996Z" fill="#F7CF2F"/>
<path d="M19.7116 10.0347L21.3719 7.95996H18.4612L16.5205 10.2158H19.3358C19.408 10.2156 19.4792 10.1992 19.5442 10.1679C19.6093 10.1365 19.6664 10.091 19.7116 10.0347Z" fill="#F7CF2F"/>
<path d="M16.4793 4.7373H13.664C13.5916 4.73733 13.5201 4.75362 13.4549 4.78497C13.3896 4.81631 13.3322 4.86192 13.287 4.91842L11.6279 6.99316H14.5386L16.4793 4.7373Z" fill="#F7CF2F"/>
<path d="M9.61908 9.94189C9.65854 10.024 9.72036 10.0932 9.79745 10.1417C9.87453 10.1901 9.96373 10.2158 10.0548 10.2158H11.7667L13.7073 7.95996H10.854L9.67709 9.43014C9.62023 9.50133 9.58463 9.58713 9.57437 9.67766C9.56411 9.76819 9.57961 9.85978 9.61908 9.94189Z" fill="#F7CF2F"/>
<path d="M12.5686 11.5068C12.5236 11.5516 12.4879 11.6048 12.4635 11.6635C12.4392 11.7221 12.4267 11.7849 12.4268 11.8484V12.4717H13.3936V12.0489L14.2598 11.1826H12.8947L12.5686 11.5068Z" fill="#F7CF2F"/>
</svg>
