<svg width="33" height="33" viewBox="0 0 33 33" fill="none" xmlns="http://www.w3.org/2000/svg">
<g clip-path="url(#clip0_148_1649)">
<path d="M32.9774 23.9914L29.7548 13.6789C29.7237 13.581 29.6623 13.4956 29.5795 13.435C29.4966 13.3744 29.3966 13.3418 29.2939 13.3418H26.1357C26.4776 12.3129 26.6518 11.2356 26.6514 10.1514C26.6514 4.55361 22.0978 0 16.5 0C10.9022 0 6.34863 4.55361 6.34863 10.1514C6.34825 11.2356 6.52235 12.3129 6.86426 13.3418H3.70606C3.60305 13.3418 3.50273 13.3746 3.41971 13.4356C3.3367 13.4966 3.27534 13.5825 3.24457 13.6808L0.0219155 23.9933C0.00727313 24.04 -0.000117463 24.0887 1.41145e-06 24.1377V27.3604C1.41145e-06 27.4886 0.0509307 27.6115 0.141586 27.7022C0.23224 27.7928 0.355195 27.8438 0.4834 27.8438H8.92676V30.0996H6.1875C5.80289 30.0996 5.43402 30.2524 5.16206 30.5244C4.89009 30.7963 4.73731 31.1652 4.73731 31.5498C4.73731 31.9344 4.89009 32.3033 5.16206 32.5752C5.43402 32.8472 5.80289 33 6.1875 33H26.8125C27.1971 33 27.566 32.8472 27.8379 32.5752C28.1099 32.3033 28.2627 31.9344 28.2627 31.5498C28.2627 31.1652 28.1099 30.7963 27.8379 30.5244C27.566 30.2524 27.1971 30.0996 26.8125 30.0996H24.0732V27.8438H32.5166C32.6448 27.8438 32.7678 27.7928 32.8584 27.7022C32.9491 27.6115 33 27.4886 33 27.3604V24.1377C33.0001 24.0881 32.9925 24.0387 32.9774 23.9914ZM1.14082 23.6543L2.44922 19.4648H7.59774L6.55037 23.6543H1.14082ZM8.59547 19.4648H12.4627C13.7364 20.0175 15.1102 20.3027 16.4987 20.3027C17.8872 20.3027 19.261 20.0175 20.5348 19.4648H24.402L25.4493 23.6543H7.54811L8.59547 19.4648ZM10.7295 18.498H8.83717L9.16975 17.1671C9.64392 17.6617 10.1664 18.1076 10.7295 18.498ZM23.8303 17.1671L24.1628 18.498H22.2705C22.8336 18.1076 23.3561 17.6617 23.8303 17.1671ZM26.449 23.6543L25.4016 19.4648H30.5508L31.8598 23.6543H26.449ZM28.9395 14.3086L30.2485 18.498H25.1599L24.6005 16.2622C25.0589 15.6563 25.448 15.0011 25.7606 14.3086H28.9395ZM16.5 0.966797C21.5641 0.966797 25.6846 5.08729 25.6846 10.1514C25.6846 15.2154 21.5641 19.3359 16.5 19.3359C11.4359 19.3359 7.31543 15.2154 7.31543 10.1514C7.31543 5.08729 11.4359 0.966797 16.5 0.966797ZM4.06055 14.3086H7.23873C7.55131 15.0011 7.94045 15.6563 8.39889 16.2622L7.84008 18.498H2.75215L4.06055 14.3086ZM9.89356 27.8438H11.5049V30.0996H9.89356V27.8438ZM12.4717 30.0996V27.8438H20.5283V30.0996H12.4717ZM27.2959 31.5498C27.2959 31.678 27.245 31.801 27.1543 31.8916C27.0637 31.9823 26.9407 32.0332 26.8125 32.0332H6.1875C6.0593 32.0332 5.93634 31.9823 5.84569 31.8916C5.75503 31.801 5.7041 31.678 5.7041 31.5498C5.7041 31.4216 5.75503 31.2986 5.84569 31.208C5.93634 31.1173 6.0593 31.0664 6.1875 31.0664H26.8125C26.9407 31.0664 27.0637 31.1173 27.1543 31.208C27.245 31.2986 27.2959 31.4216 27.2959 31.5498ZM23.1064 30.0996H21.4951V27.8438H23.1064V30.0996ZM32.0332 26.877H0.966798V24.6211H32.0332V26.877Z" fill="#212223"/>
<path d="M2.41699 26.2324H3.06152C3.18973 26.2324 3.31268 26.1815 3.40334 26.0908C3.49399 26.0002 3.54492 25.8772 3.54492 25.749C3.54492 25.6208 3.49399 25.4979 3.40334 25.4072C3.31268 25.3166 3.18973 25.2656 3.06152 25.2656H2.41699C2.28879 25.2656 2.16583 25.3166 2.07518 25.4072C1.98452 25.4979 1.93359 25.6208 1.93359 25.749C1.93359 25.8772 1.98452 26.0002 2.07518 26.0908C2.16583 26.1815 2.28879 26.2324 2.41699 26.2324Z" fill="#212223"/>
<path d="M4.99512 26.2324H5.63965C5.76785 26.2324 5.89081 26.1815 5.98146 26.0908C6.07212 26.0002 6.12305 25.8772 6.12305 25.749C6.12305 25.6208 6.07212 25.4979 5.98146 25.4072C5.89081 25.3166 5.76785 25.2656 5.63965 25.2656H4.99512C4.86691 25.2656 4.74396 25.3166 4.6533 25.4072C4.56265 25.4979 4.51172 25.6208 4.51172 25.749C4.51172 25.8772 4.56265 26.0002 4.6533 26.0908C4.74396 26.1815 4.86691 26.2324 4.99512 26.2324Z" fill="#212223"/>
<path d="M10.2549 15.4855C10.5344 15.8127 10.8391 16.1174 11.1662 16.3969L14.6828 12.8803C14.7421 12.8202 14.816 12.7767 14.8973 12.7541C14.9786 12.7315 15.0645 12.7306 15.1462 12.7514L17.8449 13.4526C17.9383 13.4768 18.0364 13.4763 18.1296 13.4509C18.2227 13.4256 18.3077 13.3764 18.376 13.3083L21.1191 10.5703L20.7685 9.21679L18.1259 11.8594C18.0665 11.9198 17.9922 11.9636 17.9105 11.9862C17.8288 12.0088 17.7426 12.0095 17.6605 11.9883L15.5562 11.4411C15.4728 11.4195 15.3968 11.376 15.336 11.3151C15.2751 11.2543 15.2316 11.1783 15.21 11.095L14.6628 8.99056C14.6415 8.90906 14.6419 8.82341 14.664 8.74211C14.686 8.66082 14.729 8.5867 14.7885 8.52714L17.4311 5.88456L16.0821 5.53394L13.3422 8.27577C13.274 8.34406 13.2248 8.42898 13.1994 8.52213C13.1741 8.61528 13.1735 8.71343 13.1978 8.80687L13.8991 11.5055C13.92 11.5873 13.9192 11.6731 13.8965 11.7545C13.8739 11.8358 13.8303 11.9097 13.7702 11.9689L10.2549 15.4855Z" fill="#F7CF2F"/>
<path d="M16.4997 1.93359C15.0125 1.93348 13.5531 2.33716 12.2774 3.10154C11.0016 3.86593 9.95733 4.96234 9.25596 6.27379C8.55458 7.58524 8.22242 9.0625 8.29493 10.548C8.36743 12.0334 8.84188 13.4713 9.66765 14.7082L12.8903 11.481L12.2587 9.05051C12.1925 8.79389 12.1942 8.52447 12.2637 8.26873C12.3332 8.01299 12.4681 7.77975 12.6551 7.59193L15.5973 4.65352C15.6566 4.59345 15.7306 4.54994 15.8119 4.52733C15.8932 4.50471 15.979 4.50378 16.0608 4.52461L18.4945 5.15754C18.5769 5.17895 18.6522 5.22175 18.7128 5.2816C18.7733 5.34146 18.817 5.41625 18.8394 5.49841C18.8618 5.58057 18.862 5.66717 18.8402 5.74947C18.8183 5.83177 18.7751 5.90683 18.7149 5.96707L15.6695 9.01248L16.0762 10.5742L17.6379 10.9809L20.6833 7.93547C20.7436 7.87529 20.8186 7.83208 20.9009 7.81023C20.9832 7.78838 21.0698 7.78865 21.152 7.81102C21.2342 7.83339 21.3089 7.87707 21.3688 7.93763C21.4287 7.99819 21.4715 8.07348 21.4929 8.1559L22.1258 10.5896C22.1466 10.6714 22.1457 10.7572 22.1231 10.8385C22.1005 10.9198 22.057 10.9938 21.9969 11.0531L19.0585 13.9921C18.8707 14.1791 18.6374 14.314 18.3817 14.3835C18.1259 14.453 17.8565 14.4547 17.5999 14.3885L15.1694 13.7569L11.9428 16.9866C13.0101 17.6981 14.2291 18.1499 15.5023 18.3057C16.7755 18.4615 18.0675 18.3171 19.2748 17.884C20.4822 17.4509 21.5714 16.7411 22.4552 15.8115C23.339 14.882 23.9929 13.7583 24.3646 12.5307C24.7362 11.303 24.8153 10.0054 24.5954 8.74168C24.3755 7.47797 23.8628 6.2833 23.0984 5.25329C22.334 4.22329 21.339 3.38656 20.1931 2.8101C19.0473 2.23365 17.7824 1.93346 16.4997 1.93359Z" fill="#F7CF2F"/>
</g>
<defs>
<clipPath id="clip0_148_1649">
<rect width="33" height="33" fill="white"/>
</clipPath>
</defs>
</svg>
