<svg width="33" height="33" viewBox="0 0 33 33" fill="none" xmlns="http://www.w3.org/2000/svg">
<g clip-path="url(#clip0_149_1755)">
<path d="M31.5498 30.0996H28.166V22.4761L32.8879 16.8094C32.9466 16.7388 32.9841 16.6529 32.9958 16.5618C33.0076 16.4707 32.9931 16.3782 32.9542 16.295C32.9152 16.2118 32.8534 16.1414 32.7759 16.0921C32.6984 16.0428 32.6085 16.0166 32.5166 16.0166H29.2939C29.2231 16.0165 29.1531 16.0321 29.0889 16.0622C29.0247 16.0923 28.968 16.1361 28.9227 16.1906L19.2547 27.7922C19.1959 27.8628 19.1585 27.9486 19.1467 28.0397C19.135 28.1308 19.1494 28.2234 19.1884 28.3066C19.2273 28.3898 19.2892 28.4601 19.3667 28.5094C19.4442 28.5587 19.5341 28.5849 19.626 28.585H22.8486C22.9195 28.585 22.9895 28.5695 23.0537 28.5394C23.1178 28.5093 23.1746 28.4654 23.2199 28.4109L25.2656 25.9566V30.0996H18.6914V22.4761L23.4132 16.8094C23.472 16.7388 23.5095 16.6529 23.5212 16.5618C23.533 16.4707 23.5185 16.3782 23.4796 16.295C23.4406 16.2118 23.3788 16.1414 23.3013 16.0921C23.2238 16.0428 23.1338 16.0166 23.042 16.0166H19.8193C19.7485 16.0165 19.6785 16.0321 19.6143 16.0622C19.5501 16.0923 19.4934 16.1361 19.4481 16.1906L9.78012 27.7922C9.72133 27.8628 9.68387 27.9486 9.67212 28.0397C9.66037 28.1308 9.67482 28.2234 9.71377 28.3066C9.75273 28.3898 9.81458 28.4601 9.89207 28.5094C9.96957 28.5587 10.0595 28.5849 10.1514 28.585H13.374C13.4449 28.585 13.5149 28.5695 13.5791 28.5394C13.6432 28.5093 13.7 28.4654 13.7453 28.4109L15.791 25.9566V30.0996H9.02344V22.4761L13.7453 16.8094C13.8041 16.7388 13.8415 16.6529 13.8533 16.5618C13.865 16.4707 13.8506 16.3782 13.8116 16.295C13.7727 16.2118 13.7108 16.1414 13.6333 16.0921C13.5558 16.0428 13.4659 16.0166 13.374 16.0166H10.1514C10.0805 16.0165 10.0105 16.0321 9.94632 16.0622C9.88215 16.0923 9.82541 16.1361 9.78012 16.1906L0.112148 27.7922C0.0533628 27.8628 0.0159019 27.9486 0.00415238 28.0397C-0.00759713 28.1308 0.00685114 28.2234 0.0458053 28.3066C0.0847595 28.3898 0.146607 28.4601 0.224106 28.5094C0.301604 28.5587 0.391546 28.5849 0.483398 28.585H3.70605C3.77692 28.585 3.84693 28.5695 3.9111 28.5394C3.97527 28.5093 4.03202 28.4654 4.0773 28.4109L6.12305 25.9566V30.0996H1.4502C1.06558 30.0996 0.696717 30.2524 0.424752 30.5244C0.152788 30.7963 0 31.1652 0 31.5498C0 31.9344 0.152788 32.3033 0.424752 32.5752C0.696717 32.8472 1.06558 33 1.4502 33H31.5498C31.9344 33 32.3033 32.8472 32.5752 32.5752C32.8472 32.3033 33 31.9344 33 31.5498C33 31.1652 32.8472 30.7963 32.5752 30.5244C32.3033 30.2524 31.9344 30.0996 31.5498 30.0996ZM22.623 27.6182H20.6579L29.5195 16.9834H31.4841L22.623 27.6182ZM26.2324 24.7964L27.1992 23.6363V30.0996H26.2324V24.7964ZM13.1484 27.6182H11.1833L20.0449 16.9834H22.0095L13.1484 27.6182ZM16.7578 24.7964L17.7246 23.6363V30.0996H16.7578V24.7964ZM3.48047 27.6182H1.51529L10.377 16.9834H12.3415L3.48047 27.6182ZM7.08984 24.7964L8.05664 23.6363V30.0996H7.08984V24.7964ZM31.5498 32.0332H1.4502C1.32199 32.0332 1.19904 31.9823 1.10838 31.8916C1.01773 31.801 0.966797 31.678 0.966797 31.5498C0.966797 31.4216 1.01773 31.2986 1.10838 31.208C1.19904 31.1173 1.32199 31.0664 1.4502 31.0664H31.5498C31.678 31.0664 31.801 31.1173 31.8916 31.208C31.9823 31.2986 32.0332 31.4216 32.0332 31.5498C32.0332 31.678 31.9823 31.801 31.8916 31.8916C31.801 31.9823 31.678 32.0332 31.5498 32.0332Z" fill="#212223"/>
<path d="M7.57324 3.22266C6.71278 3.22266 5.87164 3.47781 5.15619 3.95586C4.44074 4.43391 3.88311 5.11338 3.55383 5.90834C3.22454 6.70331 3.13839 7.57807 3.30625 8.422C3.47412 9.26593 3.88848 10.0411 4.49692 10.6496C5.10536 11.258 5.88056 11.6724 6.72449 11.8402C7.56842 12.0081 8.44318 11.9219 9.23814 11.5927C10.0331 11.2634 10.7126 10.7057 11.1906 9.9903C11.6687 9.27485 11.9238 8.43371 11.9238 7.57324C11.9225 6.41981 11.4637 5.31402 10.6481 4.49842C9.83247 3.68282 8.72667 3.22402 7.57324 3.22266ZM6.98028 5.63965C6.59576 5.63999 6.2271 5.79289 5.95521 6.06478C5.68332 6.33667 5.53042 6.70533 5.53008 7.08984C5.53008 7.21805 5.47915 7.341 5.3885 7.43166C5.29784 7.52231 5.17489 7.57324 5.04668 7.57324C4.91848 7.57324 4.79552 7.52231 4.70487 7.43166C4.61421 7.341 4.56328 7.21805 4.56328 7.08984C4.56397 6.44903 4.81883 5.83465 5.27196 5.38153C5.72508 4.9284 6.33946 4.67353 6.98028 4.67285C7.10848 4.67285 7.23143 4.72378 7.32209 4.81444C7.41274 4.90509 7.46367 5.02804 7.46367 5.15625C7.46367 5.28446 7.41274 5.40741 7.32209 5.49806C7.23143 5.58872 7.10848 5.63965 6.98028 5.63965Z" fill="#F7CF2F"/>
<path d="M7.57324 2.57812C7.63672 2.57812 7.69958 2.56562 7.75823 2.54133C7.81688 2.51704 7.87017 2.48143 7.91506 2.43654C7.95994 2.39165 7.99555 2.33836 8.01984 2.27972C8.04414 2.22107 8.05664 2.15821 8.05664 2.09473V0.483398C8.05664 0.355193 8.00571 0.232239 7.91506 0.141584C7.8244 0.0509293 7.70145 0 7.57324 0C7.44504 0 7.32208 0.0509293 7.23143 0.141584C7.14077 0.232239 7.08984 0.355193 7.08984 0.483398V2.09473C7.08984 2.22293 7.14077 2.34589 7.23143 2.43654C7.32208 2.5272 7.44504 2.57812 7.57324 2.57812Z" fill="#F7CF2F"/>
<path d="M7.57324 12.5684C7.44504 12.5684 7.32208 12.6193 7.23143 12.7099C7.14077 12.8006 7.08984 12.9236 7.08984 13.0518V14.6631C7.08984 14.7913 7.14077 14.9142 7.23143 15.0049C7.32208 15.0956 7.44504 15.1465 7.57324 15.1465C7.70145 15.1465 7.8244 15.0956 7.91506 15.0049C8.00571 14.9142 8.05664 14.7913 8.05664 14.6631V13.0518C8.05664 12.9883 8.04414 12.9254 8.01984 12.8668C7.99555 12.8081 7.95994 12.7548 7.91506 12.7099C7.87017 12.6651 7.81688 12.6294 7.75823 12.6052C7.69958 12.5809 7.63672 12.5684 7.57324 12.5684Z" fill="#F7CF2F"/>
<path d="M14.6631 7.08984H13.0518C12.9236 7.08984 12.8006 7.14077 12.7099 7.23143C12.6193 7.32208 12.5684 7.44504 12.5684 7.57324C12.5684 7.70145 12.6193 7.8244 12.7099 7.91506C12.8006 8.00571 12.9236 8.05664 13.0518 8.05664H14.6631C14.7913 8.05664 14.9142 8.00571 15.0049 7.91506C15.0956 7.8244 15.1465 7.70145 15.1465 7.57324C15.1465 7.44504 15.0956 7.32208 15.0049 7.23143C14.9142 7.14077 14.7913 7.08984 14.6631 7.08984Z" fill="#F7CF2F"/>
<path d="M2.57812 7.57324C2.57812 7.44504 2.5272 7.32208 2.43654 7.23143C2.34589 7.14077 2.22293 7.08984 2.09473 7.08984H0.483398C0.355193 7.08984 0.232239 7.14077 0.141584 7.23143C0.0509293 7.32208 0 7.44504 0 7.57324C0 7.70145 0.0509293 7.8244 0.141584 7.91506C0.232239 8.00571 0.355193 8.05664 0.483398 8.05664H2.09473C2.15821 8.05664 2.22107 8.04414 2.27972 8.01984C2.33836 7.99555 2.39165 7.95994 2.43654 7.91506C2.48143 7.87017 2.51704 7.81688 2.54133 7.75823C2.56562 7.69958 2.57812 7.63672 2.57812 7.57324Z" fill="#F7CF2F"/>
<path d="M11.4466 4.18304C11.5749 4.18295 11.698 4.13196 11.7888 4.04124L12.9277 2.90042C13.0089 2.80821 13.052 2.68854 13.0481 2.56574C13.0442 2.44293 12.9938 2.3262 12.9069 2.23928C12.8201 2.15236 12.7034 2.10177 12.5806 2.09779C12.4578 2.09381 12.3381 2.13674 12.2458 2.21786L11.105 3.35739C11.0375 3.42508 10.9917 3.51121 10.9731 3.60493C10.9545 3.69865 10.9641 3.79577 11.0006 3.88405C11.0372 3.97233 11.099 4.04783 11.1784 4.10104C11.2577 4.15424 11.351 4.18277 11.4466 4.18304Z" fill="#F7CF2F"/>
<path d="M3.35717 11.1053L2.21828 12.2461C2.13708 12.3383 2.09403 12.4579 2.0979 12.5808C2.10176 12.7036 2.15224 12.8203 2.23908 12.9072C2.32592 12.9941 2.4426 13.0447 2.5654 13.0487C2.6882 13.0527 2.80791 13.0097 2.9002 12.9286L4.04102 11.7891C4.08592 11.7442 4.12154 11.6909 4.14584 11.6322C4.17014 11.5736 4.18265 11.5107 4.18265 11.4472C4.18265 11.3837 4.17014 11.3208 4.14584 11.2621C4.12154 11.2035 4.08592 11.1502 4.04102 11.1053C3.99612 11.0604 3.94281 11.0247 3.88414 11.0004C3.82547 10.9761 3.7626 10.9636 3.69909 10.9636C3.63559 10.9636 3.57271 10.9761 3.51405 11.0004C3.45538 11.0247 3.40207 11.0604 3.35717 11.1053Z" fill="#F7CF2F"/>
<path d="M11.7893 11.1053C11.6987 11.0146 11.5757 10.9636 11.4474 10.9636C11.3192 10.9636 11.1962 11.0146 11.1055 11.1053C11.0148 11.1959 10.9639 11.3189 10.9639 11.4472C10.9639 11.5754 11.0148 11.6984 11.1055 11.7891L12.2463 12.9286C12.3386 13.0097 12.4583 13.0527 12.5811 13.0487C12.7039 13.0447 12.8206 12.9941 12.9074 12.9072C12.9943 12.8203 13.0448 12.7036 13.0486 12.5808C13.0525 12.4579 13.0094 12.3383 12.9282 12.2461L11.7893 11.1053Z" fill="#F7CF2F"/>
<path d="M3.35717 4.04124C3.44785 4.13192 3.57085 4.18287 3.69909 4.18287C3.82734 4.18287 3.95033 4.13192 4.04102 4.04124C4.1317 3.95056 4.18265 3.82756 4.18265 3.69932C4.18265 3.57107 4.1317 3.44808 4.04102 3.35739L2.9002 2.21786C2.80791 2.13674 2.6882 2.09381 2.5654 2.09779C2.4426 2.10177 2.32592 2.15236 2.23908 2.23928C2.15224 2.3262 2.10176 2.44293 2.0979 2.56574C2.09403 2.68854 2.13708 2.80821 2.21828 2.90042L3.35717 4.04124Z" fill="#F7CF2F"/>
</g>
<defs>
<clipPath id="clip0_149_1755">
<rect width="33" height="33" fill="white"/>
</clipPath>
</defs>
</svg>
