<svg width="38" height="38" viewBox="0 0 38 38" fill="none" xmlns="http://www.w3.org/2000/svg">
<path d="M20.5329 4.09138C21.6209 4.0872 22.709 4.09814 23.7967 4.12418L24.0859 4.13462C24.4199 4.14654 24.7494 4.16145 25.1475 4.17935C26.7339 4.25389 27.8164 4.50438 28.7661 4.87265C29.7502 5.25136 30.5791 5.76426 31.4081 6.59324C32.1661 7.33814 32.7527 8.2392 33.1272 9.23376C33.4955 10.1835 33.746 11.2675 33.8205 12.8539C33.8384 13.2505 33.8533 13.5815 33.8653 13.9154L33.8742 14.2047C33.9007 15.2919 33.9121 16.3794 33.9085 17.467L33.91 18.5792V20.5324C33.9137 21.6204 33.9022 22.7085 33.8757 23.7962L33.8668 24.0854C33.8548 24.4194 33.8399 24.7489 33.822 25.147C33.7475 26.7334 33.494 27.8158 33.1272 28.7656C32.754 29.7612 32.1672 30.663 31.4081 31.4076C30.6626 32.1655 29.7611 32.7521 28.7661 33.1267C27.8164 33.495 26.7339 33.7455 25.1475 33.82C24.7494 33.8379 24.4199 33.8528 24.0859 33.8647L23.7967 33.8737C22.709 33.9002 21.6209 33.9116 20.5329 33.908L19.4207 33.9095H17.469C16.3809 33.9131 15.2929 33.9017 14.2052 33.8752L13.916 33.8662C13.562 33.8534 13.2081 33.8385 12.8544 33.8215C11.268 33.747 10.1855 33.4935 9.23428 33.1267C8.23933 32.753 7.33811 32.1663 6.59376 31.4076C5.83492 30.6625 5.24774 29.7609 4.87317 28.7656C4.5049 27.8158 4.25441 26.7334 4.17986 25.147C4.16326 24.7932 4.14835 24.4393 4.13513 24.0854L4.12768 23.7962C4.10019 22.7085 4.08776 21.6204 4.0904 20.5324V17.467C4.08624 16.3794 4.09718 15.2919 4.1232 14.2047L4.13364 13.9154C4.14557 13.5815 4.16048 13.2505 4.17837 12.8539C4.25292 11.266 4.5034 10.185 4.87168 9.23376C5.24647 8.23872 5.8348 7.3379 6.59525 6.59473C7.33909 5.83545 8.23974 5.24774 9.23428 4.87265C10.1855 4.50438 11.2665 4.25389 12.8544 4.17935L13.916 4.13462L14.2052 4.12716C15.2924 4.09969 16.3799 4.08726 17.4675 4.08989L20.5329 4.09138ZM19.0002 11.5463C18.0124 11.5323 17.0317 11.7148 16.1151 12.0831C15.1985 12.4515 14.3642 12.9983 13.6608 13.6919C12.9573 14.3854 12.3987 15.2119 12.0175 16.1232C11.6362 17.0345 11.4399 18.0126 11.4399 19.0004C11.4399 19.9883 11.6362 20.9663 12.0175 21.8776C12.3987 22.7889 12.9573 23.6154 13.6608 24.309C14.3642 25.0025 15.1985 25.5494 16.1151 25.9177C17.0317 26.2861 18.0124 26.4685 19.0002 26.4546C20.9774 26.4546 22.8735 25.6692 24.2716 24.2711C25.6697 22.873 26.4551 20.9768 26.4551 18.9997C26.4551 17.0225 25.6697 15.1263 24.2716 13.7283C22.8735 12.3302 20.9774 11.5463 19.0002 11.5463ZM19.0002 14.5282C19.5944 14.5173 20.1848 14.6248 20.7369 14.8446C21.289 15.0644 21.7918 15.392 22.2159 15.8083C22.64 16.2246 22.9769 16.7212 23.2069 17.2692C23.4369 17.8171 23.5554 18.4054 23.5555 18.9997C23.5556 19.5939 23.4373 20.1823 23.2075 20.7303C22.9777 21.2783 22.6409 21.775 22.217 22.1915C21.793 22.6079 21.2903 22.9357 20.7383 23.1556C20.1862 23.3756 19.5959 23.4834 19.0017 23.4726C17.8154 23.4726 16.6777 23.0014 15.8388 22.1625C15 21.3237 14.5287 20.186 14.5287 18.9997C14.5287 17.8134 15 16.6757 15.8388 15.8368C16.6777 14.998 17.8154 14.5267 19.0017 14.5267L19.0002 14.5282ZM26.8278 9.3098C26.3468 9.32906 25.8919 9.53368 25.5584 9.88081C25.2249 10.2279 25.0386 10.6907 25.0386 11.172C25.0386 11.6534 25.2249 12.1161 25.5584 12.4633C25.8919 12.8104 26.3468 13.015 26.8278 13.0343C27.3221 13.0343 27.7962 12.8379 28.1457 12.4884C28.4952 12.1389 28.6916 11.6648 28.6916 11.1705C28.6916 10.6763 28.4952 10.2022 28.1457 9.8527C27.7962 9.50318 27.3221 9.30682 26.8278 9.30682V9.3098Z" fill="#212223"/>
</svg>
