<svg width="39" height="33" viewBox="0 0 39 33" fill="none" xmlns="http://www.w3.org/2000/svg">
<path d="M34.7272 6.96054C33.5972 7.4742 32.3791 7.81174 31.117 7.97317C32.4084 7.19535 33.4064 5.96258 33.876 4.48032C32.6579 5.21412 31.3078 5.72777 29.8842 6.02129C28.7248 4.75917 27.0958 4.02537 25.2466 4.02537C21.7978 4.02537 18.9801 6.84313 18.9801 10.3213C18.9801 10.8203 19.0388 11.3046 19.1415 11.7595C13.9169 11.4954 9.26465 8.98581 6.16805 5.18476C5.62504 6.10934 5.31685 7.19535 5.31685 8.34007C5.31685 10.5268 6.41753 12.464 8.11993 13.5647C7.07795 13.5647 6.10934 13.2712 5.25814 12.8309V12.8749C5.25814 15.9275 7.43017 18.4811 10.3066 19.0534C9.38312 19.3062 8.41359 19.3413 7.4742 19.1562C7.8728 20.4072 8.65345 21.502 9.70641 22.2864C10.7594 23.0709 12.0317 23.5056 13.3445 23.5296C11.1191 25.2913 8.36061 26.2436 5.52231 26.2299C5.02333 26.2299 4.52435 26.2006 4.02537 26.1419C6.81378 27.9323 10.1305 28.9743 13.6821 28.9743C25.2466 28.9743 31.6013 19.3763 31.6013 11.0551C31.6013 10.7763 31.6013 10.5121 31.5866 10.2333C32.8194 9.3527 33.876 8.23734 34.7272 6.96054Z" fill="#212223"/>
</svg>
