<svg width="67" height="67" viewBox="0 0 67 67" fill="none" xmlns="http://www.w3.org/2000/svg">
<path d="M34.8962 37.129C34.3378 35.7332 34.3378 34.6165 34.617 33.4998H8.37533V12.5623L25.1253 23.729L41.8753 12.5623V17.3082C43.5503 16.4707 44.9462 16.4707 45.7837 16.4707C46.0628 16.1915 46.6212 15.9123 47.1795 15.6332V7.25817C47.4587 4.74567 45.5045 2.7915 42.992 2.7915H7.25866C4.74616 2.7915 2.79199 4.74567 2.79199 7.25817V34.6165C2.79199 37.129 4.74616 39.0832 7.25866 39.0832H36.0128C35.4545 38.5248 35.1753 37.9665 34.8962 37.129ZM41.8753 8.37484L25.1253 19.5415L8.37533 8.37484H41.8753ZM63.092 27.6373C62.5337 25.9623 61.1378 25.6832 60.3003 24.8457C59.742 24.0082 59.742 22.3332 58.3462 21.4957C56.9503 20.379 55.5545 20.9373 54.4378 20.6582C53.3212 20.379 52.4837 18.9832 50.8087 18.9832C49.1337 18.9832 48.2962 20.0998 47.1795 20.6582C46.0628 20.9373 44.667 20.379 43.2712 21.4957C41.8753 22.3332 42.1545 23.729 41.317 24.8457C40.4795 25.6832 39.0837 26.2415 38.5253 27.6373C37.967 29.3123 39.0837 30.429 39.0837 31.5457C39.0837 32.6623 37.967 33.779 38.5253 35.454C39.0837 37.129 40.4795 37.4082 41.317 38.2457C41.8753 39.0832 41.8753 40.7582 43.2712 41.5957C44.667 42.7123 46.0628 42.154 47.1795 42.4332C48.2962 42.7123 49.1337 44.1082 50.8087 44.1082C52.4837 44.1082 53.3212 42.9915 54.4378 42.4332C55.5545 42.154 56.9503 42.7123 58.3462 41.5957C59.742 40.479 59.742 39.0832 60.3003 38.2457C61.1378 37.4082 62.5337 36.8498 63.092 35.454C63.6503 33.779 62.5337 32.6623 62.5337 31.5457C62.5337 30.429 63.6503 29.3123 63.092 27.6373ZM50.8087 40.1998C46.0628 40.1998 42.4337 36.2915 42.4337 31.8248C42.4337 27.3582 46.342 23.4498 50.8087 23.4498C55.2753 23.4498 59.1837 27.3582 59.1837 31.8248C59.1837 36.2915 55.5545 40.1998 50.8087 40.1998ZM54.9962 31.5457C54.9962 33.779 53.042 35.7332 50.8087 35.7332C48.5753 35.7332 46.6212 33.779 46.6212 31.5457C46.6212 29.3123 48.5753 27.3582 50.8087 27.3582C53.042 27.3582 54.9962 29.3123 54.9962 31.5457ZM54.4378 47.7373L53.042 55.2748L51.367 63.929L45.7837 58.6248L39.0837 61.6957L41.8753 45.7832C42.992 46.3415 44.3878 46.6207 45.7837 46.6207C46.6212 47.179 47.7378 47.7373 48.5753 48.0165C49.1337 48.2957 49.9712 48.2957 50.8087 48.2957C52.2045 48.5748 53.3212 48.2957 54.4378 47.7373ZM63.3712 54.4373L57.7878 52.4832L58.9045 46.3415L60.5795 45.504L60.8587 45.2248L63.3712 54.4373Z" fill="#F7CF2F"/>
</svg>
