<svg width="991" height="446" viewBox="0 0 991 446" fill="none" xmlns="http://www.w3.org/2000/svg">
<path d="M430.371 206.961V445.506H990.854V78.189C990.854 64.9227 980.1 54.1683 966.834 54.1683H751.556C743.409 54.1683 735.817 58.2975 731.391 65.1366L696.878 118.457C692.451 125.296 684.859 129.425 676.712 129.425H509.732C503.5 129.425 497.513 131.847 493.033 136.179L437.694 189.693C433.014 194.219 430.371 200.45 430.371 206.961Z" fill="#F6F1E9"/>
<path d="M761.625 139.258L765.283 255.664H754.537L758.194 139.258H761.625Z" fill="#F7CF2F"/>
<path opacity="0.5" d="M761.625 139.258L765.283 255.664H754.537L758.194 139.258H761.625Z" fill="#F7CF2F"/>
<path d="M761.932 149.02L758.095 142.365L758.193 139.256H761.628L761.932 149.02Z" fill="#F7CF2F"/>
<path d="M764.089 217.771H755.73L755.863 213.481H763.956L764.089 217.771Z" fill="#F7CF2F"/>
<path d="M763.893 211.45H755.925L755.991 209.304H763.825L763.893 211.45Z" fill="#F7CF2F"/>
<path opacity="0.5" d="M760.014 255.697V139.256H761.627L765.282 255.665L760.014 255.697Z" fill="#F7CF2F"/>
<g opacity="0.4">
<path opacity="0.3" d="M761.625 139.258L765.283 255.664H754.537L758.194 139.258H761.625Z" fill="#212223"/>
<path opacity="0.3" d="M761.625 139.258L765.283 255.664H754.537L758.194 139.258H761.625Z" fill="#212223"/>
<path opacity="0.3" d="M761.932 149.02L758.095 142.365L758.193 139.256H761.628L761.932 149.02Z" fill="#212223"/>
<path opacity="0.3" d="M764.089 217.771H755.73L755.863 213.481H763.956L764.089 217.771Z" fill="#212223"/>
<path opacity="0.3" d="M763.893 211.45H755.925L755.991 209.304H763.825L763.893 211.45Z" fill="#212223"/>
<path opacity="0.3" d="M760.014 255.697V139.256H761.627L765.282 255.665L760.014 255.697Z" fill="#212223"/>
</g>
<path d="M739.666 137.827L740.779 141.035L764.54 141.957V133.696L740.779 134.62L739.666 137.827Z" fill="#F7CF2F"/>
<g opacity="0.5">
<path d="M739.666 137.827L740.779 141.035L764.54 141.957V133.696L740.779 134.62L739.666 137.827Z" fill="#F7CF2F"/>
</g>
<path opacity="0.5" d="M764.54 137.826H739.666L740.076 136.648L764.54 136.254V137.826Z" fill="#F7CF2F"/>
<path d="M766.851 137.329C766.851 137.329 767.253 96.9397 766.851 80.1838C766.833 79.4253 765.647 79.3701 765.535 80.1838C764.258 89.5472 760.393 120.296 760.393 123.511C760.393 126.008 764.994 137.328 764.994 137.328H766.851V137.329Z" fill="#F7CF2F"/>
<path opacity="0.3" d="M766.851 137.329C766.851 137.329 767.253 96.9397 766.851 80.1838C766.833 79.4253 765.647 79.3701 765.535 80.1838C764.258 89.5472 760.393 120.296 760.393 123.511C760.393 126.008 764.994 137.328 764.994 137.328H766.851V137.329Z" fill="#F7CF2F"/>
<path d="M763.936 138.118C763.936 138.118 736.602 167.857 725.686 180.575C725.191 181.152 726.035 181.987 726.663 181.455C733.88 175.353 757.332 155.095 759.485 152.705C761.157 150.85 765.316 139.361 765.316 139.361L763.936 138.118Z" fill="#F7CF2F"/>
<path opacity="0.3" d="M763.936 138.118C763.936 138.118 736.602 167.857 725.686 180.575C725.191 181.152 726.035 181.987 726.663 181.455C733.88 175.353 757.332 155.095 759.485 152.705C761.157 150.85 765.316 139.361 765.316 139.361L763.936 138.118Z" fill="#F7CF2F"/>
<path d="M766.064 139.373C766.064 139.373 793.077 169.402 804.704 181.474C805.231 182.021 806.143 181.26 805.673 180.586C800.281 172.824 782.337 147.556 780.164 145.186C778.476 143.347 767.431 138.116 767.431 138.116L766.064 139.373Z" fill="#F7CF2F"/>
<path opacity="0.3" d="M766.064 139.373C766.064 139.373 793.077 169.402 804.704 181.474C805.231 182.021 806.143 181.26 805.673 180.586C800.281 172.824 782.337 147.556 780.164 145.186C778.476 143.347 767.431 138.116 767.431 138.116L766.064 139.373Z" fill="#F7CF2F"/>
<path d="M769.178 137.827C769.178 140.107 767.328 141.957 765.048 141.957C762.767 141.957 760.917 140.107 760.917 137.827C760.917 135.546 762.767 133.696 765.048 133.696C767.328 133.696 769.178 135.546 769.178 137.827Z" fill="#F7CF2F"/>
<path d="M762.343 137.826C762.343 139.754 763.906 141.316 765.833 141.316C767.761 141.316 769.947 138.82 769.947 137.826C769.947 136.918 767.761 134.337 765.833 134.337C763.906 134.337 762.343 135.9 762.343 137.826Z" fill="#F7CF2F"/>
<path opacity="0.5" d="M762.343 137.826C762.343 139.754 763.906 141.316 765.833 141.316C767.761 141.316 769.947 138.82 769.947 137.826C769.947 136.918 767.761 134.337 765.833 134.337C763.906 134.337 762.343 135.9 762.343 137.826Z" fill="#F7CF2F"/>
<g opacity="0.4">
<path opacity="0.3" d="M739.666 137.827L740.779 141.035L764.54 141.957V133.696L740.779 134.62L739.666 137.827Z" fill="#212223"/>
<g opacity="0.5">
<path opacity="0.3" d="M739.666 137.827L740.779 141.035L764.54 141.957V133.696L740.779 134.62L739.666 137.827Z" fill="#212223"/>
</g>
<path opacity="0.3" d="M764.54 137.826H739.666L740.076 136.648L764.54 136.254V137.826Z" fill="#212223"/>
<path opacity="0.3" d="M766.851 137.329C766.851 137.329 767.253 96.9397 766.851 80.1838C766.833 79.4253 765.647 79.3701 765.535 80.1838C764.258 89.5472 760.393 120.296 760.393 123.511C760.393 126.008 764.994 137.328 764.994 137.328H766.851V137.329Z" fill="#212223"/>
<path opacity="0.3" d="M766.851 137.329C766.851 137.329 767.253 96.9397 766.851 80.1838C766.833 79.4253 765.647 79.3701 765.535 80.1838C764.258 89.5472 760.393 120.296 760.393 123.511C760.393 126.008 764.994 137.328 764.994 137.328H766.851V137.329Z" fill="#212223"/>
<path opacity="0.3" d="M763.936 138.118C763.936 138.118 736.602 167.857 725.686 180.575C725.191 181.152 726.035 181.987 726.663 181.455C733.88 175.353 757.332 155.095 759.485 152.705C761.157 150.85 765.316 139.361 765.316 139.361L763.936 138.118Z" fill="#212223"/>
<path opacity="0.3" d="M763.936 138.118C763.936 138.118 736.602 167.857 725.686 180.575C725.191 181.152 726.035 181.987 726.663 181.455C733.88 175.353 757.332 155.095 759.485 152.705C761.157 150.85 765.316 139.361 765.316 139.361L763.936 138.118Z" fill="#212223"/>
<path opacity="0.3" d="M766.064 139.373C766.064 139.373 793.077 169.402 804.704 181.474C805.231 182.021 806.143 181.26 805.673 180.586C800.281 172.824 782.337 147.556 780.164 145.186C778.476 143.347 767.431 138.116 767.431 138.116L766.064 139.373Z" fill="#212223"/>
<path opacity="0.3" d="M766.064 139.373C766.064 139.373 793.077 169.402 804.704 181.474C805.231 182.021 806.143 181.26 805.673 180.586C800.281 172.824 782.337 147.556 780.164 145.186C778.476 143.347 767.431 138.116 767.431 138.116L766.064 139.373Z" fill="#212223"/>
<path opacity="0.3" d="M769.178 137.827C769.178 140.107 767.328 141.957 765.048 141.957C762.767 141.957 760.917 140.107 760.917 137.827C760.917 135.546 762.767 133.696 765.048 133.696C767.328 133.696 769.178 135.546 769.178 137.827Z" fill="#212223"/>
<path opacity="0.3" d="M762.343 137.826C762.343 139.754 763.906 141.316 765.833 141.316C767.761 141.316 769.947 138.82 769.947 137.826C769.947 136.918 767.761 134.337 765.833 134.337C763.906 134.337 762.343 135.9 762.343 137.826Z" fill="#212223"/>
<path opacity="0.3" d="M762.343 137.826C762.343 139.754 763.906 141.316 765.833 141.316C767.761 141.316 769.947 138.82 769.947 137.826C769.947 136.918 767.761 134.337 765.833 134.337C763.906 134.337 762.343 135.9 762.343 137.826Z" fill="#212223"/>
</g>
<path d="M758.71 132.111C763.2 127.845 771.163 131.659 770.675 137.828C770.477 131.97 763.389 128.569 758.71 132.111Z" fill="#212223"/>
<path d="M763.327 145.174C757.047 145.662 753.276 137.466 757.758 133.031C754.003 137.673 757.368 144.985 763.327 145.174Z" fill="#212223"/>
<path d="M770.545 139.207C770.465 141.461 768.848 143.57 766.742 144.333C768.519 143.025 769.833 141.323 770.545 139.207Z" fill="#212223"/>
<path d="M759.645 146.997C752.019 144.497 750.995 133.291 758.058 129.469C751.602 133.777 752.528 143.912 759.645 146.997Z" fill="#212223"/>
<path d="M770.949 144.112C769.356 146.576 766.244 148.05 763.327 147.706C766.24 147.393 768.856 146.161 770.949 144.112Z" fill="#212223"/>
<path d="M760.683 128.306C766.733 126.089 773.718 131.409 773.207 137.826C772.994 131.568 766.773 126.828 760.683 128.306Z" fill="#212223"/>
<path d="M769.625 132.298C776.334 139.724 766.685 150.572 758.477 144.836C756.2 143.28 754.836 140.532 754.946 137.826C755.016 140.527 756.449 143.109 758.644 144.592C766.653 149.853 775.696 139.719 769.625 132.298Z" fill="#212223"/>
<path d="M755.481 134.876C756.734 130.332 762.43 127.87 766.589 130.104C762.261 128.571 757.352 130.683 755.481 134.876Z" fill="#212223"/>
<path d="M532.794 141.129L537.668 296.223H523.351L528.224 141.129H532.794Z" fill="#F7CF2F"/>
<path opacity="0.5" d="M532.794 141.129L537.668 296.223H523.351L528.224 141.129H532.794Z" fill="white"/>
<path d="M533.204 154.137L528.092 145.268L528.22 141.127H532.796L533.204 154.137Z" fill="#F7CF2F"/>
<path d="M536.078 245.738H524.941L525.119 240.022H535.9L536.078 245.738Z" fill="#F7CF2F"/>
<path d="M535.816 237.314H525.201L525.29 234.459H535.729L535.816 237.314Z" fill="#F7CF2F"/>
<path opacity="0.5" d="M530.647 296.268V141.127H532.796L537.667 296.223L530.647 296.268Z" fill="white"/>
<path d="M503.539 139.224L505.022 143.497L536.677 144.727V133.72L505.022 134.951L503.539 139.224Z" fill="#F7CF2F"/>
<g opacity="0.5">
<path d="M503.539 139.224L505.022 143.497L536.677 144.727V133.72L505.022 134.951L503.539 139.224Z" fill="white"/>
</g>
<path opacity="0.5" d="M536.677 139.224H503.539L504.084 137.654L536.677 137.128V139.224Z" fill="white"/>
<path d="M538.203 141.299C538.203 141.299 532.296 194.79 530.599 217.056C530.522 218.064 532.087 218.297 532.342 217.23C535.28 204.988 544.496 164.739 544.923 160.475C545.254 157.165 540.662 141.545 540.662 141.545L538.203 141.299Z" fill="#F7CF2F"/>
<path opacity="0.1" d="M538.203 141.299C538.203 141.299 532.296 194.79 530.599 217.056C530.522 218.064 532.087 218.297 532.342 217.23C535.28 204.988 544.496 164.739 544.923 160.475C545.254 157.165 540.662 141.545 540.662 141.545L538.203 141.299Z" fill="white"/>
<path d="M540.827 139.224C540.827 139.224 586.009 109.987 604.335 97.2263C605.165 96.6477 604.355 95.2892 603.369 95.7646C592.025 101.227 555.012 119.532 551.437 121.895C548.663 123.73 539.463 137.162 539.463 137.162L540.827 139.224Z" fill="#F7CF2F"/>
<path opacity="0.1" d="M540.827 139.224C540.827 139.224 586.009 109.987 604.335 97.2263C605.165 96.6477 604.355 95.2892 603.369 95.7646C592.025 101.227 555.012 119.532 551.437 121.895C548.663 123.73 539.463 137.162 539.463 137.162L540.827 139.224Z" fill="white"/>
<path d="M538.468 138.477C538.468 138.477 503.478 97.5891 488.39 81.1252C487.707 80.3791 486.467 81.362 487.071 82.2771C493.995 92.7925 517.062 127.04 519.88 130.268C522.068 132.773 536.604 140.103 536.604 140.103L538.468 138.477Z" fill="#F7CF2F"/>
<path opacity="0.1" d="M538.468 138.477C538.468 138.477 503.478 97.5891 488.39 81.1252C487.707 80.3791 486.467 81.362 487.071 82.2771C493.995 92.7925 517.062 127.04 519.88 130.268C522.068 132.773 536.604 140.103 536.604 140.103L538.468 138.477Z" fill="white"/>
<path d="M542.857 139.224C542.857 142.263 540.393 144.729 537.354 144.729C534.314 144.729 531.85 142.265 531.85 139.224C531.85 136.184 534.314 133.72 537.354 133.72C540.393 133.72 542.857 136.184 542.857 139.224Z" fill="#F7CF2F"/>
<path d="M533.75 139.224C533.75 141.793 535.832 143.875 538.401 143.875C540.968 143.875 543.881 140.549 543.881 139.224C543.881 138.015 540.968 134.574 538.401 134.574C535.832 134.574 533.75 136.657 533.75 139.224Z" fill="#F7CF2F"/>
<path opacity="0.5" d="M533.75 139.224C533.75 141.793 535.832 143.875 538.401 143.875C540.968 143.875 543.881 140.549 543.881 139.224C543.881 138.015 540.968 134.574 538.401 134.574C535.832 134.574 533.75 136.657 533.75 139.224Z" fill="white"/>
<path d="M528.911 131.606C534.933 126.044 545.382 131.051 544.852 139.223C544.656 131.329 535.175 126.781 528.911 131.606Z" fill="#212223"/>
<path d="M535.063 149.013C526.691 149.478 521.809 138.87 527.644 132.836C522.532 139.05 527.029 148.823 535.063 149.013Z" fill="#212223"/>
<path d="M544.681 141.064C544.467 144.046 542.37 146.781 539.614 147.894C542.039 146.236 543.835 143.907 544.681 141.064Z" fill="#212223"/>
<path d="M530.157 151.441C520.071 147.91 518.742 133.363 528.045 128.088C526.058 129.454 524.449 131.321 523.397 133.458C520.094 140.046 523.372 148.61 530.157 151.441Z" fill="#212223"/>
<path d="M545.219 147.595C543.015 150.808 538.946 152.735 535.063 152.384C538.944 152.078 542.512 150.393 545.219 147.595Z" fill="#212223"/>
<path d="M531.539 126.539C539.601 123.705 548.791 130.704 548.226 139.223C548.069 130.864 539.639 124.444 531.539 126.539Z" fill="#212223"/>
<path d="M543.454 131.857C552.247 141.851 539.601 156.038 528.627 148.522C525.608 146.461 523.777 142.83 523.897 139.223C523.959 142.823 525.857 146.29 528.797 148.279C539.57 155.326 551.615 141.823 543.454 131.857Z" fill="#212223"/>
<path d="M524.61 135.292C526.379 129.3 533.845 126.071 539.409 128.935C533.681 126.763 526.972 129.676 524.61 135.292Z" fill="#212223"/>
<path d="M598.298 194.84L601.485 296.239H592.123L595.308 194.84H598.298Z" fill="#F7CF2F"/>
<path opacity="0.5" d="M598.298 194.84L601.485 296.239H592.123L595.308 194.84H598.298Z" fill="#F7CF2F"/>
<path d="M598.565 203.345L595.223 197.546L595.307 194.84H598.3L598.565 203.345Z" fill="#F7CF2F"/>
<path d="M600.445 263.233H593.163L593.279 259.496H600.328L600.445 263.233Z" fill="#F7CF2F"/>
<path d="M600.274 257.726H593.334L593.391 255.858H600.215L600.274 257.726Z" fill="#F7CF2F"/>
<path opacity="0.5" d="M596.895 296.267V194.84H598.299L601.485 296.239L596.895 296.267Z" fill="#F7CF2F"/>
<g opacity="0.4">
<path opacity="0.3" d="M598.298 194.84L601.485 296.239H592.123L595.308 194.84H598.298Z" fill="#212223"/>
<path opacity="0.3" d="M598.298 194.84L601.485 296.239H592.123L595.308 194.84H598.298Z" fill="#212223"/>
<path opacity="0.3" d="M598.565 203.345L595.223 197.546L595.307 194.84H598.3L598.565 203.345Z" fill="#212223"/>
<path opacity="0.3" d="M600.445 263.233H593.163L593.279 259.496H600.328L600.445 263.233Z" fill="#212223"/>
<path opacity="0.3" d="M600.274 257.726H593.334L593.391 255.858H600.215L600.274 257.726Z" fill="#212223"/>
<path opacity="0.3" d="M596.895 296.267V194.84H598.299L601.485 296.239L596.895 296.267Z" fill="#212223"/>
</g>
<path d="M579.17 193.595L580.141 196.389L600.837 197.193V189.997L580.141 190.802L579.17 193.595Z" fill="#F7CF2F"/>
<g opacity="0.5">
<path d="M579.17 193.595L580.141 196.389L600.837 197.193V189.997L580.141 190.802L579.17 193.595Z" fill="#F7CF2F"/>
</g>
<path opacity="0.5" d="M600.837 193.595H579.17L579.528 192.567L600.837 192.224V193.595Z" fill="#F7CF2F"/>
<path d="M601.834 194.952C601.834 194.952 597.972 229.924 596.863 244.481C596.813 245.14 597.835 245.291 598.003 244.595C599.924 236.59 605.949 210.277 606.228 207.489C606.446 205.325 603.444 195.113 603.444 195.113L601.834 194.952Z" fill="#F7CF2F"/>
<path opacity="0.1" d="M601.834 194.952C601.834 194.952 597.972 229.924 596.863 244.481C596.813 245.14 597.835 245.291 598.003 244.595C599.924 236.59 605.949 210.277 606.228 207.489C606.446 205.325 603.444 195.113 603.444 195.113L601.834 194.952Z" fill="#F7CF2F"/>
<path d="M603.55 193.595C603.55 193.595 633.09 174.48 645.071 166.137C645.614 165.76 645.084 164.871 644.439 165.181C637.024 168.752 612.825 180.719 610.487 182.264C608.673 183.464 602.658 192.246 602.658 192.246L603.55 193.595Z" fill="#F7CF2F"/>
<path opacity="0.1" d="M603.55 193.595C603.55 193.595 633.09 174.48 645.071 166.137C645.614 165.76 645.084 164.871 644.439 165.181C637.024 168.752 612.825 180.719 610.487 182.264C608.673 183.464 602.658 192.246 602.658 192.246L603.55 193.595Z" fill="#F7CF2F"/>
<path d="M602.008 193.106C602.008 193.106 579.133 166.374 569.269 155.609C568.822 155.121 568.012 155.764 568.405 156.362C572.931 163.237 588.012 185.628 589.855 187.737C591.285 189.375 600.789 194.168 600.789 194.168L602.008 193.106Z" fill="#F7CF2F"/>
<path opacity="0.1" d="M602.008 193.106C602.008 193.106 579.133 166.374 569.269 155.609C568.822 155.121 568.012 155.764 568.405 156.362C572.931 163.237 588.012 185.628 589.855 187.737C591.285 189.375 600.789 194.168 600.789 194.168L602.008 193.106Z" fill="#F7CF2F"/>
<path d="M601.279 197.193C603.266 197.193 604.877 195.582 604.877 193.595C604.877 191.608 603.266 189.997 601.279 189.997C599.291 189.997 597.68 191.608 597.68 193.595C597.68 195.582 599.291 197.193 601.279 197.193Z" fill="#F7CF2F"/>
<path d="M598.924 193.595C598.924 195.274 600.284 196.636 601.963 196.636C603.642 196.636 605.547 194.462 605.547 193.595C605.547 192.804 603.642 190.554 601.963 190.554C600.286 190.554 598.924 191.916 598.924 193.595Z" fill="#F7CF2F"/>
<path opacity="0.5" d="M598.924 193.595C598.924 195.274 600.284 196.636 601.963 196.636C603.642 196.636 605.547 194.462 605.547 193.595C605.547 192.804 603.642 190.554 601.963 190.554C600.286 190.554 598.924 191.916 598.924 193.595Z" fill="#F7CF2F"/>
<g opacity="0.4">
<path opacity="0.3" d="M579.17 193.595L580.141 196.389L600.837 197.193V189.997L580.141 190.802L579.17 193.595Z" fill="#212223"/>
<g opacity="0.5">
<path opacity="0.3" d="M579.17 193.595L580.141 196.389L600.837 197.193V189.997L580.141 190.802L579.17 193.595Z" fill="#212223"/>
</g>
<path opacity="0.3" d="M600.837 193.595H579.17L579.528 192.567L600.837 192.224V193.595Z" fill="#212223"/>
<path opacity="0.3" d="M601.834 194.952C601.834 194.952 597.972 229.924 596.863 244.481C596.813 245.14 597.835 245.291 598.003 244.595C599.924 236.59 605.949 210.277 606.228 207.489C606.446 205.325 603.444 195.113 603.444 195.113L601.834 194.952Z" fill="#212223"/>
<path opacity="0.3" d="M601.834 194.952C601.834 194.952 597.972 229.924 596.863 244.481C596.813 245.14 597.835 245.291 598.003 244.595C599.924 236.59 605.949 210.277 606.228 207.489C606.446 205.325 603.444 195.113 603.444 195.113L601.834 194.952Z" fill="#212223"/>
<path opacity="0.3" d="M603.55 193.595C603.55 193.595 633.09 174.48 645.071 166.137C645.614 165.76 645.084 164.871 644.439 165.181C637.024 168.752 612.825 180.719 610.487 182.264C608.673 183.464 602.658 192.246 602.658 192.246L603.55 193.595Z" fill="#212223"/>
<path opacity="0.3" d="M603.55 193.595C603.55 193.595 633.09 174.48 645.071 166.137C645.614 165.76 645.084 164.871 644.439 165.181C637.024 168.752 612.825 180.719 610.487 182.264C608.673 183.464 602.658 192.246 602.658 192.246L603.55 193.595Z" fill="#212223"/>
<path opacity="0.3" d="M602.008 193.106C602.008 193.106 579.133 166.374 569.269 155.609C568.822 155.121 568.012 155.764 568.405 156.362C572.931 163.237 588.012 185.628 589.855 187.737C591.285 189.375 600.789 194.168 600.789 194.168L602.008 193.106Z" fill="#212223"/>
<path opacity="0.3" d="M602.008 193.106C602.008 193.106 579.133 166.374 569.269 155.609C568.822 155.121 568.012 155.764 568.405 156.362C572.931 163.237 588.012 185.628 589.855 187.737C591.285 189.375 600.789 194.168 600.789 194.168L602.008 193.106Z" fill="#212223"/>
<path opacity="0.3" d="M601.279 197.193C603.266 197.193 604.877 195.582 604.877 193.595C604.877 191.608 603.266 189.997 601.279 189.997C599.291 189.997 597.68 191.608 597.68 193.595C597.68 195.582 599.291 197.193 601.279 197.193Z" fill="#212223"/>
<path opacity="0.3" d="M598.924 193.595C598.924 195.274 600.284 196.636 601.963 196.636C603.642 196.636 605.547 194.462 605.547 193.595C605.547 192.804 603.642 190.554 601.963 190.554C600.286 190.554 598.924 191.916 598.924 193.595Z" fill="#212223"/>
<path opacity="0.3" d="M598.924 193.595C598.924 195.274 600.284 196.636 601.963 196.636C603.642 196.636 605.547 194.462 605.547 193.595C605.547 192.804 603.642 190.554 601.963 190.554C600.286 190.554 598.924 191.916 598.924 193.595Z" fill="#212223"/>
</g>
<path d="M595.759 188.615C599.656 184.851 606.652 188.202 606.182 193.595C605.957 188.508 599.856 185.579 595.759 188.615Z" fill="#212223"/>
<path d="M599.78 199.996C594.291 200.468 590.978 193.266 594.93 189.42C591.708 193.483 594.605 199.781 599.78 199.996Z" fill="#212223"/>
<path d="M606.068 194.799C606.039 196.77 604.61 198.634 602.756 199.264C604.282 198.091 605.407 196.631 606.068 194.799Z" fill="#212223"/>
<path d="M596.574 201.582C589.897 199.44 589 189.614 595.192 186.314C589.616 190.03 590.428 198.922 596.574 201.582Z" fill="#212223"/>
<path d="M606.42 199.068C605.065 201.242 602.322 202.542 599.781 202.2C602.318 201.885 604.565 200.827 606.42 199.068Z" fill="#212223"/>
<path d="M597.477 185.302C602.746 183.324 608.878 187.994 608.386 193.595C608.151 188.151 602.788 184.064 597.477 185.302Z" fill="#212223"/>
<path d="M605.266 188.779C611.151 195.248 602.708 204.745 595.545 199.717C593.556 198.357 592.372 195.953 592.481 193.596C592.554 195.949 593.805 198.186 595.714 199.473C602.676 204.024 610.513 195.243 605.266 188.779Z" fill="#212223"/>
<path d="M592.945 191.024C593.986 187.045 599.039 184.871 602.622 186.868C598.836 185.578 594.617 187.394 592.945 191.024Z" fill="#212223"/>
<path d="M466.081 272.966L468.934 363.786H460.549L463.404 272.966H466.081Z" fill="#F7CF2F"/>
<path opacity="0.5" d="M466.081 272.966L468.934 363.786H460.549L463.404 272.966H466.081Z" fill="#F7CF2F"/>
<path d="M466.32 280.583L463.327 275.391L463.402 272.966H466.082L466.32 280.583Z" fill="#F7CF2F"/>
<path d="M468.003 334.223H461.481L461.586 330.876H467.9L468.003 334.223Z" fill="#F7CF2F"/>
<path d="M467.852 329.291H461.634L461.686 327.617H467.798L467.852 329.291Z" fill="#F7CF2F"/>
<path opacity="0.5" d="M464.823 363.811V272.966H466.081L468.934 363.786L464.823 363.811Z" fill="#F7CF2F"/>
<g opacity="0.4">
<path opacity="0.3" d="M466.081 272.966L468.934 363.786H460.549L463.404 272.966H466.081Z" fill="#212223"/>
<path opacity="0.3" d="M466.081 272.966L468.934 363.786H460.549L463.404 272.966H466.081Z" fill="#212223"/>
<path opacity="0.3" d="M466.32 280.583L463.327 275.391L463.402 272.966H466.082L466.32 280.583Z" fill="#212223"/>
<path opacity="0.3" d="M468.003 334.223H461.481L461.586 330.876H467.9L468.003 334.223Z" fill="#212223"/>
<path opacity="0.3" d="M467.852 329.291H461.634L461.686 327.617H467.798L467.852 329.291Z" fill="#212223"/>
<path opacity="0.3" d="M464.823 363.811V272.966H466.081L468.934 363.786L464.823 363.811Z" fill="#212223"/>
</g>
<path d="M448.95 271.851L449.817 274.353L468.353 275.074V268.629L449.817 269.348L448.95 271.851Z" fill="#F7CF2F"/>
<g opacity="0.5">
<path d="M448.95 271.851L449.817 274.353L468.353 275.074V268.629L449.817 269.348L448.95 271.851Z" fill="#F7CF2F"/>
</g>
<path opacity="0.5" d="M468.353 271.852H448.95L449.268 270.931L468.353 270.623V271.852Z" fill="#F7CF2F"/>
<path d="M469.249 273.066C469.249 273.066 465.789 304.388 464.796 317.426C464.751 318.017 465.667 318.153 465.818 317.528C467.538 310.36 472.935 286.79 473.186 284.294C473.38 282.355 470.691 273.208 470.691 273.208L469.249 273.066Z" fill="#F7CF2F"/>
<path opacity="0.1" d="M469.249 273.066C469.249 273.066 465.789 304.388 464.796 317.426C464.751 318.017 465.667 318.153 465.818 317.528C467.538 310.36 472.935 286.79 473.186 284.294C473.38 282.355 470.691 273.208 470.691 273.208L469.249 273.066Z" fill="#F7CF2F"/>
<path d="M470.784 271.852C470.784 271.852 497.24 254.731 507.973 247.258C508.459 246.92 507.986 246.124 507.407 246.402C500.764 249.602 479.09 260.32 476.998 261.703C475.374 262.777 469.986 270.643 469.986 270.643L470.784 271.852Z" fill="#F7CF2F"/>
<path opacity="0.1" d="M470.784 271.852C470.784 271.852 497.24 254.731 507.973 247.258C508.459 246.92 507.986 246.124 507.407 246.402C500.764 249.602 479.09 260.32 476.998 261.703C475.374 262.777 469.986 270.643 469.986 270.643L470.784 271.852Z" fill="#F7CF2F"/>
<path d="M469.404 271.414C469.404 271.414 448.914 247.47 440.081 237.831C439.681 237.394 438.956 237.969 439.309 238.505C443.363 244.662 456.87 264.717 458.52 266.606C459.802 268.074 468.315 272.366 468.315 272.366L469.404 271.414Z" fill="#F7CF2F"/>
<path opacity="0.1" d="M469.404 271.414C469.404 271.414 448.914 247.47 440.081 237.831C439.681 237.394 438.956 237.969 439.309 238.505C443.363 244.662 456.87 264.717 458.52 266.606C459.802 268.074 468.315 272.366 468.315 272.366L469.404 271.414Z" fill="#F7CF2F"/>
<path d="M471.974 271.851C471.974 273.632 470.53 275.074 468.751 275.074C466.971 275.074 465.528 273.632 465.528 271.851C465.528 270.071 466.972 268.629 468.751 268.629C470.532 268.629 471.974 270.071 471.974 271.851Z" fill="#F7CF2F"/>
<path d="M466.641 271.851C466.641 273.355 467.86 274.573 469.363 274.573C470.868 274.573 472.573 272.627 472.573 271.851C472.573 271.142 470.868 269.129 469.363 269.129C467.86 269.127 466.641 270.346 466.641 271.851Z" fill="#F7CF2F"/>
<path opacity="0.5" d="M466.641 271.851C466.641 273.355 467.86 274.573 469.363 274.573C470.868 274.573 472.573 272.627 472.573 271.851C472.573 271.142 470.868 269.129 469.363 269.129C467.86 269.127 466.641 270.346 466.641 271.851Z" fill="#F7CF2F"/>
<g opacity="0.4">
<path opacity="0.3" d="M448.95 271.851L449.817 274.353L468.353 275.074V268.629L449.817 269.348L448.95 271.851Z" fill="#212223"/>
<g opacity="0.5">
<path opacity="0.3" d="M448.95 271.851L449.817 274.353L468.353 275.074V268.629L449.817 269.348L448.95 271.851Z" fill="#212223"/>
</g>
<path opacity="0.3" d="M468.353 271.852H448.95L449.268 270.931L468.353 270.623V271.852Z" fill="#212223"/>
<path opacity="0.3" d="M469.249 273.066C469.249 273.066 465.789 304.388 464.796 317.426C464.751 318.017 465.667 318.153 465.818 317.528C467.538 310.36 472.935 286.79 473.186 284.294C473.38 282.355 470.691 273.208 470.691 273.208L469.249 273.066Z" fill="#212223"/>
<path opacity="0.3" d="M469.249 273.066C469.249 273.066 465.789 304.388 464.796 317.426C464.751 318.017 465.667 318.153 465.818 317.528C467.538 310.36 472.935 286.79 473.186 284.294C473.38 282.355 470.691 273.208 470.691 273.208L469.249 273.066Z" fill="#212223"/>
<path opacity="0.3" d="M470.784 271.852C470.784 271.852 497.24 254.731 507.973 247.258C508.459 246.92 507.986 246.124 507.407 246.402C500.764 249.602 479.09 260.32 476.998 261.703C475.374 262.777 469.986 270.643 469.986 270.643L470.784 271.852Z" fill="#212223"/>
<path opacity="0.3" d="M470.784 271.852C470.784 271.852 497.24 254.731 507.973 247.258C508.459 246.92 507.986 246.124 507.407 246.402C500.764 249.602 479.09 260.32 476.998 261.703C475.374 262.777 469.986 270.643 469.986 270.643L470.784 271.852Z" fill="#212223"/>
<path opacity="0.3" d="M469.404 271.414C469.404 271.414 448.914 247.47 440.081 237.831C439.681 237.394 438.956 237.969 439.309 238.505C443.363 244.662 456.87 264.717 458.52 266.606C459.802 268.074 468.315 272.366 468.315 272.366L469.404 271.414Z" fill="#212223"/>
<path opacity="0.3" d="M469.404 271.414C469.404 271.414 448.914 247.47 440.081 237.831C439.681 237.394 438.956 237.969 439.309 238.505C443.363 244.662 456.87 264.717 458.52 266.606C459.802 268.074 468.315 272.366 468.315 272.366L469.404 271.414Z" fill="#212223"/>
<path opacity="0.3" d="M471.974 271.851C471.974 273.632 470.53 275.074 468.751 275.074C466.971 275.074 465.528 273.632 465.528 271.851C465.528 270.071 466.972 268.629 468.751 268.629C470.532 268.629 471.974 270.071 471.974 271.851Z" fill="#212223"/>
<path opacity="0.3" d="M466.641 271.851C466.641 273.355 467.86 274.573 469.363 274.573C470.868 274.573 472.573 272.627 472.573 271.851C472.573 271.142 470.868 269.129 469.363 269.129C467.86 269.127 466.641 270.346 466.641 271.851Z" fill="#212223"/>
<path opacity="0.3" d="M466.641 271.851C466.641 273.355 467.86 274.573 469.363 274.573C470.868 274.573 472.573 272.627 472.573 271.851C472.573 271.142 470.868 269.129 469.363 269.129C467.86 269.127 466.641 270.346 466.641 271.851Z" fill="#212223"/>
</g>
<path d="M463.808 267.392C467.285 263.982 473.603 267.007 473.143 271.852C472.901 267.306 467.494 264.711 463.808 267.392Z" fill="#212223"/>
<path d="M467.409 277.586C462.477 278.047 459.486 271.544 463.065 268.114C460.216 271.771 462.784 277.351 467.409 277.586Z" fill="#212223"/>
<path d="M473.042 272.93C473.049 274.702 471.752 276.395 470.075 276.929C471.421 275.852 472.417 274.563 473.042 272.93Z" fill="#212223"/>
<path d="M464.536 279.007C458.529 277.117 457.72 268.263 463.298 265.331C458.336 268.689 459.057 276.59 464.536 279.007Z" fill="#212223"/>
<path d="M473.357 276.754C472.167 278.723 469.687 279.899 467.41 279.559C469.673 279.247 471.676 278.303 473.357 276.754Z" fill="#212223"/>
<path d="M465.346 264.424C470.064 262.614 475.594 266.824 475.117 271.852C474.866 266.983 470.107 263.356 465.346 264.424Z" fill="#212223"/>
<path d="M472.322 267.538C477.658 273.359 470.029 281.873 463.592 277.366C461.815 276.124 460.768 273.962 460.87 271.852C460.939 273.96 462.075 275.958 463.788 277.085C470.002 281.157 476.96 273.296 472.322 267.538Z" fill="#212223"/>
<path d="M461.286 269.55C462.187 265.968 466.754 264.002 469.954 265.827C466.553 264.709 462.819 266.315 461.286 269.55Z" fill="#212223"/>
<path d="M672.331 206.09L676.614 342.378H664.032L668.315 206.09H672.331Z" fill="#F7CF2F"/>
<path opacity="0.5" d="M672.331 206.09L676.614 342.378H664.032L668.315 206.09H672.331Z" fill="white"/>
<path d="M672.692 217.52L668.199 209.729L668.313 206.09H672.333L672.692 217.52Z" fill="#F7CF2F"/>
<path d="M675.217 298.015H665.429L665.585 292.993H675.059L675.217 298.015Z" fill="#F7CF2F"/>
<path d="M674.986 290.614H665.659L665.736 288.103H674.908L674.986 290.614Z" fill="#F7CF2F"/>
<path opacity="0.5" d="M670.444 342.417V206.09H672.333L676.614 342.378L670.444 342.417Z" fill="white"/>
<path d="M646.623 204.418L647.927 208.172L675.744 209.254V199.581L647.927 200.663L646.623 204.418Z" fill="#F7CF2F"/>
<g opacity="0.5">
<path d="M646.623 204.418L647.927 208.172L675.744 209.254V199.581L647.927 200.663L646.623 204.418Z" fill="white"/>
</g>
<path opacity="0.5" d="M675.744 204.417H646.623L647.102 203.036L675.744 202.574V204.417Z" fill="white"/>
<path d="M676.15 206.159C676.15 206.159 675.68 253.447 676.15 273.064C676.171 273.954 677.56 274.018 677.691 273.064C679.186 262.101 683.709 226.102 683.709 222.337C683.709 219.413 678.323 206.159 678.323 206.159H676.15Z" fill="#F7CF2F"/>
<path opacity="0.1" d="M676.15 206.159C676.15 206.159 675.68 253.447 676.15 273.064C676.171 273.954 677.56 274.018 677.691 273.064C679.186 262.101 683.709 226.102 683.709 222.337C683.709 219.413 678.323 206.159 678.323 206.159H676.15Z" fill="white"/>
<path d="M679.563 205.234C679.563 205.234 711.566 170.416 724.345 155.526C724.924 154.853 723.937 153.874 723.201 154.496C714.752 161.64 687.294 185.358 684.773 188.157C682.816 190.328 677.946 203.781 677.946 203.781L679.563 205.234Z" fill="#F7CF2F"/>
<path opacity="0.1" d="M679.563 205.234C679.563 205.234 711.566 170.416 724.345 155.526C724.924 154.853 723.937 153.874 723.201 154.496C714.752 161.64 687.294 185.358 684.773 188.157C682.816 190.328 677.946 203.781 677.946 203.781L679.563 205.234Z" fill="white"/>
<path d="M677.07 203.767C677.07 203.767 645.443 168.609 631.83 154.474C631.214 153.833 630.147 154.725 630.696 155.514C637.007 164.601 658.017 194.184 660.563 196.958C662.539 199.112 675.47 205.234 675.47 205.234L677.07 203.767Z" fill="#F7CF2F"/>
<path opacity="0.1" d="M677.07 203.767C677.07 203.767 645.443 168.609 631.83 154.474C631.214 153.833 630.147 154.725 630.696 155.514C637.007 164.601 658.017 194.184 660.563 196.958C662.539 199.112 675.47 205.234 675.47 205.234L677.07 203.767Z" fill="white"/>
<path d="M681.174 204.418C681.174 207.088 679.009 209.254 676.337 209.254C673.666 209.254 671.5 207.09 671.5 204.418C671.5 201.747 673.664 199.581 676.337 199.581C679.009 199.581 681.174 201.747 681.174 204.418Z" fill="#F7CF2F"/>
<path d="M673.171 204.417C673.171 206.675 675.002 208.504 677.258 208.504C679.515 208.504 682.074 205.582 682.074 204.417C682.074 203.354 679.513 200.331 677.258 200.331C675.002 200.331 673.171 202.16 673.171 204.417Z" fill="#F7CF2F"/>
<path opacity="0.5" d="M673.171 204.417C673.171 206.675 675.002 208.504 677.258 208.504C679.515 208.504 682.074 205.582 682.074 204.417C682.074 203.354 679.513 200.331 677.258 200.331C675.002 200.331 673.171 202.16 673.171 204.417Z" fill="white"/>
<path d="M668.919 197.725C674.178 192.733 683.496 197.196 682.928 204.42C682.7 197.559 674.396 193.575 668.919 197.725Z" fill="#212223"/>
<path d="M674.326 213.019C666.975 213.589 662.561 203.996 667.806 198.803C663.406 204.235 667.348 212.801 674.326 213.019Z" fill="#212223"/>
<path d="M682.776 206.035C682.679 208.672 680.79 211.139 678.325 212.037C680.405 210.507 681.943 208.512 682.776 206.035Z" fill="#212223"/>
<path d="M670.014 215.153C661.086 212.223 659.888 199.108 668.158 194.632C660.595 199.674 661.681 211.546 670.014 215.153Z" fill="#212223"/>
<path d="M683.249 211.773C681.383 214.657 677.738 216.384 674.324 215.982C677.736 215.619 680.798 214.174 683.249 211.773Z" fill="#212223"/>
<path d="M671.228 193.271C678.31 190.678 686.487 196.906 685.89 204.417C685.646 197.088 678.358 191.538 671.228 193.271Z" fill="#212223"/>
<path d="M681.698 197.944C689.549 206.639 678.256 219.336 668.647 212.623C665.981 210.8 664.384 207.587 664.513 204.417C664.594 207.58 666.271 210.603 668.844 212.341C678.219 218.498 688.807 206.631 681.698 197.944Z" fill="#212223"/>
<path d="M665.139 200.963C666.609 195.645 673.274 192.761 678.144 195.378C673.077 193.578 667.326 196.051 665.139 200.963Z" fill="#212223"/>
<path d="M644.219 100.375L650.372 296.212H632.293L638.447 100.375H644.219Z" fill="#F7CF2F"/>
<path opacity="0.5" d="M644.219 100.375L650.372 296.212H632.293L638.447 100.375H644.219Z" fill="white"/>
<path d="M644.735 116.798L638.279 105.601L638.443 100.372H644.22L644.735 116.798Z" fill="#F7CF2F"/>
<path d="M648.364 232.462H634.3L634.524 225.248H648.14L648.364 232.462Z" fill="#F7CF2F"/>
<path d="M648.035 221.828H634.629L634.741 218.22H647.922L648.035 221.828Z" fill="#F7CF2F"/>
<path opacity="0.5" d="M641.507 296.267V100.372H644.221L650.372 296.212L641.507 296.267Z" fill="white"/>
<path d="M607.278 97.9676L609.149 103.364L649.121 104.917V91.0184L609.149 92.5728L607.278 97.9676Z" fill="#F7CF2F"/>
<g opacity="0.5">
<path d="M607.278 97.9676L609.149 103.364L649.121 104.917V91.0184L609.149 92.5728L607.278 97.9676Z" fill="white"/>
</g>
<path opacity="0.5" d="M649.121 97.9672H607.278L607.965 95.9856L649.121 95.3214V97.9672Z" fill="white"/>
<path d="M653.009 97.131C653.009 97.131 653.686 29.1814 653.009 0.993145C652.979 -0.283446 650.983 -0.377811 650.796 0.993145C648.649 16.7449 642.146 68.4762 642.146 73.887C642.146 78.0871 649.886 97.1327 649.886 97.1327L653.009 97.131Z" fill="#F7CF2F"/>
<path opacity="0.3" d="M653.009 97.131C653.009 97.131 653.686 29.1814 653.009 0.993145C652.979 -0.283446 650.983 -0.377811 650.796 0.993145C648.649 16.7449 642.146 68.4762 642.146 73.887C642.146 78.0871 649.886 97.1327 649.886 97.1327L653.009 97.131Z" fill="white"/>
<path d="M648.106 98.4575C648.106 98.4575 602.121 148.488 583.755 169.884C582.924 170.853 584.343 172.258 585.399 171.366C597.538 161.099 636.994 127.018 640.615 122.998C643.427 119.876 650.424 100.548 650.424 100.548L648.106 98.4575Z" fill="#F7CF2F"/>
<path opacity="0.3" d="M648.106 98.4575C648.106 98.4575 602.121 148.488 583.755 169.884C582.924 170.853 584.343 172.258 585.399 171.366C597.538 161.099 636.994 127.018 640.615 122.998C643.427 119.876 650.424 100.548 650.424 100.548L648.106 98.4575Z" fill="white"/>
<path d="M651.685 100.569C651.685 100.569 697.132 151.088 716.692 171.399C717.577 172.32 719.112 171.04 718.322 169.904C709.254 156.846 679.064 114.337 675.405 110.351C672.565 107.256 653.985 98.4575 653.985 98.4575L651.685 100.569Z" fill="#F7CF2F"/>
<path opacity="0.3" d="M651.685 100.569C651.685 100.569 697.132 151.088 716.692 171.399C717.577 172.32 719.112 171.04 718.322 169.904C709.254 156.846 679.064 114.337 675.405 110.351C672.565 107.256 653.985 98.4575 653.985 98.4575L651.685 100.569Z" fill="white"/>
<path d="M649.975 104.918C653.813 104.918 656.925 101.807 656.925 97.969C656.925 94.1311 653.813 91.0199 649.975 91.0199C646.137 91.0199 643.026 94.1311 643.026 97.969C643.026 101.807 646.137 104.918 649.975 104.918Z" fill="#F7CF2F"/>
<path d="M645.427 97.9689C645.427 101.211 648.056 103.841 651.299 103.841C654.543 103.841 658.219 99.6426 658.219 97.9689C658.219 96.4413 654.541 92.097 651.299 92.097C648.055 92.0952 645.427 94.7249 645.427 97.9689Z" fill="#F7CF2F"/>
<path opacity="0.5" d="M645.427 97.9689C645.427 101.211 648.056 103.841 651.299 103.841C654.543 103.841 658.219 99.6426 658.219 97.9689C658.219 96.4413 654.541 92.097 651.299 92.097C648.055 92.0952 645.427 94.7249 645.427 97.9689Z" fill="white"/>
<path d="M639.316 88.3514C647.049 81.4682 659.925 87.6392 659.444 97.9695C659.33 95.6549 658.652 93.3848 657.406 91.4601C653.665 85.4404 644.871 83.9572 639.316 88.3514Z" fill="#212223"/>
<path d="M647.082 110.331C639.7 110.719 633.383 103.483 634.695 96.2172C635.032 93.8581 636.113 91.629 637.713 89.9037C631.15 97.7858 636.844 110.142 647.082 110.331Z" fill="#212223"/>
<path d="M659.227 100.293C658.872 104.04 656.266 107.438 652.83 108.915C655.935 106.893 658.24 103.903 659.227 100.293Z" fill="#212223"/>
<path d="M640.888 113.396C628.182 108.772 626.533 90.727 638.221 83.9078C627.101 91.1596 628.668 108.252 640.888 113.396Z" fill="#212223"/>
<path d="M659.907 108.54C657.06 112.543 651.986 114.945 647.082 114.589C651.984 114.286 656.556 112.128 659.907 108.54Z" fill="#212223"/>
<path d="M642.632 81.9525C651.435 79.0129 661.582 85.0843 663.366 94.1522C663.633 95.4092 663.708 96.6947 663.703 97.9695C663.649 87.4185 652.817 79.1607 642.632 81.9525Z" fill="#212223"/>
<path d="M657.677 88.6668C664.388 95.6231 661.213 108.2 652.131 111.371C643.225 114.989 632.51 107.595 632.984 97.9679C632.884 107.406 643.243 114.581 651.974 110.955C660.929 107.924 663.991 95.6907 657.677 88.6668Z" fill="#212223"/>
<path d="M633.883 93.0034C636.207 85.4863 645.517 81.4518 652.571 84.9771C645.362 82.1426 636.789 85.8638 633.883 93.0034Z" fill="#212223"/>
<path d="M953.382 196.474L887.219 250.466H677.696L744.094 196.291H862.958L953.382 196.474Z" fill="#F7CF2F"/>
<path opacity="0.6" d="M953.382 196.474L887.219 250.466H677.696L744.094 196.291H862.958L953.382 196.474Z" fill="#212223"/>
<path d="M887.22 351.082H953.381V196.475L887.22 250.463V351.082Z" fill="#F7CF2F"/>
<path opacity="0.4" d="M887.22 351.082H953.381V196.475L887.22 250.463V351.082Z" fill="white"/>
<path d="M677.695 351.082H887.219V250.461L677.695 250.461V351.082Z" fill="#F7CF2F"/>
<path opacity="0.8" d="M677.695 351.082H887.219V250.461L677.695 250.461V351.082Z" fill="white"/>
<path d="M692.146 280.161H704.956V264.397H692.146V280.161Z" fill="#212223"/>
<path d="M716.119 280.161H728.929V264.397H716.119V280.161Z" fill="#212223"/>
<path d="M740.093 280.161H752.904V264.397H740.093V280.161Z" fill="#212223"/>
<path d="M764.066 280.161H776.876V264.397H764.066V280.161Z" fill="#212223"/>
<path d="M788.04 280.161H800.851V264.397H788.04V280.161Z" fill="#212223"/>
<path d="M812.013 280.161H824.824V264.397H812.013V280.161Z" fill="#212223"/>
<path d="M835.985 280.161H848.795V264.397H835.985V280.161Z" fill="#212223"/>
<path d="M859.96 280.161H872.77V264.397H859.96V280.161Z" fill="#212223"/>
<path d="M692.146 310.336H704.956V294.572H692.146V310.336Z" fill="#212223"/>
<path d="M716.119 310.336H728.929V294.572H716.119V310.336Z" fill="#212223"/>
<path d="M740.093 310.336H752.904V294.572H740.093V310.336Z" fill="#212223"/>
<path d="M764.066 310.336H776.876V294.572H764.066V310.336Z" fill="#212223"/>
<path d="M788.04 310.336H800.851V294.572H788.04V310.336Z" fill="#212223"/>
<path d="M812.013 310.336H824.824V294.572H812.013V310.336Z" fill="#212223"/>
<path d="M835.985 310.336H848.795V294.572H835.985V310.336Z" fill="#212223"/>
<path d="M859.96 310.336H872.77V294.572H859.96V310.336Z" fill="#212223"/>
<path d="M761.248 235.521L704.714 235.512L704.355 234.242L738.8 206.194L795.547 206.202L795.692 207.473L761.248 235.521Z" fill="#C7C7C7"/>
<path d="M761.102 234.25L704.355 234.242L738.8 206.194L795.547 206.202L761.102 234.25Z" fill="#EBEBEB"/>
<path d="M788.54 208.988L781.201 214.968L777.305 218.145L770.897 223.365L769.925 224.165L760.966 231.464L711.36 231.456L724.648 220.623L725.626 219.833L731.127 215.346L735.022 212.168L737.075 210.493L738.052 209.703L738.935 208.981L788.54 208.988Z" fill="#455A64"/>
<g opacity="0.2">
<path d="M736.532 231.46L734.8 231.459L724.649 220.622L725.627 219.833L736.532 231.46Z" fill="white"/>
<path d="M770.897 223.365L769.926 224.164L755.702 208.983H757.416L770.897 223.365Z" fill="white"/>
<path d="M758.448 231.463H756.736L737.076 210.493L738.053 209.703L758.448 231.463Z" fill="white"/>
<path d="M753.111 231.463L746.231 231.462L731.127 215.346L735.023 212.168L753.111 231.463Z" fill="white"/>
<path d="M781.202 214.968L777.306 218.145L768.727 208.985L775.597 208.986L781.202 214.968Z" fill="white"/>
</g>
<path d="M724.717 233.327L724.178 232.781L755.748 207.075L756.285 207.62L724.717 233.327Z" fill="#EBEBEB"/>
<path d="M743.181 233.329L742.642 232.783L774.211 207.077L774.749 207.624L743.181 233.329Z" fill="#EBEBEB"/>
<path d="M775.162 220.688L723.054 220.68L723.553 219.717L775.661 219.724L775.162 220.688Z" fill="#EBEBEB"/>
<path d="M826.762 235.521L770.228 235.512L769.87 234.242L804.315 206.194L861.062 206.202L861.207 207.473L826.762 235.521Z" fill="#C7C7C7"/>
<path d="M826.617 234.25L769.87 234.242L804.315 206.194L861.062 206.202L826.617 234.25Z" fill="#EBEBEB"/>
<path d="M854.055 208.988L846.715 214.968L842.82 218.145L836.411 223.365L835.439 224.165L826.481 231.464L776.874 231.456L790.163 220.623L791.14 219.833L796.641 215.346L800.537 212.168L802.59 210.493L803.567 209.703L804.449 208.981L854.055 208.988Z" fill="#455A64"/>
<g opacity="0.2">
<path d="M802.047 231.46L800.314 231.459L790.164 220.622L791.141 219.833L802.047 231.46Z" fill="white"/>
<path d="M836.412 223.365L835.44 224.164L821.217 208.983H822.929L836.412 223.365Z" fill="white"/>
<path d="M823.963 231.463H822.249L802.59 210.493L803.568 209.703L823.963 231.463Z" fill="white"/>
<path d="M818.626 231.463L811.745 231.462L796.642 215.346L800.538 212.168L818.626 231.463Z" fill="white"/>
<path d="M846.716 214.968L842.821 218.145L834.241 208.985L841.111 208.986L846.716 214.968Z" fill="white"/>
</g>
<path d="M790.231 233.327L789.693 232.781L821.262 207.075L821.799 207.62L790.231 233.327Z" fill="#EBEBEB"/>
<path d="M808.695 233.329L808.157 232.783L839.725 207.077L840.264 207.624L808.695 233.329Z" fill="#EBEBEB"/>
<path d="M840.677 220.688L788.569 220.68L789.067 219.717L841.176 219.724L840.677 220.688Z" fill="#EBEBEB"/>
<path d="M892.276 235.521L835.743 235.512L835.383 234.242L869.828 206.194L926.576 206.202L926.721 207.473L892.276 235.521Z" fill="#C7C7C7"/>
<path d="M892.132 234.25L835.383 234.242L869.828 206.194L926.576 206.202L892.132 234.25Z" fill="#EBEBEB"/>
<path d="M919.569 208.988L912.23 214.968L908.333 218.145L901.926 223.365L900.954 224.165L891.995 231.464L842.388 231.456L855.678 220.623L856.655 219.833L862.156 215.346L866.051 212.168L868.104 210.493L869.082 209.703L869.963 208.981L919.569 208.988Z" fill="#455A64"/>
<g opacity="0.2">
<path d="M867.561 231.46L865.829 231.459L855.678 220.622L856.655 219.833L867.561 231.46Z" fill="white"/>
<path d="M901.926 223.365L900.955 224.164L886.731 208.983H888.444L901.926 223.365Z" fill="white"/>
<path d="M889.477 231.463H887.764L868.105 210.493L869.082 209.703L889.477 231.463Z" fill="white"/>
<path d="M884.14 231.463L877.26 231.462L862.156 215.346L866.052 212.168L884.14 231.463Z" fill="white"/>
<path d="M912.231 214.968L908.334 218.145L899.755 208.985L906.626 208.986L912.231 214.968Z" fill="white"/>
</g>
<path d="M855.746 233.327L855.207 232.781L886.775 207.075L887.314 207.62L855.746 233.327Z" fill="#EBEBEB"/>
<path d="M874.21 233.329L873.671 232.783L905.24 207.077L905.778 207.624L874.21 233.329Z" fill="#EBEBEB"/>
<path d="M906.191 220.688L854.083 220.68L854.582 219.717L906.69 219.724L906.191 220.688Z" fill="#EBEBEB"/>
<path d="M650.539 278.358H658.548L614.231 241.708H525.591L480.66 278.358H650.539Z" fill="#F7CF2F"/>
<path opacity="0.6" d="M650.539 278.358H658.548L614.231 241.708H525.591L480.66 278.358H650.539Z" fill="#212223"/>
<path d="M577.524 444.43H650.138V278.358L613.832 248.617L577.524 278.358V444.43Z" fill="#F7CF2F"/>
<path opacity="0.4" d="M577.524 444.43H650.138V278.358L613.832 248.617L577.524 278.358V444.43Z" fill="white"/>
<path d="M488.875 444.43H577.524V278.358H488.875V444.43Z" fill="#F7CF2F"/>
<path opacity="0.8" d="M488.875 444.43H577.524V278.358H488.875V444.43Z" fill="white"/>
<path d="M511.31 293.225H500.561V323.714H511.31V293.225Z" fill="#212223"/>
<path d="M529.487 293.225H518.737V323.714H529.487V293.225Z" fill="#212223"/>
<path d="M547.663 293.225H536.913V323.714H547.663V293.225Z" fill="#212223"/>
<path d="M565.84 293.225H555.09V323.714H565.84V293.225Z" fill="#212223"/>
<path d="M601.031 293.225H590.281V323.714H601.031V293.225Z" fill="#212223"/>
<path d="M619.208 293.225H608.458V323.714H619.208V293.225Z" fill="#212223"/>
<path d="M637.384 293.225H626.634V323.714H637.384V293.225Z" fill="#212223"/>
<path d="M560.54 273.673L504.006 273.665L503.647 272.394L538.092 244.345L594.839 244.353L594.985 245.624L560.54 273.673Z" fill="#C7C7C7"/>
<path d="M560.395 272.401L503.647 272.394L538.092 244.345L594.839 244.353L560.395 272.401Z" fill="#EBEBEB"/>
<path d="M587.833 247.139L580.494 253.12L576.597 256.298L570.189 261.517L569.218 262.316L560.259 269.616L510.652 269.609L523.941 258.775L524.919 257.985L530.419 253.498L534.315 250.321L536.368 248.645L537.345 247.854L538.226 247.133L587.833 247.139Z" fill="#455A64"/>
<g opacity="0.2">
<path d="M535.825 269.612L534.093 269.611L523.942 258.775L524.919 257.985L535.825 269.612Z" fill="white"/>
<path d="M570.19 261.517L569.218 262.316L554.995 247.134H556.708L570.19 261.517Z" fill="white"/>
<path d="M557.74 269.614H556.028L536.369 248.645L537.346 247.854L557.74 269.614Z" fill="white"/>
<path d="M552.404 269.614L545.523 269.613L530.42 253.497L534.316 250.32L552.404 269.614Z" fill="white"/>
<path d="M580.495 253.119L576.598 256.298L568.019 247.136L574.89 247.138L580.495 253.119Z" fill="white"/>
</g>
<path d="M524.009 271.478L523.471 270.932L555.039 245.227L555.578 245.773L524.009 271.478Z" fill="#EBEBEB"/>
<path d="M542.473 271.481L541.935 270.936L573.503 245.229L574.042 245.775L542.473 271.481Z" fill="#EBEBEB"/>
<path d="M574.455 258.839L522.347 258.832L522.845 257.869L574.954 257.877L574.455 258.839Z" fill="#EBEBEB"/>
<path d="M437.72 354.907H430.371L471.033 321.28H537.83L579.055 354.907H437.72Z" fill="#F7CF2F"/>
<path opacity="0.6" d="M437.72 354.907H430.371L471.033 321.28H537.83L579.055 354.907H437.72Z" fill="#212223"/>
<path d="M504.713 444.43H438.088V354.907L471.401 327.62L504.713 354.907V444.43Z" fill="#F7CF2F"/>
<path opacity="0.8" d="M504.713 444.43H438.088V354.907L471.401 327.62L504.713 354.907V444.43Z" fill="white"/>
<path d="M572.877 354.908H504.714V444.43H572.877V354.908Z" fill="#F7CF2F"/>
<path opacity="0.4" d="M572.877 354.908H504.714V444.43H572.877V354.908Z" fill="white"/>
<path d="M468.581 356.08H458.655V378.237H468.581V356.08Z" fill="#212223"/>
<path d="M482.593 356.08H472.666V378.237H482.593V356.08Z" fill="#212223"/>
<path d="M540.34 366.843H530.413V389H540.34V366.843Z" fill="#212223"/>
<path d="M554.351 366.843H544.425V389H554.351V366.843Z" fill="#212223"/>
<path d="M512.073 352.483L568.608 352.475L568.966 351.205L534.522 323.157L477.775 323.165L477.629 324.435L512.073 352.483Z" fill="#C7C7C7"/>
<path d="M512.219 351.213L568.966 351.205L534.521 323.157L477.774 323.165L512.219 351.213Z" fill="#EBEBEB"/>
<path d="M484.78 325.951L492.12 331.93L496.017 335.109L502.424 340.327L503.396 341.127L512.355 348.426L561.961 348.42L548.672 337.586L547.696 336.797L542.195 332.308L538.298 329.131L536.245 327.455L535.269 326.666L534.387 325.944L484.78 325.951Z" fill="#455A64"/>
<g opacity="0.2">
<path d="M536.789 348.423H538.521L548.672 337.586L547.696 336.796L536.789 348.423Z" fill="white"/>
<path d="M502.423 340.327L503.395 341.126L517.618 325.946H515.906L502.423 340.327Z" fill="white"/>
<path d="M514.874 348.426H516.586L536.245 327.455L535.269 326.666L514.874 348.426Z" fill="white"/>
<path d="M520.211 348.425L527.092 348.424L542.195 332.308L538.298 329.131L520.211 348.425Z" fill="white"/>
<path d="M492.12 331.93L496.016 335.108L504.595 325.947L497.724 325.948L492.12 331.93Z" fill="white"/>
</g>
<path d="M548.605 350.289L549.143 349.744L517.575 324.038L517.037 324.583L548.605 350.289Z" fill="#EBEBEB"/>
<path d="M530.142 350.292L530.68 349.746L499.111 324.041L498.572 324.586L530.142 350.292Z" fill="#EBEBEB"/>
<path d="M498.159 337.65L550.269 337.643L549.769 336.68L497.661 336.687L498.159 337.65Z" fill="#EBEBEB"/>
<path d="M655.298 354.907H647.948L688.61 321.28H755.407L796.632 354.907H655.298Z" fill="#F7CF2F"/>
<path opacity="0.6" d="M655.298 354.907H647.948L688.61 321.28H755.407L796.632 354.907H655.298Z" fill="#212223"/>
<path d="M722.291 444.43H655.665V354.907L688.978 327.62L722.291 354.907V444.43Z" fill="#F7CF2F"/>
<path opacity="0.8" d="M722.291 444.43H655.665V354.907L688.978 327.62L722.291 354.907V444.43Z" fill="white"/>
<path d="M790.453 354.908H722.291V444.43H790.453V354.908Z" fill="#F7CF2F"/>
<path opacity="0.4" d="M790.453 354.908H722.291V444.43H790.453V354.908Z" fill="white"/>
<path d="M693.94 356.08H684.014V378.237H693.94V356.08Z" fill="#212223"/>
<path d="M761.335 366.843H751.409V389H761.335V366.843Z" fill="#212223"/>
<path d="M728.385 352.757L784.92 352.749L785.278 351.478L750.833 323.431L694.086 323.439L693.94 324.709L728.385 352.757Z" fill="#C7C7C7"/>
<path d="M728.531 351.487L785.278 351.478L750.833 323.431L694.086 323.439L728.531 351.487Z" fill="#EBEBEB"/>
<path d="M701.092 326.225L708.431 332.204L712.328 335.383L718.735 340.602L719.707 341.401L728.666 348.7L778.273 348.694L764.984 337.86L764.007 337.071L758.507 332.584L754.61 329.405L752.557 327.729L751.581 326.94L750.698 326.218L701.092 326.225Z" fill="#455A64"/>
<g opacity="0.2">
<path d="M753.102 348.697H754.834L764.983 337.86L764.007 337.07L753.102 348.697Z" fill="white"/>
<path d="M718.735 340.601L719.707 341.401L733.931 326.22H732.218L718.735 340.601Z" fill="white"/>
<path d="M731.185 348.7H732.898L752.556 327.729L751.58 326.94L731.185 348.7Z" fill="white"/>
<path d="M736.523 348.699L743.403 348.698L758.507 332.583L754.61 329.405L736.523 348.699Z" fill="white"/>
<path d="M708.431 332.204L712.328 335.382L720.907 326.221L714.036 326.222L708.431 332.204Z" fill="white"/>
</g>
<path d="M764.918 350.563L765.455 350.018L733.887 324.311L733.348 324.857L764.918 350.563Z" fill="#EBEBEB"/>
<path d="M746.453 350.566L746.992 350.02L715.423 324.315L714.885 324.86L746.453 350.566Z" fill="#EBEBEB"/>
<path d="M714.472 337.924L766.58 337.918L766.082 336.954L713.972 336.961L714.472 337.924Z" fill="#EBEBEB"/>
<path d="M552.507 381.958H545.158L585.82 348.331H667.151L708.375 381.958H552.507Z" fill="#F7CF2F"/>
<path opacity="0.6" d="M552.507 381.958H545.158L585.82 348.331H667.151L708.375 381.958H552.507Z" fill="#212223"/>
<path d="M619.5 444.43H552.873V381.958L586.187 354.67L619.5 381.958V444.43Z" fill="#F7CF2F"/>
<path opacity="0.8" d="M619.5 444.43H552.873V381.958L586.187 354.67L619.5 381.958V444.43Z" fill="white"/>
<path d="M700.839 381.958H619.5V444.43H700.839V381.958Z" fill="#F7CF2F"/>
<path opacity="0.4" d="M700.839 381.958H619.5V444.43H700.839V381.958Z" fill="white"/>
<path d="M590.567 375.956H580.64V398.113H590.567V375.956Z" fill="#212223"/>
<path d="M666.26 391.037H656.334V413.194H666.26V391.037Z" fill="#212223"/>
<path d="M602.679 409.522H568.528V444.43H602.679V409.522Z" fill="#212223"/>
<path d="M990.999 322.545L938.361 365.501H771.665L824.49 322.4H919.058L990.999 322.545Z" fill="#F7CF2F"/>
<path opacity="0.6" d="M990.999 322.545L938.361 365.501H771.665L824.49 322.4H919.058L990.999 322.545Z" fill="#212223"/>
<path d="M938.362 445.549H991V322.546L938.362 365.498V445.549Z" fill="#F7CF2F"/>
<path opacity="0.4" d="M938.362 445.549H991V322.546L938.362 365.498V445.549Z" fill="white"/>
<path d="M771.665 445.549H938.361V365.497H771.665V445.549Z" fill="#F7CF2F"/>
<path opacity="0.8" d="M771.665 445.549H938.361V365.497H771.665V445.549Z" fill="white"/>
<path d="M788.675 392.348H801.485V376.584H788.675V392.348Z" fill="#212223"/>
<path d="M812.648 392.348H825.46V376.584H812.648V392.348Z" fill="#212223"/>
<path d="M836.621 392.348H849.432V376.584H836.621V392.348Z" fill="#212223"/>
<path d="M860.594 392.348H873.404V376.584H860.594V392.348Z" fill="#212223"/>
<path d="M884.568 392.348H897.378V376.584H884.568V392.348Z" fill="#212223"/>
<path d="M908.541 392.348H921.351V376.584H908.541V392.348Z" fill="#212223"/>
<path d="M788.675 422.524H801.485V406.759H788.675V422.524Z" fill="#212223"/>
<path d="M812.648 422.524H825.46V406.759H812.648V422.524Z" fill="#212223"/>
<path d="M836.621 422.524H849.432V406.759H836.621V422.524Z" fill="#212223"/>
<path d="M860.594 422.524H873.404V406.759H860.594V422.524Z" fill="#212223"/>
<path d="M884.568 422.524H897.378V406.759H884.568V422.524Z" fill="#212223"/>
<path d="M908.541 422.524H921.351V406.759H908.541V422.524Z" fill="#212223"/>
<path d="M855.457 358.613L798.923 358.605L798.565 357.335L833.009 329.287L889.756 329.295L889.902 330.566L855.457 358.613Z" fill="#C7C7C7"/>
<path d="M855.312 357.343L798.565 357.335L833.009 329.287L889.756 329.295L855.312 357.343Z" fill="#EBEBEB"/>
<path d="M882.751 332.081L875.411 338.061L871.514 341.238L865.107 346.458L864.135 347.258L855.176 354.557L805.57 354.549L818.859 343.716L819.835 342.926L825.336 338.439L829.233 335.261L831.286 333.586L832.262 332.796L833.144 332.074L882.751 332.081Z" fill="#455A64"/>
<g opacity="0.2">
<path d="M830.742 354.552H829.009L818.859 343.715L819.836 342.926L830.742 354.552Z" fill="white"/>
<path d="M865.107 346.458L864.136 347.257L849.913 332.076H851.625L865.107 346.458Z" fill="white"/>
<path d="M852.657 354.556H850.945L831.286 333.586L832.262 332.796L852.657 354.556Z" fill="white"/>
<path d="M847.32 354.556L840.44 354.555L825.337 338.439L829.234 335.261L847.32 354.556Z" fill="white"/>
<path d="M875.412 338.061L871.515 341.238L862.936 332.078L869.807 332.079L875.412 338.061Z" fill="white"/>
</g>
<path d="M818.926 356.42L818.388 355.874L849.957 330.168L850.495 330.713L818.926 356.42Z" fill="#EBEBEB"/>
<path d="M837.39 356.422L836.851 355.876L868.421 330.17L868.958 330.717L837.39 356.422Z" fill="#EBEBEB"/>
<path d="M869.372 343.781L817.263 343.773L817.762 342.81L869.871 342.817L869.372 343.781Z" fill="#EBEBEB"/>
<path d="M929.655 358.613L873.121 358.605L872.762 357.335L907.207 329.287L963.954 329.295L964.1 330.566L929.655 358.613Z" fill="#C7C7C7"/>
<path d="M929.509 357.343L872.762 357.335L907.207 329.287L963.954 329.295L929.509 357.343Z" fill="#EBEBEB"/>
<path d="M956.948 332.081L949.609 338.061L945.712 341.238L939.305 346.458L938.333 347.258L929.374 354.557L879.767 354.549L893.056 343.716L894.033 342.926L899.534 338.439L903.43 335.261L905.483 333.586L906.459 332.796L907.342 332.074L956.948 332.081Z" fill="#455A64"/>
<g opacity="0.2">
<path d="M904.94 354.552H903.207L893.057 343.715L894.033 342.926L904.94 354.552Z" fill="white"/>
<path d="M939.305 346.458L938.334 347.257L924.11 332.076H925.823L939.305 346.458Z" fill="white"/>
<path d="M926.855 354.556H925.143L905.484 333.586L906.46 332.796L926.855 354.556Z" fill="white"/>
<path d="M921.518 354.556L914.638 354.555L899.534 338.439L903.431 335.261L921.518 354.556Z" fill="white"/>
<path d="M949.61 338.061L945.713 341.238L937.134 332.078L944.005 332.079L949.61 338.061Z" fill="white"/>
</g>
<path d="M893.122 356.42L892.585 355.874L924.153 330.168L924.692 330.713L893.122 356.42Z" fill="#EBEBEB"/>
<path d="M911.587 356.422L911.048 355.876L942.618 330.17L943.155 330.717L911.587 356.422Z" fill="#EBEBEB"/>
<path d="M943.568 343.781L891.46 343.773L891.959 342.81L944.068 342.817L943.568 343.781Z" fill="#EBEBEB"/>
<path d="M516.086 84.0518C521.907 84.0518 619.873 84.8491 626.029 84.6067C626.472 84.5917 626.709 83.7853 626.27 83.5159C622.389 81.139 617.986 81.6158 613.954 79.935C611.58 78.9464 610.123 77.0263 608.476 74.8257C607.054 72.9216 605.404 71.4632 603.378 70.7089C601.586 70.0439 599.648 69.9587 597.828 70.4936C595.84 71.0806 594.115 72.4879 592.218 73.3753C587.512 75.5719 582.938 73.4845 579.579 69.1764C576.807 65.6266 574.082 62.2762 570.315 60.364C567.161 58.7614 563.659 58.4288 560.502 60.1957C556.908 62.209 554.443 66.2597 551.067 68.6946C547.066 71.5874 542.281 70.9033 537.863 71.7757C533.432 72.6511 530.05 77.2527 526.175 79.904C524.851 80.8105 523.494 81.5697 521.949 81.5226C521.084 81.4956 520.233 81.2061 519.377 81.0729C518.043 80.8696 516.776 80.9167 515.878 82.2929C515.659 82.6285 515.704 84.0518 516.086 84.0518Z" fill="#D4D4D4"/>
<path d="M306.427 42.5155C312.248 42.5155 410.214 43.3128 416.37 43.0704C416.812 43.0554 417.049 42.249 416.611 41.9796C412.729 39.6027 408.327 40.0795 404.294 38.3987C401.921 37.4101 400.463 35.49 398.817 33.2894C397.395 31.3853 395.745 29.9269 393.719 29.1726C391.927 28.5076 389.989 28.4224 388.169 28.9573C386.181 29.5443 384.455 30.9516 382.559 31.839C377.853 34.0356 373.279 31.9482 369.919 27.6401C367.148 24.0903 364.423 20.7398 360.656 18.8277C357.502 17.2251 354 16.8925 350.842 18.6594C347.249 20.6727 344.784 24.7234 341.408 27.1583C337.407 30.0511 332.621 29.367 328.203 30.2394C323.772 31.1148 320.391 35.7164 316.515 38.3677C315.191 39.2742 313.835 40.0334 312.29 39.9863C311.424 39.9593 310.574 39.6698 309.717 39.5366C308.384 39.3333 307.116 39.3803 306.218 40.7566C306 41.0922 306.044 42.5155 306.427 42.5155Z" fill="#D4D4D4"/>
<path d="M481.242 160.918C485.492 160.918 557.016 161.5 561.511 161.324C561.834 161.313 562.008 160.725 561.687 160.528C558.854 158.792 555.639 159.14 552.695 157.913C550.962 157.191 549.898 155.79 548.695 154.183C547.657 152.793 546.452 151.728 544.974 151.177C543.665 150.692 542.25 150.629 540.922 151.02C539.47 151.448 538.21 152.475 536.826 153.123C533.39 154.728 530.051 153.204 527.598 150.057C525.574 147.465 523.585 145.019 520.835 143.624C518.532 142.454 515.975 142.211 513.67 143.501C511.046 144.971 509.246 147.928 506.782 149.706C503.861 151.818 500.367 151.318 497.141 151.956C493.906 152.595 491.437 155.954 488.608 157.889C487.641 158.551 486.651 159.105 485.523 159.071C484.891 159.051 484.27 158.84 483.644 158.743C482.671 158.594 481.746 158.628 481.09 159.633C480.93 159.88 480.963 160.918 481.242 160.918Z" fill="#D4D4D4"/>
<path d="M0.248044 32.7515C4.49844 32.7515 76.0224 33.3335 80.5173 33.1572C80.8404 33.1462 81.0137 32.5582 80.693 32.3609C77.8597 30.6251 74.645 30.9736 71.7007 29.7466C69.9678 29.0244 68.9038 27.6231 67.7013 26.0165C66.6632 24.6262 65.4583 23.5615 63.9797 23.0106C62.6711 22.5258 61.2565 22.4627 59.9277 22.8534C58.4766 23.281 57.2166 24.3087 55.832 24.9568C52.3962 26.5614 49.0568 25.0369 46.604 21.8908C44.5804 19.2985 42.5909 16.8525 39.841 15.4572C37.538 14.2873 34.9816 14.0439 32.6763 15.334C30.0527 16.8044 28.2526 19.7613 25.7885 21.5392C22.8669 23.6516 19.3736 23.1518 16.1476 23.7889C12.9126 24.4279 10.4437 27.7874 7.61437 29.7226C6.64753 30.3847 5.6572 30.9386 4.52921 30.9045C3.8968 30.8845 3.27652 30.6731 2.65059 30.576C1.67726 30.4277 0.751714 30.4618 0.0958131 31.4664C-0.0637083 31.7128 -0.0313215 32.7515 0.248044 32.7515Z" fill="#D4D4D4"/>
<path d="M614.844 101.846C619.095 101.846 690.619 102.428 695.113 102.251C695.437 102.24 695.61 101.652 695.289 101.455C692.456 99.7193 689.241 100.068 686.297 98.8409C684.564 98.1187 683.5 96.7174 682.298 95.1108C681.26 93.7205 680.055 92.6558 678.577 92.1049C677.268 91.6201 675.853 91.557 674.525 91.9476C673.074 92.3753 671.814 93.403 670.429 94.051C666.993 95.6557 663.654 94.1312 661.201 90.985C659.177 88.3928 657.188 85.9468 654.438 84.5515C652.135 83.3816 649.579 83.1382 647.273 84.4283C644.65 85.8987 642.85 88.8555 640.385 90.6334C637.464 92.7459 633.971 92.2461 630.745 92.8821C627.51 93.5212 625.041 96.8807 622.211 98.8158C621.244 99.4779 620.254 100.032 619.126 99.9978C618.494 99.9777 617.873 99.7664 617.248 99.6692C616.274 99.521 615.349 99.555 614.693 100.56C614.532 100.807 614.565 101.846 614.844 101.846Z" fill="#D4D4D4"/>
<path d="M901.231 125.786C905.482 125.786 977.006 126.368 981.5 126.192C981.824 126.181 981.997 125.593 981.676 125.395C978.843 123.659 975.628 124.008 972.684 122.781C970.951 122.059 969.887 120.657 968.685 119.051C967.647 117.661 966.442 116.596 964.964 116.045C963.655 115.56 962.241 115.497 960.912 115.888C959.461 116.315 958.201 117.343 956.816 117.991C953.38 119.595 950.041 118.071 947.588 114.925C945.564 112.334 943.575 109.887 940.825 108.492C938.522 107.322 935.966 107.078 933.66 108.368C931.037 109.839 929.237 112.796 926.772 114.574C923.851 116.686 920.358 116.186 917.132 116.822C913.897 117.461 911.428 120.821 908.598 122.756C907.631 123.418 906.641 123.972 905.513 123.938C904.881 123.918 904.26 123.706 903.635 123.609C902.66 123.461 901.736 123.495 901.08 124.5C900.92 124.747 900.953 125.786 901.231 125.786Z" fill="#D4D4D4"/>
<path d="M895.354 205.574C899.604 205.574 971.128 206.156 975.623 205.98C975.946 205.969 976.119 205.381 975.799 205.184C972.965 203.448 969.751 203.797 966.806 202.569C965.073 201.847 964.009 200.446 962.808 198.838C961.77 197.448 960.565 196.383 959.086 195.832C957.778 195.348 956.363 195.285 955.034 195.675C953.583 196.104 952.323 197.131 950.938 197.779C947.503 199.383 944.163 197.859 941.71 194.713C939.687 192.12 937.697 189.674 934.947 188.279C932.644 187.109 930.088 186.866 927.783 188.156C925.159 189.626 923.359 192.583 920.895 194.361C917.973 196.474 914.48 195.974 911.254 196.611C908.019 197.25 905.55 200.609 902.721 202.544C901.754 203.207 900.764 203.76 899.636 203.726C899.003 203.706 898.383 203.495 897.757 203.398C896.783 203.25 895.858 203.284 895.202 204.288C895.042 204.535 895.074 205.574 895.354 205.574Z" fill="#D4D4D4"/>
<path d="M781.598 163.193C781.681 163.488 894.329 163.193 892.907 163.193C892.259 163.193 893.89 161.994 893.256 161.607C889.589 159.357 885.577 159.294 881.584 158.839C879.254 158.577 876.86 158.157 874.764 156.792C872.641 155.417 871.318 153.029 869.81 150.824C865.155 143.986 857.748 140.422 850.575 141.809C842.565 143.36 836.251 150.91 828.228 152.296C823.407 153.131 818.849 150.824 814.139 150.011C810.26 149.346 807.03 150.279 803.56 152.404C801.019 153.962 798.671 155.275 795.799 155.519C793.593 155.713 791.378 155.4 789.168 155.372C785.629 155.332 782.137 157.228 779.412 160.196C779.055 160.588 777.921 163.193 781.598 163.193Z" fill="#D4D4D4"/>
<path d="M828.22 65.1959C828.302 65.4913 940.95 65.1959 939.528 65.1959C938.881 65.1959 940.511 63.9969 939.877 63.6103C936.21 61.3596 932.199 61.2965 928.206 60.8417C925.876 60.5803 923.482 60.1596 921.386 58.7954C919.263 57.4201 917.94 55.0322 916.432 52.8266C911.777 45.9884 904.369 42.4246 897.196 43.8119C889.187 45.3634 882.872 52.9128 874.849 54.299C870.029 55.1344 865.47 52.8266 860.76 52.0143C856.882 51.3492 853.652 52.2817 850.182 54.4072C847.641 55.9647 845.293 57.2779 842.42 57.5223C840.215 57.7156 838 57.4031 835.789 57.3741C832.251 57.334 828.758 59.2301 826.033 62.1979C825.676 62.5906 824.542 65.1959 828.22 65.1959Z" fill="#D4D4D4"/>
<path d="M240.383 239.324C240.483 239.619 376.441 239.324 374.725 239.324C373.943 239.324 375.912 238.125 375.146 237.738C370.72 235.487 365.878 235.424 361.059 234.969C358.247 234.708 355.358 234.287 352.828 232.923C350.266 231.548 348.669 229.16 346.849 226.954C341.23 220.116 332.291 216.552 323.633 217.94C313.966 219.491 306.345 227.04 296.662 228.427C290.844 229.262 285.343 226.954 279.658 226.142C274.976 225.477 271.078 226.409 266.89 228.535C263.823 230.092 260.989 231.406 257.522 231.65C254.86 231.843 252.187 231.531 249.519 231.503C245.248 231.463 241.033 233.359 237.744 236.327C237.313 236.718 235.945 239.324 240.383 239.324Z" fill="#D4D4D4"/>
</svg>
