<svg width="67" height="67" viewBox="0 0 67 67" fill="none" xmlns="http://www.w3.org/2000/svg">
<path d="M33.4997 5.5835C18.1064 5.5835 5.58301 18.1069 5.58301 33.5002V45.066C5.58301 47.9247 8.08713 50.2502 11.1663 50.2502H13.958C14.6984 50.2502 15.4085 49.956 15.932 49.4325C16.4556 48.909 16.7497 48.1989 16.7497 47.4585V33.101C16.7497 32.3606 16.4556 31.6505 15.932 31.1269C15.4085 30.6034 14.6984 30.3093 13.958 30.3093H11.4232C12.9753 19.5055 22.2716 11.1668 33.4997 11.1668C44.7278 11.1668 54.024 19.5055 55.5762 30.3093H53.0413C52.3009 30.3093 51.5909 30.6034 51.0673 31.1269C50.5438 31.6505 50.2497 32.3606 50.2497 33.101V50.2502C50.2497 53.3294 47.7456 55.8335 44.6663 55.8335H39.083V53.0418H27.9163V61.4168H44.6663C50.8248 61.4168 55.833 56.4086 55.833 50.2502C58.9122 50.2502 61.4163 47.9247 61.4163 45.066V33.5002C61.4163 18.1069 48.8929 5.5835 33.4997 5.5835Z" fill="#F7CF2F"/>
</svg>
