<svg width="77" height="77" viewBox="0 0 77 77" fill="none" xmlns="http://www.w3.org/2000/svg">
<g clip-path="url(#clip0_147_5)">
<path d="M75.8721 33.8379C76.1712 33.8379 76.4581 33.7191 76.6696 33.5075C76.8812 33.296 77 33.0091 77 32.71V25.1904C77.0003 25.0746 76.9825 24.9594 76.9474 24.849L69.4278 0.786543C69.3553 0.558251 69.2121 0.358965 69.0187 0.217553C68.8254 0.0761399 68.5921 -5.6678e-05 68.3525 5.3937e-08H8.64746C8.40711 -7.42523e-05 8.17303 0.0766292 7.97933 0.218927C7.78563 0.361225 7.64245 0.561676 7.57067 0.791055L0.0511361 24.8536C0.0169706 24.9626 -0.00027408 25.0762 3.29339e-06 25.1904V32.71C3.29339e-06 33.0091 0.118838 33.296 0.330366 33.5075C0.541894 33.7191 0.828787 33.8379 1.12793 33.8379H25.3408V38.6504H5.63965C4.14441 38.652 2.71087 39.2467 1.65358 40.304C0.596283 41.3613 0.00159567 42.7948 3.29339e-06 44.29V71.3604C0.00159567 72.8556 0.596283 74.2891 1.65358 75.3464C2.71087 76.4037 4.14441 76.9984 5.63965 77H65.3447C66.84 76.9984 68.2735 76.4037 69.3308 75.3464C70.3881 74.2891 70.9828 72.8556 70.9844 71.3604V66.4727H75.8721C76.1712 66.4727 76.4581 66.3538 76.6696 66.1423C76.8812 65.9308 77 65.6439 77 65.3447V50.3057C77 50.0065 76.8812 49.7196 76.6696 49.5081C76.4581 49.2966 76.1712 49.1777 75.8721 49.1777H70.9844V44.29C70.9828 42.7948 70.3881 41.3613 69.3308 40.304C68.2735 39.2467 66.84 38.652 65.3447 38.6504H51.6592V33.8379H75.8721ZM74.7441 51.4336V64.2168H70.9844V51.4336H74.7441ZM2.66192 24.0625L5.71485 14.2871H17.7281L15.2842 24.0625H2.66192ZM20.0561 14.2871H56.9439L59.3878 24.0625H17.6122L20.0561 14.2871ZM20.6201 12.0312L23.0639 2.25586H53.9361L56.3799 12.0312H20.6201ZM61.7143 24.0625L59.2705 14.2871H71.2852L74.3396 24.0625H61.7143ZM70.5783 12.0312H58.7065L56.2626 2.25586H67.5254L70.5783 12.0312ZM9.47461 2.25586H20.7359L18.2935 12.0312H6.42168L9.47461 2.25586ZM2.25586 26.3184H74.7441V31.582H2.25586V26.3184ZM68.7285 44.29V71.3604C68.7277 72.2575 68.371 73.1178 67.7365 73.7522C67.1021 74.3866 66.2419 74.7433 65.3447 74.7441H5.63965C4.74246 74.7433 3.88224 74.3866 3.24783 73.7522C2.61342 73.1178 2.25666 72.2575 2.25586 71.3604V44.29C2.25666 43.3928 2.61342 42.5326 3.24783 41.8982C3.88224 41.2638 4.74246 40.907 5.63965 40.9062H65.3447C66.2419 40.907 67.1021 41.2638 67.7365 41.8982C68.371 42.5326 68.7277 43.3928 68.7285 44.29ZM49.4033 38.6504H27.5967V33.8379H49.4033V38.6504Z" fill="#FF8400"/>
<path d="M7.14355 27.8223H5.63965C5.3405 27.8223 5.05361 27.9411 4.84208 28.1526C4.63055 28.3642 4.51172 28.651 4.51172 28.9502C4.51172 29.2493 4.63055 29.5362 4.84208 29.7478C5.05361 29.9593 5.3405 30.0781 5.63965 30.0781H7.14355C7.4427 30.0781 7.72959 29.9593 7.94112 29.7478C8.15265 29.5362 8.27148 29.2493 8.27148 28.9502C8.27148 28.651 8.15265 28.3642 7.94112 28.1526C7.72959 27.9411 7.4427 27.8223 7.14355 27.8223Z" fill="#212223"/>
<path d="M13.1592 27.8223H11.6553C11.3561 27.8223 11.0692 27.9411 10.8577 28.1526C10.6462 28.3642 10.5273 28.651 10.5273 28.9502C10.5273 29.2493 10.6462 29.5362 10.8577 29.7478C11.0692 29.9593 11.3561 30.0781 11.6553 30.0781H13.1592C13.4583 30.0781 13.7452 29.9593 13.9567 29.7478C14.1683 29.5362 14.2871 29.2493 14.2871 28.9502C14.2871 28.651 14.1683 28.3642 13.9567 28.1526C13.7452 27.9411 13.4583 27.8223 13.1592 27.8223Z" fill="#212223"/>
<path d="M48.2587 57.0371C48.1538 56.8972 48.083 56.7349 48.0516 56.5629C48.0203 56.3909 48.0294 56.214 48.0782 56.0461L49.4197 51.4336H46.081L44.4658 57.7154H45.9472C46.2362 57.7154 46.5141 57.8263 46.7237 58.0253C46.9333 58.2243 47.0586 58.4961 47.0736 58.7847L47.224 61.7775L49.9686 57.4883H49.155C48.9809 57.4874 48.8094 57.4462 48.6539 57.3679C48.4984 57.2896 48.3631 57.1764 48.2587 57.0371Z" fill="#F7CF2F"/>
<path d="M30.0781 44.666H20.3027V70.9844H30.0781V44.666Z" fill="#F7CF2F"/>
<path d="M18.0469 44.666H9.39941C8.50222 44.6668 7.642 45.0236 7.00759 45.658C6.37318 46.2924 6.01642 47.1526 6.01562 48.0498V67.6006C6.01642 68.4978 6.37318 69.358 7.00759 69.9924C7.642 70.6268 8.50222 70.9836 9.39941 70.9844H18.0469V44.666Z" fill="#F7CF2F"/>
<path d="M61.585 44.666H32.334V70.9844H61.585C62.4822 70.9836 63.3424 70.6268 63.9768 69.9924C64.6112 69.358 64.968 68.4978 64.9688 67.6006V48.0498C64.968 47.1526 64.6112 46.2924 63.9768 45.658C63.3424 45.0236 62.4822 44.6668 61.585 44.666ZM46.2872 66.4727C45.9982 66.4727 45.7203 66.3617 45.5107 66.1628C45.3011 65.9638 45.1758 65.692 45.1608 65.4034L44.8766 59.9713H43.0117C42.8397 59.9712 42.6699 59.9318 42.5155 59.856C42.361 59.7803 42.2259 59.6702 42.1206 59.5342C42.0152 59.3982 41.9423 59.2399 41.9076 59.0714C41.8728 58.9029 41.877 58.7287 41.9199 58.5621L44.1126 50.0244C44.1755 49.7822 44.3169 49.5677 44.5148 49.4145C44.7126 49.2613 44.9557 49.178 45.2059 49.1777H50.9208C51.0957 49.1778 51.2682 49.2186 51.4247 49.2968C51.5812 49.375 51.7173 49.4886 51.8223 49.6285C51.9274 49.7684 51.9984 49.9308 52.0299 50.1028C52.0613 50.2749 52.0523 50.452 52.0036 50.62L50.6621 55.2325H52.0352C52.2375 55.2324 52.4361 55.2868 52.6102 55.39C52.7843 55.4931 52.9274 55.6411 53.0246 55.8186C53.1218 55.9961 53.1695 56.1964 53.1626 56.3986C53.1557 56.6008 53.0946 56.7975 52.9856 56.968L47.2377 65.9523C47.1356 66.1118 46.995 66.243 46.8289 66.3339C46.6629 66.4248 46.4766 66.4725 46.2872 66.4727ZM54.8174 66.4727H54.0654C53.7663 66.4727 53.4794 66.3538 53.2679 66.1423C53.0563 65.9308 52.9375 65.6439 52.9375 65.3447C52.9375 65.0456 53.0563 64.7587 53.2679 64.5472C53.4794 64.3356 53.7663 64.2168 54.0654 64.2168H54.8174C55.1165 64.2168 55.4034 64.3356 55.615 64.5472C55.8265 64.7587 55.9453 65.0456 55.9453 65.3447C55.9453 65.6439 55.8265 65.9308 55.615 66.1423C55.4034 66.3538 55.1165 66.4727 54.8174 66.4727ZM59.3291 66.4727H58.5771C58.278 66.4727 57.9911 66.3538 57.7796 66.1423C57.5681 65.9308 57.4492 65.6439 57.4492 65.3447C57.4492 65.0456 57.5681 64.7587 57.7796 64.5472C57.9911 64.3356 58.278 64.2168 58.5771 64.2168H59.3291C59.6282 64.2168 59.9151 64.3356 60.1267 64.5472C60.3382 64.7587 60.457 65.0456 60.457 65.3447C60.457 65.6439 60.3382 65.9308 60.1267 66.1423C59.9151 66.3538 59.6282 66.4727 59.3291 66.4727Z" fill="#F7CF2F"/>
</g>
<defs>
<clipPath id="clip0_147_5">
<rect width="77" height="77" fill="white"/>
</clipPath>
</defs>
</svg>
