<svg width="33" height="33" viewBox="0 0 33 33" fill="none" xmlns="http://www.w3.org/2000/svg">
<path d="M30.583 4.7373H28.6494C28.5212 4.7373 28.3983 4.78823 28.3076 4.87889C28.2169 4.96954 28.166 5.0925 28.166 5.2207V7.31543H21.3862C21.258 7.31543 21.135 7.36636 21.0444 7.45701C20.9537 7.54767 20.9028 7.67062 20.9028 7.79883C20.9028 7.92703 20.9537 8.04999 21.0444 8.14064C21.135 8.2313 21.258 8.28223 21.3862 8.28223H28.166V23.9121C28.166 24.0403 28.2169 24.1633 28.3076 24.2539C28.3983 24.3446 28.5212 24.3955 28.6494 24.3955H30.583C30.9676 24.3955 31.3365 24.5483 31.6085 24.8203C31.8804 25.0922 32.0332 25.4611 32.0332 25.8457C32.0332 26.2303 31.8804 26.5992 31.6085 26.8711C31.3365 27.1431 30.9676 27.2959 30.583 27.2959H0.966797V8.28223H2.78373C2.91194 8.28223 3.03489 8.2313 3.12554 8.14064C3.2162 8.04999 3.26713 7.92703 3.26713 7.79883C3.26713 7.67062 3.2162 7.54767 3.12554 7.45701C3.03489 7.36636 2.91194 7.31543 2.78373 7.31543H0.483398C0.355193 7.31543 0.232239 7.36636 0.141584 7.45701C0.0509293 7.54767 0 7.67062 0 7.79883L0 27.7793C0 27.9075 0.0509293 28.0305 0.141584 28.1211C0.232239 28.2118 0.355193 28.2627 0.483398 28.2627H30.583C31.2238 28.262 31.8382 28.0071 32.2913 27.554C32.7445 27.1009 32.9993 26.4865 33 25.8457V7.1543C32.9993 6.51348 32.7445 5.89911 32.2913 5.44598C31.8382 4.99285 31.2238 4.73799 30.583 4.7373ZM30.583 23.4287H29.1328V5.7041H30.583C30.9675 5.70444 31.3362 5.85734 31.6081 6.12923C31.88 6.40112 32.0329 6.76979 32.0332 7.1543V23.9121C31.6153 23.5975 31.1061 23.4278 30.583 23.4287Z" fill="#212223"/>
<path d="M2.57812 20.6895V25.2012C2.57812 25.3294 2.62905 25.4523 2.71971 25.543C2.81036 25.6336 2.93332 25.6846 3.06152 25.6846H26.0713C26.1995 25.6846 26.3224 25.6336 26.4131 25.543C26.5038 25.4523 26.5547 25.3294 26.5547 25.2012V20.6895C26.5547 20.5612 26.5038 20.4383 26.4131 20.3476C26.3224 20.257 26.1995 20.2061 26.0713 20.2061H3.06152C2.93332 20.2061 2.81036 20.257 2.71971 20.3476C2.62905 20.4383 2.57812 20.5612 2.57812 20.6895ZM3.54492 21.1729H25.5879V24.7178H3.54492V21.1729Z" fill="#212223"/>
<path d="M24.2344 22.4619H10.6992C10.571 22.4619 10.4481 22.5128 10.3574 22.6035C10.2667 22.6942 10.2158 22.8171 10.2158 22.9453C10.2158 23.0735 10.2667 23.1965 10.3574 23.2871C10.4481 23.3778 10.571 23.4287 10.6992 23.4287H24.2344C24.3626 23.4287 24.4855 23.3778 24.5762 23.2871C24.6668 23.1965 24.7178 23.0735 24.7178 22.9453C24.7178 22.8171 24.6668 22.6942 24.5762 22.6035C24.4855 22.5128 24.3626 22.4619 24.2344 22.4619Z" fill="#212223"/>
<path d="M5.54297 22.4619H4.89844C4.77023 22.4619 4.64728 22.5128 4.55662 22.6035C4.46597 22.6942 4.41504 22.8171 4.41504 22.9453C4.41504 23.0735 4.46597 23.1965 4.55662 23.2871C4.64728 23.3778 4.77023 23.4287 4.89844 23.4287H5.54297C5.67117 23.4287 5.79413 23.3778 5.88478 23.2871C5.97544 23.1965 6.02637 23.0735 6.02637 22.9453C6.02637 22.8171 5.97544 22.6942 5.88478 22.6035C5.79413 22.5128 5.67117 22.4619 5.54297 22.4619Z" fill="#212223"/>
<path d="M8.12109 22.4619H7.47656C7.34836 22.4619 7.2254 22.5128 7.13475 22.6035C7.04409 22.6942 6.99316 22.8171 6.99316 22.9453C6.99316 23.0735 7.04409 23.1965 7.13475 23.2871C7.2254 23.3778 7.34836 23.4287 7.47656 23.4287H8.12109C8.2493 23.4287 8.37225 23.3778 8.46291 23.2871C8.55356 23.1965 8.60449 23.0735 8.60449 22.9453C8.60449 22.8171 8.55356 22.6942 8.46291 22.6035C8.37225 22.5128 8.2493 22.4619 8.12109 22.4619Z" fill="#212223"/>
<path d="M20.4316 18.1113C20.4316 18.2395 20.4826 18.3625 20.5732 18.4531C20.6639 18.5438 20.7868 18.5947 20.915 18.5947H26.0713C26.1995 18.5947 26.3224 18.5438 26.4131 18.4531C26.5038 18.3625 26.5547 18.2395 26.5547 18.1113C26.5547 17.9831 26.5038 17.8602 26.4131 17.7695C26.3224 17.6789 26.1995 17.6279 26.0713 17.6279H20.915C20.7868 17.6279 20.6639 17.6789 20.5732 17.7695C20.4826 17.8602 20.4316 17.9831 20.4316 18.1113Z" fill="#212223"/>
<path d="M26.0713 16.0166C26.1995 16.0166 26.3224 15.9657 26.4131 15.875C26.5038 15.7844 26.5547 15.6614 26.5547 15.5332C26.5547 15.405 26.5038 15.282 26.4131 15.1914C26.3224 15.1007 26.1995 15.0498 26.0713 15.0498H23.4932C23.365 15.0498 23.242 15.1007 23.1513 15.1914C23.0607 15.282 23.0098 15.405 23.0098 15.5332C23.0098 15.6614 23.0607 15.7844 23.1513 15.875C23.242 15.9657 23.365 16.0166 23.4932 16.0166H26.0713Z" fill="#212223"/>
<path d="M30.583 7.31543C30.4548 7.31543 30.3318 7.36636 30.2412 7.45701C30.1505 7.54767 30.0996 7.67062 30.0996 7.79883V8.44336C30.0996 8.57156 30.1505 8.69452 30.2412 8.78517C30.3318 8.87583 30.4548 8.92676 30.583 8.92676C30.7112 8.92676 30.8342 8.87583 30.9248 8.78517C31.0155 8.69452 31.0664 8.57156 31.0664 8.44336V7.79883C31.0664 7.67062 31.0155 7.54767 30.9248 7.45701C30.8342 7.36636 30.7112 7.31543 30.583 7.31543Z" fill="#212223"/>
<path d="M30.583 9.89355C30.4548 9.89355 30.3318 9.94448 30.2412 10.0351C30.1505 10.1258 30.0996 10.2487 30.0996 10.377V11.0215C30.0996 11.1497 30.1505 11.2726 30.2412 11.3633C30.3318 11.454 30.4548 11.5049 30.583 11.5049C30.7112 11.5049 30.8342 11.454 30.9248 11.3633C31.0155 11.2726 31.0664 11.1497 31.0664 11.0215V10.377C31.0664 10.2487 31.0155 10.1258 30.9248 10.0351C30.8342 9.94448 30.7112 9.89355 30.583 9.89355Z" fill="#212223"/>
<path d="M13.5352 14.083H10.6348V15.501H13.5352V14.083Z" fill="#F7CF2F"/>
<path d="M16.7578 16.4678H7.41211C7.1557 16.4678 6.90979 16.5696 6.72848 16.7509C6.54717 16.9323 6.44531 17.1782 6.44531 17.4346C6.44531 17.691 6.54717 17.9369 6.72848 18.1182C6.90979 18.2995 7.1557 18.4014 7.41211 18.4014H16.7578C17.0142 18.4014 17.2601 18.2995 17.4414 18.1182C17.6228 17.9369 17.7246 17.691 17.7246 17.4346C17.7246 17.1782 17.6228 16.9323 17.4414 16.7509C17.2601 16.5696 17.0142 16.4678 16.7578 16.4678Z" fill="#F7CF2F"/>
<path d="M20.9473 11.1826H3.22266V13.1162H20.9473V11.1826Z" fill="#F7CF2F"/>
<path d="M14.8374 4.7373H9.33307L8.98438 6.99316H15.1861L14.8374 4.7373Z" fill="#F7CF2F"/>
<path d="M15.3358 7.95996H8.83502L8.48633 10.2158H15.6845L15.3358 7.95996Z" fill="#F7CF2F"/>
<path d="M19.7409 6.99316L19.2453 5.09824C19.2182 4.9948 19.1576 4.90325 19.0729 4.83794C18.9882 4.77263 18.8843 4.73724 18.7773 4.7373H15.8125L16.1612 6.99316H19.7409Z" fill="#F7CF2F"/>
<path d="M8.3542 4.7373H5.38936C5.28242 4.73724 5.17848 4.77263 5.09381 4.83794C5.00914 4.90325 4.94852 4.9948 4.92143 5.09824L4.42578 6.99316H8.00293L8.3542 4.7373Z" fill="#F7CF2F"/>
<path d="M16.6622 10.2158H20.5841L19.9937 7.95996H16.3135L16.6622 10.2158Z" fill="#F7CF2F"/>
<path d="M7.8566 7.95996H4.17633L3.58594 10.2158H7.50791L7.8566 7.95996Z" fill="#F7CF2F"/>
</svg>
