<svg width="1200" height="376" viewBox="0 0 1200 376" fill="none" xmlns="http://www.w3.org/2000/svg">
<path fill-rule="evenodd" clip-rule="evenodd" d="M16.3611 104.551C15.6518 108.579 11.8148 111.843 7.75848 111.843C3.70866 111.843 1.00017 108.579 1.70954 104.551C2.39311 100.523 6.25592 97.2467 10.2993 97.2467C14.3362 97.2467 17.0705 100.523 16.3611 104.551ZM46.9412 114.785L53.0095 83.7747H40.9697L34.9078 114.785H46.9412ZM55.0086 74.2474C54.4411 77.588 51.249 80.2734 47.915 80.2734C44.5616 80.2734 42.3174 77.5816 42.9043 74.2474C43.4911 70.9195 46.6639 68.2277 50.0044 68.2277C53.3577 68.2277 55.5955 70.9195 55.0086 74.2474Z" fill="#2EAB47"/>
<path d="M80.668 82.8882C75.3607 83.0937 70.3565 85.8691 69.7632 86.216L70.2404 83.7747H58.2005L52.1387 114.785H64.1721L68.2864 93.7775C71.0529 90.9444 74.2966 90.6296 77.0051 91.0921C78.9849 91.4583 79.3073 92.7817 79.2558 93.7583L75.1543 114.785H87.2006L91.818 91.06L91.8631 90.8352C91.9371 90.4 91.9738 89.9595 91.9727 89.5181C91.8889 84.3979 85.827 82.6826 80.668 82.8882Z" fill="#2EAB47"/>
<path fill-rule="evenodd" clip-rule="evenodd" d="M101.988 94.6769L109.584 86.9934L112.202 73.7334H100.163L92.0693 114.785H104.103L107.089 99.6237L101.988 94.6769Z" fill="#2EAB47"/>
<path fill-rule="evenodd" clip-rule="evenodd" d="M119.322 94.6769L141.087 73.7398H125.687L104.954 94.6834L125.687 114.785H141.087L119.322 94.6769ZM25.3312 73.9197C25.3312 73.9197 21.8875 91.3748 20.2302 99.6044C18.9469 106.022 16.9736 113.173 9.16409 113.661C8.861 113.712 8.57081 113.712 8.22257 113.712C6.06699 113.719 3.96094 113.069 2.18652 111.849C3.79872 113.809 6.36533 114.933 9.16409 115.421C14.2844 116.359 20.3205 115.229 23.8092 113.109C30.1097 109.402 31.9347 103.279 33.2567 96.6685C34.3852 91.0343 37.7644 73.9197 37.7644 73.9197H25.3312Z" fill="#2EAB47"/>
<path fill-rule="evenodd" clip-rule="evenodd" d="M156.957 104.827C151.089 104.827 146.768 100.086 147.31 94.2465C147.838 88.4003 153.023 83.6655 158.885 83.6655C164.753 83.6655 169.074 88.4003 168.539 94.2465C167.997 100.093 162.799 104.827 156.957 104.827ZM159.898 72.7248C147.974 72.7248 137.424 82.3614 136.321 94.2465C135.237 106.132 144.021 115.768 155.951 115.768C167.868 115.768 178.412 106.132 179.515 94.2465C180.611 82.3614 171.828 72.7248 159.898 72.7248Z" fill="#2EAB47"/>
<path d="M164.593 61.0581C164.198 60.3599 163.654 59.7567 163 59.2913C162.267 58.7581 161.458 58.3359 160.601 58.0386C159.702 57.7108 158.773 57.4698 157.828 57.3191C155.001 56.9122 152.279 55.9725 149.806 54.5501C149.527 54.3616 149.293 54.1136 149.122 53.8242C148.903 53.5139 148.776 53.149 148.754 52.7706C148.754 51.5178 148.98 50.2715 149.386 49.0123C149.806 47.7788 150.347 46.7959 150.999 46.0828C152.043 44.9071 153.939 43.8921 156.674 43.0248C159.401 42.1254 162.471 41.6949 165.895 41.6949C167.933 41.6949 169.513 41.8555 170.629 42.1703C171.744 42.4723 172.299 42.9605 172.299 43.603C172.342 44.4477 172.192 45.2912 171.86 46.0699C171.669 46.5367 171.344 46.9368 170.925 47.2199C170.59 47.4126 170.003 47.6696 169.171 47.9973C167.75 48.4694 166.395 49.1215 165.141 49.9374C164.882 50.1468 164.587 50.3078 164.27 50.4128L164.07 50.2394C164.07 50.0081 164.309 49.6355 164.825 49.1472C165.321 48.659 165.94 48.235 166.669 47.8623C167.462 47.4576 167.856 47.2006 167.856 47.085C167.856 46.8987 167.417 46.8023 166.553 46.8023C163.928 46.8023 161.497 47.04 159.266 47.509C157.048 47.9716 155.287 48.5819 154.017 49.3528C152.72 50.1045 152.082 50.8818 152.082 51.6913C152.082 52.186 152.34 52.5265 152.888 52.732C153.41 52.9376 154.584 53.2845 156.409 53.7535C158.215 54.2353 159.84 54.7943 161.272 55.4174C163.335 56.2912 164.857 57.2034 165.85 58.1542C166.843 59.0986 167.333 60.1586 167.333 61.3279C167.333 62.1245 167.14 62.9404 166.759 63.7435C166.342 64.5985 165.759 65.3627 165.044 65.992C164.283 66.6601 163.432 67.2255 162.439 67.6688C161.415 68.083 160.361 68.4181 159.285 68.671C156.542 69.3193 153.734 69.6513 150.915 69.6603C148.426 69.6603 146.446 69.4291 144.917 68.9601C143.415 68.4911 142.647 67.7844 142.647 66.84C142.647 66.4224 142.918 65.7543 143.421 64.8485C143.814 64.0714 144.447 63.4407 145.227 63.0496C145.795 62.8183 146.395 62.6774 147.007 62.632C147.568 62.5935 147.845 62.6577 147.845 62.8248L147.781 62.9661L147.639 63.0753L147.465 63.1524C147.181 63.2681 146.949 63.358 146.768 63.4094L146.349 63.6021L146.188 63.8784C146.188 64.1739 147.652 64.3281 150.592 64.3281C153.153 64.3281 155.242 64.2253 156.867 64.039C158.343 63.8905 159.795 63.5582 161.188 63.0496C162.439 62.5614 163.574 61.8932 164.593 61.0581ZM180.018 54.8842C178.844 55.5909 177.845 56.2333 177 56.8115C176.162 57.3705 175.459 57.9551 174.872 58.5461C174.352 59.0396 173.951 59.6435 173.698 60.3128C173.497 61.1641 173.321 62.021 173.17 62.8826C173.17 63.8077 173.827 64.2703 175.143 64.2703C175.736 64.2703 176.755 63.7435 178.2 62.7027C177.959 62.0971 177.835 61.4522 177.832 60.8011C177.832 59.9145 178.025 59.0023 178.374 58.0707C178.761 57.152 179.302 56.0791 180.018 54.8842ZM184.403 60.4542V61.8804C183.468 62.7284 182.727 63.2938 182.146 63.5764C181.592 63.8591 180.766 63.9747 179.709 63.9169C177.851 66.1012 176.246 67.1805 174.82 67.1805C174.032 67.179 173.268 66.9042 172.66 66.4032C171.965 65.8295 171.428 65.0888 171.099 64.251C170.693 63.2964 170.489 62.2684 170.5 61.2315C170.5 60.3193 170.816 59.3106 171.403 58.2121C172.034 57.0767 172.827 56.0381 173.756 55.1283C174.717 54.1647 175.736 53.413 176.832 52.8156C177.922 52.2309 178.941 51.9354 179.876 51.9354C180.547 51.9354 181.056 52.051 181.443 52.2438C181.83 52.4365 182.024 52.732 182.024 53.1047C182.024 53.3873 181.862 53.715 181.54 54.0812C182.075 54.184 182.443 54.3703 182.649 54.6337C182.843 54.8906 182.946 55.3917 182.946 56.0727C182.946 56.7601 182.772 57.6017 182.456 58.6425C182.133 59.6704 181.701 60.634 181.147 61.5399L181.534 61.9254H181.856C182.101 61.9254 182.32 61.8611 182.565 61.7455C182.791 61.617 183.004 61.4949 183.191 61.36C183.371 61.2315 183.791 60.9231 184.41 60.4542" fill="#7AC251"/>
<path d="M188.169 56.4518C188.905 55.7322 189.614 54.9099 190.317 53.9976C191.647 52.2015 192.778 50.2672 193.69 48.2285C193.975 47.6398 194.15 47.004 194.205 46.3526C194.205 46.0121 194.102 45.8515 193.877 45.8515C193.786 45.8515 193.619 45.9286 193.374 46.0828C192.516 46.7895 191.542 48.1836 190.459 50.2265C189.423 52.1917 188.653 54.285 188.169 56.4518ZM194.541 60.2679V61.8354C191.561 65.7479 189.163 67.7137 187.305 67.7137C186.293 67.7137 185.5 67.1548 184.932 66.0755C184.352 64.9705 184.062 63.5315 184.062 61.7519C184.062 60.3128 184.41 58.6039 185.074 56.6124C185.783 54.6272 186.673 52.6164 187.815 50.5734C188.956 48.5305 190.149 46.7509 191.374 45.2283C192.6 43.7122 193.748 42.6393 194.792 42.0418C195.086 41.8337 195.428 41.7013 195.785 41.6564C196.088 41.6564 196.288 41.7913 196.392 42.0418C196.488 42.2988 196.533 42.7549 196.533 43.391C196.533 45.3568 195.74 47.7788 194.135 50.6377C192.529 53.4965 190.285 56.4196 187.428 59.4006C187.311 59.957 187.239 60.5221 187.215 61.0902C187.179 61.8705 187.381 62.6435 187.795 63.3066C188.182 63.8591 188.73 64.1546 189.433 64.1546C189.844 64.1256 190.237 63.9808 190.568 63.737C190.975 63.4608 191.42 63.1074 191.865 62.7027C192.329 62.3044 193.219 61.4885 194.541 60.2679Z" fill="#7AC251"/>
<path d="M207.026 54.3703C203.331 56.0534 200.7 57.4797 199.158 58.6553C197.572 59.8246 196.792 61.0452 196.792 62.2851C196.792 62.7284 196.869 63.1074 197.017 63.3901C197.179 63.6856 197.391 63.827 197.662 63.827C197.959 63.7865 198.244 63.686 198.501 63.5314C200.034 62.6175 201.412 61.4659 202.583 60.1201C203.808 58.7003 205.291 56.7858 207.026 54.3703ZM196.837 56.7087C198.701 54.9553 200.818 53.4893 203.118 52.3594C205.143 51.415 206.703 50.946 207.806 50.946C208.109 50.946 208.38 51.0617 208.644 51.3058C208.902 51.5564 209.102 51.839 209.251 52.1731C209.374 52.3978 209.45 52.6446 209.476 52.8991C209.479 53.0105 209.453 53.1208 209.4 53.2189C209.347 53.317 209.269 53.3995 209.173 53.458C208.973 53.5736 208.632 53.715 208.141 53.8948L208.509 54.7621L208.883 55.6166C208.954 55.835 209.012 56.0277 209.012 56.1948C209.012 56.5417 208.664 57.1777 207.98 58.0964C207.29 59.0215 206.807 59.7089 206.529 60.1458C206.238 60.6303 206.09 61.1872 206.104 61.7519C206.104 62.7991 206.594 63.3194 207.561 63.3194C208.548 63.3194 210.102 62.3943 212.217 60.5441V61.829C208.638 65.8121 206.059 67.7908 204.504 67.7908C203.963 67.7908 203.563 67.6238 203.331 67.2447C203.069 66.7581 202.946 66.2092 202.976 65.6579C202.976 64.5337 203.382 62.9147 204.195 60.8011C202.131 63.0817 200.584 64.72 199.578 65.6836C198.578 66.6473 197.74 67.1355 197.082 67.1355C196.772 67.1355 196.392 66.8721 195.921 66.3325C194.808 64.9916 194.179 63.3176 194.135 61.5784C194.135 60.9231 194.199 60.3642 194.315 59.9081C194.451 59.4712 194.702 59.0215 195.076 58.5525C195.444 58.0836 196.024 57.4668 196.83 56.7087" fill="#7AC251"/>
<path d="M211.81 62.1245V60.7625C212.584 59.8503 213.158 59.0793 213.551 58.4498C213.184 58.3311 212.847 58.1338 212.565 57.8716C212.358 57.6467 212.262 57.3126 212.262 56.8565C212.262 56.3554 212.461 55.7065 212.9 54.9228C213.319 54.1518 213.848 53.413 214.48 52.7385C214.935 52.1773 215.516 51.7305 216.176 51.4343L216.737 51.2801C217.04 51.2801 217.176 51.4086 217.176 51.6913C217.176 51.929 216.963 52.4172 216.518 53.1432C219.439 52.6935 221.277 52.4686 222.051 52.4686C222.354 52.4686 222.547 52.4943 222.663 52.5457C222.908 52.6806 223.102 52.9697 223.263 53.4451C223.42 53.8931 223.496 54.365 223.489 54.8392C223.471 55.1943 223.334 55.5332 223.102 55.8029C222.676 56.3323 222.222 56.8384 221.741 57.3191C220.993 58.1221 220.361 58.9894 219.845 59.9531C219.349 60.8974 219.084 61.6041 219.084 62.0924C219.084 62.7541 219.504 63.0817 220.316 63.0817C221.18 63.0817 222.689 62.2144 224.83 60.4477V61.8804C223.65 63.101 222.683 64.084 221.909 64.7842C221.256 65.413 220.544 65.9768 219.781 66.4674C219.149 66.8914 218.556 67.1034 218.04 67.1034C217.459 67.1034 216.963 66.8272 216.556 66.2811C216.163 65.7286 215.957 64.9448 215.957 63.9169C215.957 63.3066 216.118 62.6128 216.427 61.8354C216.737 61.0581 217.188 60.2165 217.795 59.3042C218.407 58.3919 219.078 57.4797 219.832 56.5738C218.864 56.7764 217.892 56.9627 216.918 57.1327L215.634 57.364C214.777 59.1179 213.493 60.7047 211.81 62.1245Z" fill="#7AC251"/>
<path fill-rule="evenodd" clip-rule="evenodd" d="M586.814 37.1231C596.748 49.4087 596.748 69.3555 586.814 81.6411C584.463 84.5588 581.662 86.8755 578.574 88.4567C575.486 90.0379 572.172 90.8521 568.825 90.8521C565.478 90.8521 562.164 90.0379 559.076 88.4567C555.988 86.8755 553.187 84.5588 550.836 81.6411C540.991 69.3555 540.991 49.4067 550.836 37.1231C553.187 34.2049 555.988 31.8878 559.076 30.3063C562.164 28.7248 565.478 27.9104 568.825 27.9104C572.172 27.9104 575.486 28.7248 578.574 30.3063C581.663 31.8878 584.463 34.2049 586.814 37.1231Z" fill="white"/>
<path fill-rule="evenodd" clip-rule="evenodd" d="M533.63 25.0662C542.553 27.6594 551.387 35.3226 553.227 41.9722C555.068 48.6198 549.64 54.4807 549.64 54.4807C549.64 54.4807 558.842 48.1682 557.83 39.941C555.803 23.1494 533.63 25.0662 533.63 25.0662Z" fill="#F3D44A"/>
<path fill-rule="evenodd" clip-rule="evenodd" d="M557.829 58.4247C548.809 56.5099 539.608 49.5211 537.493 42.9859C535.377 36.4507 540.531 30.2506 540.531 30.2506C540.531 30.2506 531.696 37.1251 532.986 45.3523C535.746 61.9171 557.829 58.4247 557.829 58.4247Z" fill="#F3D44A"/>
<path d="M586.814 37.1231C596.748 49.4087 596.748 69.3555 586.814 81.6411M586.814 37.1231C584.463 34.2049 581.662 31.8878 578.574 30.3063C575.486 28.7248 572.172 27.9104 568.825 27.9104C565.478 27.9104 562.164 28.7248 559.076 30.3063C555.988 31.8878 553.187 34.2049 550.836 37.1231M586.814 37.1231L550.836 81.6411M586.814 81.6411C584.463 84.5588 581.662 86.8755 578.574 88.4567C575.486 90.0379 572.172 90.8521 568.825 90.8521C565.478 90.8521 562.164 90.0379 559.076 88.4567C555.988 86.8755 553.187 84.5588 550.836 81.6411M586.814 81.6411C593.53 73.2995 590.952 56.6203 581.015 44.3367C571.076 32.0531 557.643 28.7855 550.836 37.1231M586.814 81.6411C580.096 89.9787 566.57 86.8236 556.632 74.5379C546.695 62.2543 544.117 45.4627 550.836 37.1231M586.814 81.6411C595.368 71.0455 594.264 52.5639 584.327 40.2803C574.39 27.9967 559.39 26.6439 550.836 37.1231M586.814 81.6411C578.255 92.2327 563.258 90.884 553.321 78.5963C543.475 66.3127 542.371 47.7187 550.836 37.1231M586.814 81.6411L550.836 37.1231M550.836 81.6411C540.991 69.3555 540.991 49.4067 550.836 37.1231M586.814 81.4143C591.227 76.0051 586.721 61.5799 576.784 49.2963C566.845 37.0127 555.253 31.4891 550.836 36.9003M586.814 81.4143C582.398 86.938 570.802 81.2999 560.864 69.0183C550.926 56.7327 546.512 42.4219 550.836 36.9003M586.814 81.4143C588.745 79.0459 582.211 67.2139 572.274 54.9303C562.335 42.6467 552.767 34.5339 550.836 36.9003M586.814 81.4143C584.881 83.7827 575.31 75.7803 565.373 63.4947C555.436 51.2091 548.996 39.2667 550.836 36.9003M543.475 61.8047C545.315 54.7055 548.903 47.3795 554.056 41.0691C559.117 34.7567 565.006 30.2487 570.802 28.1071M594.266 59.2135C592.332 65.8631 588.93 72.5107 584.145 78.3735C579.453 84.3488 574.021 88.5156 568.685 90.882M545.315 71.2723C547.249 63.4947 551.756 54.4807 558.287 46.3659C564.913 38.2511 572.182 32.6171 578.439 30.2507M592.701 48.7323C590.77 56.3955 586.26 65.1867 579.91 73.0747C573.47 80.9627 566.384 86.5967 560.22 89.0775M547.798 77.1331C550.649 70.4815 556.17 61.5779 563.349 52.6763C570.525 43.7727 577.793 36.8983 583.129 33.4039M589.848 41.7455C586.996 48.3951 581.475 57.2987 574.299 66.2023C567.12 75.1059 559.944 81.9804 554.517 85.4748" stroke="#637EB3" stroke-width="7.58731" stroke-miterlimit="2.613"/>
<path fill-rule="evenodd" clip-rule="evenodd" d="M586.904 78.3735C586.904 82.4299 584.145 85.8099 580.833 85.8099C577.521 85.8099 574.852 82.4299 574.852 78.3735C574.852 74.2027 577.521 70.9351 580.833 70.9351C584.145 70.9351 586.904 74.2027 586.904 78.3735Z" fill="#2B5692"/>
<path fill-rule="evenodd" clip-rule="evenodd" d="M545.407 60.7911C555.341 76.5691 571.63 88.4051 581.567 87.1627C591.504 85.8099 595 70.9351 595 70.9351C595 70.9351 593.528 93.5875 582.21 97.6459C559.209 105.982 545.407 60.7911 545.407 60.7911Z" fill="#2B5692"/>
<path fill-rule="evenodd" clip-rule="evenodd" d="M546.602 123C553.045 112.746 563.627 104.972 570.159 105.869C576.599 106.77 578.9 116.465 578.9 116.465C578.9 116.465 577.98 101.702 570.619 98.9968C555.622 93.5876 546.602 123 546.602 123ZM556.633 90.318V90.5448H557.093V92.2348H557.368V90.5448H557.829V90.318H556.633ZM558.012 90.318V92.2348H558.198V90.6552L558.655 92.2348H558.842L559.302 90.6552V92.2348H559.484V90.318H559.209L558.748 91.8976L558.38 90.318H558.012ZM321.537 68.1171C320.249 66.4271 318.04 65.4115 316.11 65.4115C314.086 65.4115 311.602 66.3127 311.602 69.3555C311.602 75.1019 323.563 75.1019 323.563 82.9939C323.563 87.502 319.698 91.7832 314.269 91.7832C312.152 91.7832 310.037 91.446 308.013 90.5448L307 85.1356C309.117 87.3896 311.969 88.7424 314.638 88.7424C316.662 88.7424 319.607 87.2771 319.607 84.2343C319.607 77.5867 307.646 78.8251 307.646 69.8071C307.646 64.3979 312.154 62.3687 316.387 62.3687C318.135 62.3687 319.884 62.5935 321.54 63.2699V68.1171H321.537ZM325.586 81.4143C325.586 75.1019 329.819 70.9331 334.788 70.9331C337.087 70.9331 338.927 71.6075 340.676 73.4119C342.424 75.3287 343.529 78.1427 343.529 81.0751C343.529 87.2731 339.296 91.6667 334.419 91.6667C329.636 91.6708 325.586 87.5019 325.586 81.4143ZM339.94 81.9803C339.94 77.8095 338.191 73.7511 334.419 73.7511C331.199 73.7511 329.082 76.9063 329.082 80.7399C329.082 84.5695 331.014 88.8507 334.603 88.8507C337.733 88.8507 339.94 85.8099 339.94 81.9803ZM347.486 63.0451C348.314 63.0451 349.235 63.0451 349.787 62.3707H349.879V86.3739C349.879 88.2908 349.602 89.8663 351.167 90.9964V91.1108H345.371V90.9964C346.936 89.8684 346.659 88.2908 346.659 86.3739V67.7779C346.659 65.7487 346.934 64.1711 345.371 63.1575V63.0451H347.486ZM368.188 91.6708C365.889 91.448 363.587 90.6551 363.587 87.2771V80.5151C362.576 81.0791 361.379 81.4163 360.275 81.7535C358.526 82.3175 356.686 82.7692 356.686 85.3604C356.686 87.9516 358.618 88.8527 360.458 88.8527C361.286 88.8527 362.115 88.5156 363.034 88.2928L360.917 91.448C360.365 91.5584 359.721 91.6708 359.169 91.6708C355.58 91.6708 353.187 88.9652 353.187 85.3583C353.187 77.4703 363.585 81.0771 363.585 76.4547C363.585 74.4255 361.561 73.7491 360.273 73.7491C358.433 73.7491 357.053 74.5379 355.488 75.4391L357.881 71.1579L360.09 70.9331C363.862 70.9331 366.713 72.2859 366.713 77.3559V83.7807C366.713 87.1607 366.807 88.4032 369.751 88.8487L368.188 91.6708ZM372.881 71.4971C373.709 71.4971 374.538 71.3827 375.089 70.9331H375.182V74.2007C375.918 72.2859 377.483 70.9331 379.231 70.9331L380.519 71.0455V74.9875C380.151 74.4255 379.507 74.3131 378.955 74.3131C376.287 74.3131 375.182 76.0031 375.182 80.3967V86.3719C375.182 88.2887 374.907 89.8643 376.47 90.9944V91.1088H370.672V90.9944C372.144 89.8664 371.96 88.2887 371.96 86.3719V76.1175C371.96 74.2007 372.144 72.6231 370.672 71.6075V71.4951L372.881 71.4971ZM390.272 68.9059C390.272 66.8767 390.547 63.8339 388.707 63.1575V63.0451H397.264C405.177 63.0451 410.146 68.3419 410.146 76.7939C410.146 85.2459 404.9 91.1108 397.079 91.1108H388.707V90.9964C390.455 89.5312 390.272 87.504 390.272 84.9088V68.9059ZM393.86 87.7268C394.676 87.9489 395.509 88.0619 396.345 88.064C401.589 88.064 406.19 84.684 406.19 77.3579C406.19 69.8071 402.785 66.0879 396.989 66.0879C395.884 66.0879 394.871 66.3127 393.86 66.5395V87.7268ZM415.76 80.6275C415.852 85.8099 418.797 88.8527 422.754 88.8527C424.87 88.8527 426.894 88.0639 428.459 86.5987H428.55L426.802 90.5468C425.33 91.3356 423.674 91.6728 422.017 91.6728C416.127 91.6728 412.08 87.0544 412.08 81.1935C412.08 75.2183 415.577 70.9371 420.729 70.9371C425.514 70.9371 428.734 75.1059 428.55 80.6296L415.76 80.6275ZM424.962 78.1447C424.501 75.1019 422.938 73.7511 420.453 73.7511C418.061 73.7511 416.312 75.4411 415.945 78.1447H424.962ZM443.731 75.7823H443.64C442.627 74.4275 440.972 73.7511 439.407 73.7511C436.002 73.7511 433.517 76.6835 433.517 80.7399C433.517 85.5851 436.923 88.8507 440.787 88.8507C442.535 88.8507 444.559 87.9495 445.847 86.7111H446.032L444.192 90.7676C442.72 91.446 441.155 91.6687 439.59 91.6687C434.253 91.6687 430.02 87.3875 430.02 81.7515C430.02 74.4275 434.714 70.9331 439.957 70.9331C441.246 70.9331 442.534 71.0455 443.73 71.3827L443.731 75.7823Z" fill="#2B5692"/>
<path fill-rule="evenodd" clip-rule="evenodd" d="M460.848 91.6708C458.547 91.448 456.245 90.6552 456.245 87.2772V80.5152C455.234 81.0792 454.036 81.4164 452.933 81.7535C451.186 82.3176 449.346 82.7692 449.346 85.3604C449.346 87.9516 451.278 88.8528 453.118 88.8528C453.947 88.8528 454.773 88.5156 455.602 88.2928L453.58 91.448C453.026 91.5584 452.384 91.6708 451.738 91.6708C448.241 91.6708 445.849 88.9652 445.849 85.3584C445.849 77.4704 456.246 81.0771 456.246 76.4547C456.246 74.4255 454.224 73.7491 452.934 73.7491C451.094 73.7491 449.714 74.5379 448.151 75.4391L450.452 71.1579L452.753 70.9331C456.523 70.9331 459.378 72.2859 459.378 77.3559V83.7808C459.378 87.1608 459.471 88.4032 462.323 88.8488L460.848 91.6708ZM468.116 82.7672C468.116 84.4572 467.747 88.8508 471.427 88.8508C471.978 88.8508 472.347 88.628 472.807 88.4032L470.967 91.446C470.609 91.583 470.237 91.658 469.862 91.6688C464.527 91.6688 464.984 84.7964 464.984 83.2168V74.3131H462.593V72.7335C465.905 72.0591 466.734 69.1287 466.734 65.0703H468.114V71.4951H471.426C471.886 71.4951 472.345 71.4951 472.712 71.2703H472.806V75.1019H472.712C472.162 74.2007 471.147 74.3131 470.228 74.3131H468.112V82.7672H468.116ZM476.396 63.0451C477.225 63.0451 478.054 63.0451 478.512 62.3707H478.605V73.6407C479.709 71.7239 482.01 70.9351 483.759 70.9351C488.544 70.9351 489.74 74.4275 489.74 78.5963V86.374C489.74 88.2908 489.465 89.8664 491.026 90.9964V91.1108H485.23V90.9964C486.795 89.8684 486.52 88.2908 486.52 86.374V79.8388C486.52 76.4547 485.599 73.7511 482.654 73.7511C479.528 73.7511 478.605 75.7824 478.605 79.612V86.374C478.605 88.2908 478.423 89.8664 479.985 90.9964V91.1108H474.099V90.9964C475.66 89.8684 475.478 88.2908 475.478 86.374V67.7779C475.478 65.7487 475.66 64.1711 474.099 63.1575V63.0451H476.396ZM495.168 63.0451C495.997 63.0451 496.914 63.0451 497.468 62.3707H497.558V86.374C497.558 88.2908 497.283 89.8664 498.848 90.9964V91.1108H493.052V90.9964C494.614 89.8684 494.338 88.2908 494.338 86.374V67.7779C494.338 65.7487 494.614 64.1711 493.052 63.1575V63.0451H495.168ZM501.147 81.4143C501.147 75.1019 505.382 70.9331 510.349 70.9331C512.558 70.9331 514.49 71.6075 516.148 73.4119C517.048 74.3602 517.769 75.5365 518.261 76.8597C518.754 78.1828 519.006 79.6211 518.999 81.0751C518.999 87.2732 514.858 91.6668 509.98 91.6668C505.198 91.6708 501.147 87.502 501.147 81.4143ZM515.501 81.9804C515.501 77.8095 513.66 73.7511 509.98 73.7511C506.76 73.7511 504.644 76.9063 504.644 80.74C504.644 84.5696 506.578 88.8508 510.072 88.8508C513.293 88.8508 515.501 85.8099 515.501 81.9804ZM522.862 71.4971C523.598 71.4971 524.427 71.3827 525.163 70.9331H525.256V74.2007C526.542 72.1735 527.922 70.9331 530.223 70.9331C532.157 70.9331 534.364 71.8343 535.469 73.8635C536.48 75.5535 536.388 78.2571 536.388 80.176V86.374C536.388 88.4052 536.206 89.8664 537.678 90.9964V91.1108H531.881V90.9964C533.443 89.8684 533.168 88.2908 533.168 86.374V80.6276C533.168 76.1195 532.157 73.7511 529.027 73.7511C525.807 73.7511 525.256 76.3423 525.256 78.8231V86.374C525.256 88.4052 525.071 89.8664 526.636 90.9964V91.1108H520.84V90.9964C522.311 89.8684 522.126 88.2908 522.126 86.374V76.2319C522.126 74.2007 522.311 72.6251 520.84 71.6095V71.4971H522.862Z" fill="#2B5692"/>
<path d="M1024.93 57.9908C1024.93 62.8345 1021.04 66.7556 1016.24 66.7556C1011.43 66.7556 1007.54 62.8345 1007.54 57.9908C1007.54 53.1508 1011.43 49.2242 1016.24 49.2242C1021.04 49.2242 1024.93 53.1508 1024.93 57.9908Z" fill="#E60013"/>
<path d="M966.822 56.8127C956 56.8127 956.441 68.5178 956.441 68.5178H971.227V99.7712H982.323V68.5178H997.137C997.137 68.5178 997.543 56.8127 986.727 56.8127H975.231H966.822ZM1070.51 91.3856H1062.66C1062.02 91.3856 1061.67 90.8366 1061.67 90.2305C1061.67 89.6225 1062.02 89.0929 1062.66 89.0929H1070.51V91.3856ZM1070.5 70.7773H1046.05C1046.05 70.7773 1048.27 71.8327 1050.14 74.5738C1052 77.3324 1052.12 79.7699 1052.12 79.7699H1069.59C1070.13 79.7699 1070.51 80.0098 1070.51 80.5542V81.5967H1060.17C1055.65 81.5967 1051.8 85.7521 1051.8 91.0701C1051.8 96.3834 1056.78 99.7758 1059.78 99.7758H1079.83V81.0182C1079.83 74.2657 1074.96 70.7773 1070.5 70.7773ZM1010.32 99.7758H1021.06V70.7773H1010.32V99.7758ZM1049.61 82.1134C1049.53 75.799 1043.72 70.7782 1036.62 70.7782H1023.65V99.7758H1034.26V82.2416C1034.26 81.0884 1035.33 80.1547 1036.62 80.1547C1037.9 80.1547 1038.99 81.0893 1038.99 82.2416V99.7758H1049.61V82.1134H1049.61ZM997.126 73.2582V70.7764H987.024V99.7749H997.127V88.0799C997.445 85.8241 998.431 84.1034 999.792 82.8468C1002.73 80.1482 1007.76 80.2432 1007.81 80.2488V70.7773C1007.1 70.745 1002.1 70.7238 997.127 73.2591M1169.18 71.1509H1172.71V75.2307C1173.78 73.6217 1174.92 72.426 1176.12 71.6279C1177.32 70.8326 1178.56 70.4341 1179.86 70.4341C1180.84 70.4341 1181.88 70.7524 1183 71.3807L1181.16 74.4105C1180.42 74.0867 1179.79 73.9206 1179.29 73.9206C1178.11 73.9206 1176.97 74.4151 1175.88 75.3968C1174.78 76.3812 1173.94 77.9081 1173.37 79.9729C1172.93 81.5663 1172.71 84.7797 1172.71 89.6188V99.0589H1169.18V71.1509ZM1152.09 73.9188C1150.13 73.9188 1148.32 74.4151 1146.66 75.3968C1145.01 76.3803 1143.68 77.7577 1142.71 79.5338C1141.73 81.3098 1141.23 83.1873 1141.23 85.1681C1141.23 87.1342 1141.73 89.0136 1142.71 90.809C1143.7 92.5988 1145.03 93.9956 1146.7 94.9948C1148.37 95.9949 1150.15 96.4922 1152.07 96.4922C1153.99 96.4922 1155.82 95.9996 1157.54 95.0068C1159.26 94.0187 1160.6 92.6772 1161.52 90.987C1162.45 89.2986 1162.92 87.3907 1162.92 85.2724C1162.92 82.0433 1161.88 79.3446 1159.79 77.1747C1157.7 75.0102 1155.14 73.9188 1152.09 73.9188ZM1166.25 71.15V99.0589H1162.72V94.2614C1161.24 96.0955 1159.57 97.4683 1157.73 98.3919C1155.89 99.3154 1153.88 99.7758 1151.68 99.7758C1147.8 99.7758 1144.48 98.3457 1141.73 95.4792C1138.98 92.6173 1137.61 89.1317 1137.61 85.0279C1137.61 81.0072 1138.99 77.5741 1141.77 74.7159C1144.54 71.8623 1147.89 70.4332 1151.79 70.4332C1154.04 70.4332 1156.08 70.9212 1157.91 71.8955C1159.73 72.8679 1161.33 74.3312 1162.72 76.2825V71.15H1166.25ZM1131.77 61.0954H1135.3V99.7758H1131.77L1131.77 61.0954ZM1115.11 73.9197C1112.2 73.9197 1109.7 75.0351 1107.61 77.2512C1105.52 79.4775 1104.47 82.1632 1104.47 85.3074C1104.47 87.3446 1104.95 89.2378 1105.91 90.9926C1106.86 92.751 1108.15 94.1073 1109.77 95.0576C1111.39 96.0171 1113.17 96.4922 1115.11 96.4922C1117.06 96.4922 1118.83 96.0171 1120.46 95.0576C1122.09 94.1073 1123.37 92.751 1124.33 90.9926C1125.28 89.2516 1125.77 87.295 1125.76 85.3084C1125.76 82.1623 1124.7 79.4775 1122.61 77.2512C1120.51 75.0351 1118.01 73.9197 1115.11 73.9197ZM1115.13 70.4332C1119.34 70.4332 1122.84 71.9877 1125.61 75.1015C1128.13 77.9413 1129.39 81.3006 1129.39 85.1792C1129.39 89.08 1128.05 92.489 1125.39 95.4063C1122.73 98.3199 1119.31 99.7758 1115.13 99.7758C1110.93 99.7758 1107.5 98.3199 1104.84 95.4054C1102.18 92.49 1100.85 89.08 1100.85 85.1792C1100.85 81.3181 1102.1 77.9662 1104.62 75.1274C1107.39 71.996 1110.9 70.4332 1115.13 70.4332ZM1098.88 74.1024L1096.62 76.4864C1094.72 74.6412 1092.87 73.7176 1091.06 73.7176C1089.91 73.7176 1088.94 74.1051 1088.12 74.8847C1087.29 75.657 1086.88 76.5639 1086.88 77.5972C1086.88 78.5124 1087.22 79.3843 1087.89 80.2146C1088.57 81.0579 1089.99 82.0534 1092.14 83.1864C1094.76 84.5869 1096.55 85.9265 1097.49 87.2089C1098.42 88.5043 1098.88 89.9602 1098.88 91.5858C1098.88 93.872 1098.09 95.8095 1096.51 97.3945C1094.92 98.9833 1092.94 99.7749 1090.57 99.7749C1088.98 99.7749 1087.46 99.4372 1086.03 98.7692C1084.58 98.0939 1083.39 97.1657 1082.45 95.9802L1084.66 93.4135C1086.47 95.4709 1088.39 96.4922 1090.43 96.4922C1091.85 96.4922 1093.06 96.0263 1094.06 95.0917C1095.06 94.1589 1095.56 93.0583 1095.56 91.7961C1095.57 90.7822 1095.21 89.7989 1094.57 89.0237C1093.9 88.2238 1092.41 87.2228 1090.09 86.0132C1087.6 84.7077 1085.9 83.429 1085 82.1641C1084.11 80.8955 1083.66 79.4489 1083.66 77.8232C1083.66 75.7012 1084.37 73.9409 1085.81 72.5367C1087.24 71.1362 1089.03 70.4332 1091.22 70.4332C1093.76 70.4332 1096.32 71.6584 1098.88 74.1024Z" fill="#2DA7DF"/>
<g clip-path="url(#clip0_147_252)">
<path d="M80.6395 271.764C80.6395 270.76 79.77 269.882 78.7758 269.882H73.1853V320.073H80.6395V271.764ZM97.537 282.931C97.537 282.931 92.1945 282.68 86.6036 285.315V291.965C86.6036 291.965 91.3246 289.707 97.0398 289.707C100.643 289.707 105.24 290.836 105.24 296.985H97.537C89.5852 296.985 83.6216 300.874 83.6216 308.905C83.6216 315.305 87.5974 320.951 95.6732 320.951C101.885 320.951 105.116 317.814 105.116 317.814V320.198H112.57V296.985C112.57 286.946 106.482 282.931 97.537 282.931ZM105.116 310.411C105.116 310.411 101.512 314.175 96.791 314.175C92.1945 314.175 91.3241 310.913 91.3241 308.905C91.3241 306.897 91.9457 303.635 97.7849 303.635H105.115V310.411H105.116ZM70.3277 301.879C70.3277 292.593 65.3579 282.931 53.3066 282.931C41.255 282.931 36.2856 292.593 36.2856 301.879C36.2856 311.164 41.3794 320.826 53.3066 320.826C65.3579 320.826 70.3277 311.164 70.3277 301.879ZM43.9882 301.879C43.9882 294.099 47.8397 289.582 53.3066 289.582C58.7736 289.582 62.6242 294.099 62.6242 301.879C62.6242 309.658 58.8967 314.05 53.3062 314.05C47.8397 314.175 43.9882 309.658 43.9882 301.879ZM175.81 283.809H183.264V320.073H175.81V283.809ZM206.125 314.05C203.143 314.05 200.906 312.921 200.906 309.533V290.586H210.722L207.988 283.81H200.906V276.281C200.906 275.277 200.037 274.399 199.043 274.399H193.452V283.809H186.991V290.585H193.452V311.039C193.452 315.43 196.185 320.826 204.882 320.826C209.603 320.826 212.709 319.445 213.827 318.943C213.455 317.814 211.839 314.049 211.467 313.046C209.764 313.715 207.952 314.056 206.125 314.05ZM123.628 296.985C123.628 290.836 128.225 289.707 131.828 289.707C132.946 289.707 134.064 289.832 135.183 289.958C135.307 288.578 135.555 287.323 135.804 286.193C136.052 285.19 136.301 284.311 136.549 283.433C133.443 282.806 131.207 282.931 131.207 282.931C122.261 282.931 116.173 286.946 116.173 296.984V320.072H123.628V296.985ZM239.422 283.809L229.234 309.282L219.295 283.809H211.716L225.507 318.316L219.543 332.495H225.879C226.625 332.495 227.246 332.119 227.494 331.491L247 283.809H239.422ZM160.652 320.826C166.367 320.826 171.336 318.693 172.207 318.442V310.913C170.218 311.791 166.119 313.548 160.776 313.548C158.167 313.548 146.488 312.418 146.488 294.852C146.488 277.285 158.043 275.905 160.776 275.905C165.001 275.905 167.982 277.159 169.597 277.786C169.846 277.033 172.206 271.011 172.206 271.011C171.337 270.885 166.74 269.003 160.776 269.003C156.552 269.003 138.164 271.011 138.164 294.977C138.164 319.069 155.931 320.826 160.652 320.826ZM175.81 272.266H183.264V279.92H175.81V272.266ZM18.6427 291.087C12.3063 289.456 9.07633 288.076 9.07633 283.809C9.07633 280.422 10.5669 276.406 18.3943 276.406C23.2401 276.406 27.464 277.912 29.3277 278.79C29.8249 277.786 32.061 272.014 32.061 272.014C32.061 272.014 26.7185 269.003 18.146 269.003C8.4548 269.003 1.12495 274.273 1.12495 284.061C1.12495 293.597 7.95807 296.357 16.2826 298.24C22.9913 299.745 25.849 301.377 25.849 305.768C25.849 309.909 24.1096 313.548 15.1643 313.548C6.59186 313.548 1.00098 310.16 1.00098 310.16V317.689C3.36147 319.32 9.07674 320.951 14.7916 320.951C28.9554 320.951 33.8008 313.297 33.8008 305.643C33.7999 295.604 26.9668 292.844 18.6427 291.087Z" fill="#00B675"/>
</g>
<path d="M517.255 307.319V305.984H520.763V324.234H528.447L528.659 326.316L528.953 326.415L538.949 305.02L549.381 327.407C548.223 327.407 547.27 327.497 546.348 327.365C545.949 327.308 545.478 326.863 545.276 326.473C544.523 325.019 544.24 322.881 543.077 322.199C541.759 321.426 539.661 322.11 537.946 321.856C535.353 321.471 533.861 322.434 533.314 324.955C532.867 327.021 531.626 327.56 529.545 327.458C525.515 327.26 521.468 327.4 517.255 327.4V307.319ZM539.226 312.43C539.038 312.521 538.744 312.566 538.68 312.711C538.215 313.778 537.808 314.869 537.36 315.943C536.952 316.924 536.516 317.893 536.078 318.899H541.951C541.438 317.743 540.979 316.742 540.548 315.729C540.114 314.707 539.708 313.673 539.226 312.43Z" fill="#0A2E48"/>
<path d="M402.293 320.983L399.113 314.644L396.348 327.406C394.099 327.406 391.828 327.452 389.563 327.364C389.157 327.348 388.687 326.846 388.393 326.457C386.219 323.586 384.082 320.687 381.662 317.433V327.331H378.314V306.095C380.961 306.095 383.615 305.904 386.227 306.151C388.716 306.386 390.325 308.42 390.542 310.95C390.832 314.32 389.81 316.257 387.198 317.275C386.813 317.425 386.417 317.55 385.791 317.768L393.083 327.416C394.819 319.791 396.472 312.528 398.203 304.92C399.151 306.989 399.943 308.717 400.627 310.581C399.91 311.118 399.301 311.518 398.621 311.965L398.248 309.18C397.736 309.434 397.569 309.683 397.523 309.952C397.291 311.298 396.976 312.645 396.915 314.002C396.862 315.169 397.214 316.365 395.978 317.179C395.845 317.266 395.959 317.69 395.906 317.947C395.724 318.812 395.587 319.695 395.309 320.53C394.654 322.494 393.91 324.433 394.715 326.996C395.013 325.955 394.996 324.989 395.414 324.735C396.895 323.832 396.635 322.794 395.784 321.508L397.102 321.386L398.527 313.761C399.471 313.721 399.961 314.245 400.321 315.301C400.66 316.297 401.237 317.52 402.07 317.962C403.15 318.537 403.315 319.035 402.842 320.053C402.597 320.394 402.445 320.688 402.292 320.983M386.81 313.464C387.456 309.872 385.84 308.407 381.9 309.028V315.079C383.641 314.79 385.498 315.474 386.81 313.464V313.464Z" fill="#0B2F48"/>
<path d="M463.696 239.481C462.391 238.088 461.086 236.695 459.857 235.17C459.957 234.815 459.98 234.592 460.004 234.368L459.56 234.334L459.739 235.091C456.991 233.869 454.353 232.089 451.476 231.526C440.902 229.46 428.935 234.941 427.519 247.688C427.29 249.748 427.871 252.054 428.626 254.038C430.634 259.314 433.906 263.705 438.775 266.75C440.771 267.998 442.886 268.165 445.017 267.157C449.379 265.093 452.43 261.809 453.633 257.098C453.965 255.797 453.7 254.263 453.408 252.9C452.851 250.301 451.549 248.065 449.587 246.221C448.794 245.477 447.977 245.141 447.014 245.748C445.738 246.554 444.355 247.276 443.294 248.316C442.033 249.555 442.793 251.25 444.562 251.508C449.289 252.197 451.461 256.84 448.84 260.788C447.42 262.925 445.202 263.514 442.809 263.222C436.508 262.451 431.934 256.967 431.497 250.506C431.029 243.595 437.202 238.158 442.268 236.451C445.072 235.505 447.943 234.953 450.88 235.857C455.648 237.324 458.45 240.932 460.28 245.223C461.469 248.012 462.302 251.074 462.598 254.083C462.816 256.304 462.333 258.824 461.423 260.884C458.727 266.984 454.39 271.591 447.961 273.95C442.39 275.993 437.527 274.719 433.193 270.862C427.566 265.853 423.747 259.712 422.674 252.248C421.334 242.921 427.247 233.454 436.429 230.158C444.909 227.114 453.079 227.621 460.225 233.801C461.453 234.863 462.397 236.253 463.535 237.698C463.817 238.439 464.037 238.975 464.164 239.513C463.945 239.505 463.82 239.493 463.696 239.481ZM423.618 254.11C424.26 255.83 424.849 257.571 425.551 259.267C427.702 264.46 430.967 268.697 435.676 271.939C440.699 275.398 445.616 274.808 450.545 272.158C454.54 270.009 457.641 266.824 459.892 262.857C461.843 259.418 462.572 255.696 461.888 251.831C461.09 247.324 459.28 243.198 456.069 239.854C453.944 237.64 451.452 235.924 448.183 236C443.214 236.116 439.125 237.999 435.56 241.594C430.358 246.839 431.58 253.77 435.248 258.548C437.035 260.875 439.56 261.973 442.379 262.647C444.687 263.198 446.515 262.437 448.016 260.916C449.465 259.447 449.67 257.465 449.047 255.565C448.341 253.411 446.636 252.356 444.429 251.932C443.687 251.789 442.573 251.318 442.438 250.79C442.204 249.876 442.237 248.431 442.809 247.869C444.015 246.682 445.559 245.722 447.131 245.077C447.835 244.787 449.284 245.181 449.8 245.779C451.238 247.447 452.755 249.238 453.503 251.254C454.223 253.196 454.636 255.655 454.092 257.578C453.046 261.274 450.829 264.376 447.395 266.539C443.501 268.992 439.8 269.055 436.487 266.089C432.749 262.743 429.679 258.865 427.953 254.061C427.08 251.631 426.442 249.104 426.987 246.571C427.962 242.038 429.921 238.042 433.709 235.041C437.989 231.652 442.99 230.476 448.189 230.379C450.822 230.33 453.632 230.858 456.02 232.438C456.932 233.042 457.964 233.466 459.21 234.111C458.991 233.646 458.962 233.464 458.856 233.38C455.702 230.887 452.093 229.284 448.124 229.04C441.748 228.649 435.709 229.818 430.69 234.218C424.712 239.458 421.928 245.858 423.619 254.11H423.618Z" fill="#E9C746"/>
<path d="M511.45 322.79C508.316 327.093 504.166 328.809 499.116 327.695C494.398 326.656 491.387 323.605 490.378 318.82C489.146 312.977 492.817 307.332 498.8 305.703C504.444 304.166 510.717 307.447 512.581 312.911C513.75 316.338 513.405 319.6 511.45 322.79M500.442 324.644C505.138 325.194 508.882 322.3 509.56 317.595C510.124 313.685 507.154 309.489 503.346 308.816C498.89 308.028 494.887 310.656 494.019 314.938C493.102 319.461 495.712 323.537 500.442 324.644Z" fill="#0A2E48"/>
<path d="M352.322 324.123C354.203 323.073 355.146 321.603 355.038 319.369H349.937V316.472H358.334C359.66 324.116 354.438 329.054 346.325 327.886C340.084 326.988 336.244 321.543 337.125 314.842C337.91 308.87 343.542 304.691 349.81 305.429C352.757 305.776 354.841 306.92 356.606 309.207C355.817 309.811 355.028 310.415 354.189 311.058C351.442 308.307 348.251 307.895 344.833 309.466C341.491 311.002 340.05 314.703 340.95 318.993C341.647 322.32 344.489 324.754 347.999 324.795C349.399 324.811 350.805 324.393 352.322 324.123Z" fill="#092E47"/>
<path d="M415.689 316.178C416.437 319.213 417.184 322.248 417.933 325.283C418.048 325.746 418.176 326.206 418.417 327.116L428.742 305.016L439.168 327.403C438.011 327.403 437.022 327.475 436.053 327.364C435.709 327.325 435.299 326.898 435.121 326.546C434.522 325.363 433.957 324.156 433.489 322.917C433.172 322.076 432.691 321.841 431.82 321.873C429.853 321.945 427.876 321.992 425.916 321.86C424.721 321.78 424.234 322.303 423.841 323.277C423.286 324.651 422.637 325.988 422.018 327.363H415.097C414.301 323.64 413.495 319.872 412.826 315.977C413.241 315.529 413.588 315.244 413.776 314.878C413.971 314.499 414.011 314.041 414.231 313.636C414.793 314.495 415.241 315.337 415.689 316.178ZM428.049 319.006H431.765L428.771 312.059L425.833 319.006H428.049Z" fill="#092E48"/>
<path d="M441.234 306.159C441.457 305.907 441.818 305.641 441.884 305.7C442.908 306.626 443.895 307.593 444.888 308.553C448.935 312.462 452.981 316.371 457.15 320.4V306.012H460.356V328.164L444.512 312.925V327.313H441.233L441.234 306.159Z" fill="#082D47"/>
<path d="M551.403 316.173V305.783C554.295 305.934 557.156 305.881 559.948 306.294C562.269 306.637 563.605 308.795 563.754 311.532C563.907 314.331 562.818 316.255 560.546 317.178C560.107 317.356 559.654 317.497 558.93 317.753L566 327.125C563.263 327.896 562.399 327.615 560.792 325.457C559.175 323.286 557.565 321.108 555.945 318.939C555.646 318.539 555.313 318.164 554.751 317.48V327.286H551.402L551.403 316.173ZM556.325 308.861L555.026 308.939V315.056C556.019 314.999 556.921 314.999 557.809 314.888C559.445 314.683 560.087 313.907 560.117 312.219C560.158 309.982 559.451 309.309 556.325 308.861Z" fill="#082D46"/>
<path d="M362.619 305.912C366.535 305.901 370.31 305.901 374.15 305.901V308.802H365.766V314.22H374.112V317.391H365.73V324.233H374.138V327.329H362.124C362.124 320.307 362.122 313.341 362.139 306.375C362.139 306.225 362.359 306.075 362.619 305.912H362.619Z" fill="#0B3049"/>
<path d="M480.565 308.449C479.082 308.521 478.044 309.067 477.715 310.462C477.386 311.856 478.114 312.873 479.217 313.541C480.893 314.556 482.702 315.355 484.36 316.397C487.114 318.127 487.928 320.584 486.936 323.684C485.997 326.619 483.46 328.101 479.579 327.981C476.28 327.879 474.216 326.296 473.399 323.124L475.501 322.096C476.866 323.055 477.923 324.123 479.202 324.615C480.962 325.292 482.786 324.4 483.403 322.979C484.101 321.37 483.595 320.026 481.699 318.877C480.114 317.917 478.404 317.159 476.838 316.172C474.318 314.584 473.47 312.479 474.096 309.798C474.65 307.42 476.627 305.765 479.376 305.422C482.146 305.077 485.699 306.043 486.564 308.981L484.451 310.086C483.015 309.46 481.857 308.954 480.565 308.449Z" fill="#0A2E48"/>
<path d="M446.893 354.237C447.178 355.444 447.429 356.522 447.769 357.984C448.852 353.937 449.862 350.284 450.79 346.61C451.009 345.745 451.321 345.363 452.266 345.403C453.118 345.438 453.538 345.59 453.775 346.555C454.657 350.156 455.686 353.721 456.95 357.343L459.717 345.523H461.872C461.266 347.948 460.683 350.335 460.071 352.714C459.556 354.715 458.86 356.682 458.517 358.711C458.22 360.463 457.418 360.952 455.701 360.418L452.409 348.775L452.128 348.768L448.876 360.522H446.614L442.711 345.617C444.266 345.125 445.074 345.433 445.341 347.104C445.717 349.459 446.341 351.775 446.893 354.237Z" fill="#10314A"/>
<path d="M422.352 274.911C424.496 273.182 426.153 272.946 427.595 274.104C429.633 275.74 429.437 278.895 427.039 279.889C421.239 282.292 415.224 283.752 408.872 282.974C407.816 282.845 406.8 282.392 405.782 281.918C412.231 281.751 417.27 278.424 422.352 274.911ZM416.655 230.296C415.616 226.888 414.468 223.625 413.699 220.275C413.129 217.791 413.728 215.854 414.874 214.367C414.712 220.447 418.524 224.348 422.278 228.277C423.049 229.083 423.937 229.789 424.64 230.649C426.008 232.322 425.683 234.516 423.988 235.677C422.321 236.818 420.06 236.385 418.979 234.615C418.148 233.257 417.46 231.811 416.655 230.296ZM474.425 226.648C472.503 228.246 470.748 229.878 468.824 231.278C467.859 231.98 466.595 232.614 465.45 232.641C463.923 232.678 462.837 231.574 462.453 230.006C462.111 228.613 462.798 226.952 464.219 226.223C469.368 223.581 474.71 221.521 480.631 221.771C481.995 221.829 483.341 222.338 484.663 222.866C480.776 222.891 477.55 224.461 474.425 226.648ZM471.37 280.989C469.811 279.035 468.255 277.222 466.821 275.318C465.261 273.248 466.194 270.611 468.665 269.857C470.057 269.433 471.757 269.979 472.472 271.459C475.042 276.778 476.859 282.3 475.97 288.336C475.813 289.403 475.272 290.415 474.716 291.453C475.062 287.497 473.457 284.225 471.37 280.989Z" fill="#EEC326"/>
<path d="M480.255 356.129V360.486H478.285V345.564C481.205 345.564 484.105 345.442 486.988 345.614C488.483 345.704 489.63 346.699 490.077 348.24C490.599 350.036 490.088 351.521 488.403 353.148C491.192 354.93 489.232 358.173 490.698 360.488H488.205C488.114 359.178 488.025 357.874 487.932 356.569C487.806 354.792 487.248 354.203 485.463 354.148C483.779 354.096 482.092 354.137 480.255 354.137V356.129ZM487.71 348.168C487.227 347.868 486.757 347.334 486.26 347.309C484.276 347.21 482.283 347.268 480.329 347.268V352.271C481.885 352.271 483.361 352.275 484.838 352.269C487.715 352.258 488.551 351.173 487.71 348.168Z" fill="#0D2F47"/>
<path d="M431.89 360.726C427.588 359.218 425.623 354.608 427.185 349.888C428.473 345.994 432.67 343.915 436.723 345.512C438.181 346.087 439.685 347.358 440.448 348.716C442.17 351.78 442.065 355.088 440.055 358.061C438.115 360.931 435.205 361.405 431.89 360.726ZM437.361 347.983C434.085 345.82 430.239 346.939 429.273 350.501C428.898 351.883 428.95 353.458 429.144 354.899C429.474 357.356 431.275 358.924 433.623 359.141C436.043 359.364 438.062 358.222 438.868 355.865C439.811 353.107 439.702 350.418 437.361 347.983Z" fill="#10314A"/>
<path d="M469.375 358.758H475.181V360.488H464.136V345.562H475.109L475.197 347.235H466.231V351.899H474.347V353.658H466.235V358.758H469.375Z" fill="#11334B"/>
<path d="M479.569 247.586C482.921 248.378 485.865 249.701 487.928 252.394C488.79 253.519 489.298 254.915 489.771 256.354C486.434 252.74 482.467 252.681 478.219 253.825C476.805 254.206 475.567 253.814 474.675 252.654C473.738 251.435 473.661 250.059 474.5 248.782C475.312 247.545 476.499 246.899 478.05 247.222C478.518 247.32 478.979 247.446 479.569 247.586ZM446.299 213.417C446.326 215.746 446.211 217.97 446.503 220.138C446.714 221.709 446.614 223.042 445.365 224.005C444.26 224.856 442.979 225.063 441.644 224.308C440.177 223.478 439.729 222.168 440.01 220.66C440.923 215.754 442.641 211.349 447.749 209.283C448.123 209.132 448.538 209.083 448.878 209C448.01 210.459 447.17 211.874 446.299 213.418V213.417ZM450.885 287.809C449.889 290.846 448.703 293.644 446.039 295.429C444.969 296.146 443.719 296.593 442.391 296.997C446.04 293.639 445.986 289.61 444.866 285.368C444.509 284.017 444.957 282.933 445.942 282.089C447.045 281.144 448.473 280.829 449.63 281.658C450.475 282.263 451.202 283.402 451.41 284.42C451.617 285.432 451.11 286.589 450.885 287.809Z" fill="#EEC426"/>
<path d="M406.643 252.512C408.863 252.443 410.974 252.472 413.043 252.189C414.553 251.983 415.823 252.127 416.734 253.367C417.623 254.575 417.75 255.962 416.917 257.248C416.096 258.516 414.856 259.002 413.332 258.718C409.323 257.973 405.63 256.617 403.154 253.137C402.473 252.178 402.094 251.005 401.579 249.938C403.327 250.837 404.922 251.657 406.643 252.512Z" fill="#EEC326"/>
<path d="M416.134 354.239C415.888 355.704 415.783 357.155 415.704 358.608C415.673 359.185 415.699 359.766 415.699 360.459H413.731V345.532C416.373 345.532 418.968 345.391 421.541 345.574C423.794 345.735 425.09 347.566 425 349.945C424.91 352.348 423.301 354.063 420.904 354.19C419.368 354.273 417.825 354.219 416.134 354.239ZM415.702 351.978C415.875 352.135 416.047 352.426 416.219 352.426C417.751 352.422 419.287 352.428 420.813 352.309C422.326 352.191 422.811 351.11 422.863 349.759C422.915 348.392 422.277 347.437 420.91 347.333C419.201 347.202 417.473 347.301 415.694 347.301C415.694 348.829 415.694 350.255 415.702 351.978Z" fill="#0B2D46"/>
<path d="M402.934 320.007C403.315 319.035 403.15 318.537 402.069 317.962C401.236 317.52 400.659 316.297 400.321 315.301C399.961 314.245 399.47 313.721 398.527 313.761L397.101 321.386C396.727 321.421 396.355 321.455 395.783 321.508C396.634 322.794 396.894 323.831 395.413 324.734C394.996 324.989 395.012 325.955 394.715 326.996C393.909 324.433 394.653 322.494 395.308 320.53C395.586 319.695 395.724 318.812 395.905 317.947C395.959 317.69 395.844 317.266 395.978 317.179C397.214 316.365 396.861 315.169 396.914 314.002C396.975 312.645 397.291 311.298 397.522 309.952C397.568 309.683 397.736 309.434 398.247 309.18L398.621 311.965C399.3 311.517 399.909 311.117 400.638 310.699C400.758 310.68 400.742 310.685 400.732 310.822C401.051 312.066 401.228 313.252 401.747 314.261C402.389 315.509 403.315 316.61 404.118 317.774C404.15 317.819 404.182 317.864 404.214 318.117C404.428 319.099 404.641 319.873 404.738 320.646C404.06 320.432 403.497 320.219 402.934 320.007H402.934Z" fill="#012A47"/>
<path d="M414.12 313.618C414.012 314.041 413.972 314.499 413.777 314.878C413.588 315.244 413.241 315.529 412.847 315.853C412.656 315.51 412.581 315.164 412.516 314.562C412.256 313.98 411.987 313.654 411.719 313.328L409.571 315.612C409.993 315.971 410.3 316.232 410.648 316.592C410.774 316.96 410.858 317.229 410.942 317.499C410.942 317.499 410.937 317.649 410.785 317.731C410.319 318.563 410.005 319.313 409.691 320.063C409.691 320.063 409.679 320.035 409.586 320.069C408.523 321.749 407.504 323.455 406.528 325.187C406.469 325.292 406.753 325.59 406.877 325.798C406.826 325.971 406.776 326.144 406.529 326.367C406.053 325.983 405.771 325.55 405.578 325.039C405.587 324.505 405.507 324.047 405.428 323.591C405.237 323.781 405.046 323.971 404.731 324.161C404.361 324.166 404.114 324.171 403.867 324.177C403.867 324.177 403.895 324.167 403.891 324.053C403.782 323.374 403.678 322.808 403.673 322.199C404.353 321.888 404.933 321.62 405.568 321.34C405.622 321.327 405.734 321.316 405.777 321.419C406.168 321.642 406.515 321.762 406.863 321.882L407.037 321.413L406.051 320.937C406.05 320.883 406.048 320.829 406.184 320.665C406.577 320.265 406.834 319.974 407.132 319.781C407.377 320.098 407.58 320.318 407.782 320.538L408.091 320.375C407.969 319.933 407.847 319.49 407.726 318.93C407.94 318.357 408.154 317.902 408.411 317.538C408.673 317.75 408.891 317.871 409.434 318.173C409.079 317.38 408.882 316.937 408.684 316.358C408.677 315.951 408.668 315.545 408.657 315.138C408.657 315.138 408.651 315.003 408.81 314.922C409.07 314.488 409.172 314.134 409.273 313.779C409.331 313.562 409.388 313.346 409.602 313.018C409.821 312.709 409.884 312.511 409.946 312.312C409.946 312.312 409.962 312.333 410.051 312.288C410.705 311.31 411.243 310.36 411.845 309.451C412.145 308.998 412.563 308.621 412.928 308.209C413.218 308.734 413.509 309.26 413.683 309.786C413.218 310.106 412.87 310.425 412.522 310.851C412.629 311.207 412.735 311.454 412.886 311.796C413.326 312.146 413.721 312.402 414.116 312.777L414.12 313.617V313.618Z" fill="#012A47"/>
<path d="M413.798 309.785L412.927 308.209C412.562 308.621 412.145 308.998 411.844 309.452C411.242 310.36 410.705 311.31 410.038 312.286C410.952 309.98 411.968 307.632 412.985 305.284L413.31 305.321C414.109 308.851 414.907 312.382 415.698 316.045C415.241 315.337 414.792 314.496 414.232 313.636C414.118 313.377 414.117 313.137 414.103 312.664C413.674 312.187 413.257 311.944 412.84 311.701C412.734 311.454 412.628 311.207 412.634 310.851C413.939 310.736 413.939 310.736 413.798 309.785Z" fill="#0B2F48"/>
<path d="M463.698 239.593C463.82 239.493 463.945 239.505 464.164 239.514C464.259 239.512 464.26 239.513 464.266 239.614C464.5 239.736 464.728 239.758 464.956 239.779C467.032 242.147 467.921 245.043 468.674 247.991C467.017 245.229 465.359 242.467 463.698 239.593Z" fill="#E7D37D"/>
<path d="M410.606 316.493L409.57 315.612L411.718 313.328C411.987 313.654 412.255 313.98 412.525 314.428C412.255 315.039 411.984 315.528 411.542 316.136C411.239 316.278 410.926 316.397 410.606 316.493Z" fill="#092E48"/>
<path d="M404.105 317.662C403.315 316.61 402.389 315.509 401.747 314.261C401.228 313.252 401.051 312.067 400.738 310.819C401.868 312.969 402.98 315.259 404.105 317.662ZM405.489 325.116C405.77 325.55 406.052 325.983 406.465 326.432C406.345 327 406.093 327.552 405.737 328.334C405.037 326.848 404.463 325.63 403.877 324.295C404.113 324.171 404.36 324.166 404.769 324.251C405.117 324.6 405.303 324.858 405.489 325.116H405.489ZM406.961 325.733C406.752 325.59 406.468 325.292 406.527 325.187C407.502 323.452 408.527 321.746 409.601 320.07C408.821 321.915 407.934 323.792 406.961 325.733Z" fill="#0B2F48"/>
<path d="M405.512 321.353C404.932 321.62 404.352 321.888 403.585 322.158C403.139 321.975 402.88 321.789 402.621 321.604C402.513 321.458 402.405 321.313 402.295 321.075C402.444 320.688 402.596 320.394 402.841 320.053C403.497 320.219 404.06 320.431 404.78 320.734C405.128 321 405.32 321.177 405.512 321.353Z" fill="#092E48"/>
<path d="M407.09 319.684C406.834 319.974 406.577 320.265 406.232 320.6C406.919 318.852 407.695 317.061 408.564 315.204C408.666 315.5 408.676 315.861 408.601 316.423C408.467 316.899 408.417 317.173 408.367 317.448C408.154 317.902 407.94 318.357 407.642 318.968C407.47 319.215 407.285 319.454 407.09 319.684ZM405.568 321.34C405.321 321.177 405.129 321 404.895 320.736C404.641 319.873 404.428 319.099 404.218 318.199C404.671 319.088 405.121 320.103 405.663 321.207C405.755 321.295 405.735 321.316 405.735 321.316C405.735 321.316 405.623 321.327 405.568 321.34ZM402.625 321.719C402.881 321.789 403.14 321.975 403.486 322.202C403.678 322.808 403.782 323.374 403.881 324.065C403.46 323.404 403.044 322.619 402.625 321.719ZM409.783 320.006C410.032 319.239 410.352 318.497 410.739 317.79C410.522 318.495 410.199 319.222 409.783 320.006Z" fill="#0B2F48"/>
<path d="M464.259 239.511C464.038 238.975 463.818 238.439 463.587 237.795C464.001 238.226 464.426 238.765 464.753 239.411C464.523 239.516 464.392 239.514 464.261 239.513L464.259 239.511Z" fill="#E7D37D"/>
<path d="M405.777 321.419C405.734 321.316 405.754 321.295 405.766 321.286C405.808 321.21 405.84 321.141 405.961 321.005C406.38 321.095 406.708 321.254 407.036 321.413L406.862 321.882C406.515 321.762 406.167 321.642 405.777 321.419V321.419Z" fill="#092E48"/>
<path d="M410.648 316.591C410.861 316.413 411.115 316.333 411.464 316.213C411.412 316.575 411.267 316.977 411.032 317.439C410.858 317.229 410.774 316.96 410.648 316.592V316.591ZM409.184 313.84C409.171 314.133 409.07 314.488 408.853 314.87C408.856 314.565 408.975 314.233 409.184 313.84Z" fill="#0B2F48"/>
<path d="M464.267 239.614C464.391 239.515 464.522 239.516 464.751 239.522C464.849 239.526 464.918 239.646 464.937 239.712C464.728 239.758 464.5 239.736 464.267 239.614Z" fill="#E9C746"/>
<path d="M409.872 312.347C409.884 312.511 409.821 312.709 409.686 312.943C409.675 312.78 409.736 312.581 409.872 312.347H409.872Z" fill="#0B2F48"/>
<path d="M423.572 253.985C421.929 245.858 424.712 239.458 430.69 234.218C435.709 229.818 441.749 228.649 448.125 229.04C452.093 229.284 455.703 230.887 458.857 233.38C458.963 233.464 458.991 233.646 459.211 234.111C457.965 233.466 456.933 233.042 456.02 232.438C453.633 230.858 450.822 230.33 448.189 230.379C442.99 230.476 437.99 231.652 433.71 235.041C429.922 238.042 427.963 242.038 426.988 246.57C426.443 249.104 427.08 251.631 427.954 254.061C429.68 258.865 432.749 262.743 436.488 266.089C439.8 269.055 443.502 268.992 447.396 266.539C450.829 264.376 453.047 261.274 454.093 257.577C454.636 255.655 454.223 253.196 453.503 251.254C452.756 249.238 451.238 247.446 449.8 245.779C449.285 245.182 447.836 244.787 447.132 245.076C445.559 245.722 444.015 246.682 442.809 247.869C442.238 248.431 442.205 249.876 442.439 250.79C442.574 251.318 443.688 251.789 444.43 251.932C446.637 252.356 448.341 253.411 449.048 255.565C449.671 257.465 449.465 259.447 448.016 260.916C446.515 262.437 444.688 263.198 442.38 262.647C439.561 261.973 437.035 260.875 435.249 258.548C431.58 253.769 430.359 246.839 435.56 241.594C439.125 237.999 443.214 236.116 448.184 236C451.452 235.923 453.944 237.64 456.069 239.854C459.28 243.198 461.09 247.324 461.888 251.831C462.572 255.696 461.844 259.418 459.892 262.857C457.642 266.824 454.541 270.009 450.545 272.158C445.617 274.808 440.7 275.398 435.676 271.939C430.968 268.697 427.703 264.46 425.552 259.267C424.85 257.571 424.26 255.83 423.572 253.985ZM459.74 235.066C459.677 234.823 459.618 234.579 459.561 234.334L460.004 234.368C459.98 234.591 459.957 234.815 459.832 235.066C459.73 235.092 459.74 235.042 459.74 235.066Z" fill="#EFC31F"/>
<path d="M405.578 325.039C405.303 324.858 405.117 324.6 404.893 324.251C405.045 323.971 405.236 323.781 405.427 323.591C405.506 324.047 405.586 324.505 405.578 325.039ZM413.682 309.786C413.939 310.736 413.939 310.736 412.634 310.743C412.869 310.425 413.217 310.106 413.682 309.786ZM407.132 319.781C407.245 319.498 407.4 319.311 407.641 319.086C407.847 319.491 407.968 319.933 408.09 320.375L407.782 320.538C407.579 320.318 407.377 320.098 407.132 319.781ZM408.411 317.538C408.417 317.173 408.467 316.899 408.6 316.559C408.881 316.937 409.079 317.38 409.433 318.173C408.891 317.871 408.673 317.75 408.411 317.538H408.411ZM412.886 311.796C413.257 311.944 413.674 312.187 414.103 312.543C413.721 312.402 413.326 312.146 412.886 311.796Z" fill="#092E48"/>
<path fill-rule="evenodd" clip-rule="evenodd" d="M1136.09 313.937H1127.52L1133.28 283.121H1141.84L1136.09 313.937ZM1153.53 313.937C1153.53 312.965 1153.64 311.446 1153.82 310.413C1151.61 313.026 1148.97 313.999 1145.92 313.999C1141.78 313.999 1138.67 311.688 1139.51 307.191C1140.16 303.667 1143.34 301.295 1146.64 300.323C1149.63 299.411 1152.69 299.107 1155.62 298.925V298.744C1156.04 296.737 1155.62 295.946 1153.59 295.946C1151.91 295.946 1150.35 296.554 1149.69 298.438L1141.96 297.708C1144.36 292.115 1149.87 290.657 1154.84 290.657C1157.42 290.657 1160.72 291.021 1162.57 292.602C1165.09 294.668 1164.19 297.525 1163.53 300.747L1162.03 308.588C1161.73 310.289 1161.43 312.357 1161.79 313.936L1153.53 313.937ZM1154.78 303.056C1152.68 303.24 1149.09 303.907 1148.55 306.643C1148.31 308.102 1149.09 308.71 1150.41 308.71C1153.7 308.71 1154.24 305.913 1154.72 303.482L1154.78 303.056ZM1175.09 295.703C1176.41 292.603 1178.39 290.415 1181.8 290.658L1182.94 290.719L1181.44 298.621C1180.96 298.499 1180.36 298.377 1179.82 298.377C1178.45 298.377 1176.95 298.621 1176.05 299.897C1175.21 300.991 1174.91 302.45 1174.67 303.786L1172.82 313.937H1164.25L1168.56 291.083H1175.87L1174.97 295.702L1175.09 295.703Z" fill="#38488F"/>
<path fill-rule="evenodd" clip-rule="evenodd" d="M1131 298.499C1131 306.887 1124.35 313.513 1116.14 313.513C1108.11 313.513 1101.4 306.705 1101.4 298.499C1101.4 290.05 1108.11 283.425 1116.44 283.425C1124.65 283.425 1131 290.293 1131 298.499Z" fill="#DF9947"/>
<path fill-rule="evenodd" clip-rule="evenodd" d="M1131 298.469C1131 301.242 1130.24 303.962 1128.82 306.329C1127.39 308.695 1125.35 310.616 1122.92 311.88L1122.87 311.906C1120.79 312.962 1118.5 313.512 1116.17 313.513C1114.86 313.51 1113.59 313.332 1112.37 313.001C1106.23 311.31 1101.58 305.6 1101.4 298.885V298.883C1101.4 298.756 1101.4 298.628 1101.4 298.499C1101.4 298.369 1101.4 298.239 1101.4 298.109C1101.41 298.108 1101.4 298.106 1101.4 298.104L1101.42 297.723C1101.58 294.401 1102.83 291.228 1104.96 288.7C1104.99 288.666 1105.02 288.631 1105.05 288.597C1105.06 288.584 1105.07 288.572 1105.08 288.56C1107.81 285.424 1111.82 283.46 1116.32 283.426C1122.79 283.478 1128.24 287.728 1130.21 293.596L1130.23 293.658C1130.74 295.21 1131 296.834 1131 298.469Z" fill="#DF9947"/>
<path fill-rule="evenodd" clip-rule="evenodd" d="M1131 298.469C1131 301.242 1130.24 303.962 1128.82 306.329C1127.39 308.695 1125.35 310.616 1122.92 311.88L1122.87 311.906C1120.79 312.962 1118.5 313.512 1116.17 313.513C1114.86 313.51 1113.59 313.332 1112.37 313.001C1106.23 311.31 1101.58 305.6 1101.4 298.885V298.883C1101.4 298.756 1101.4 298.628 1101.4 298.499C1101.4 298.369 1101.4 298.239 1101.4 298.109C1101.41 298.108 1101.4 298.106 1101.4 298.104L1101.42 297.723C1101.58 294.401 1102.83 291.228 1104.96 288.7C1104.99 288.666 1105.02 288.631 1105.05 288.597C1105.06 288.584 1105.07 288.572 1105.08 288.56C1107.81 285.424 1111.82 283.46 1116.32 283.426C1122.79 283.478 1128.24 287.728 1130.21 293.596L1130.23 293.658C1130.74 295.21 1131 296.834 1131 298.469Z" fill="#DF9949"/>
<path fill-rule="evenodd" clip-rule="evenodd" d="M1129.32 298.438C1129.32 305.793 1123.45 311.75 1116.2 311.75C1108.95 311.75 1103.08 305.793 1103.08 298.499C1103.08 291.144 1108.95 285.187 1116.2 285.187C1123.45 285.187 1129.32 291.144 1129.32 298.438Z" fill="#E8AC46"/>
<path fill-rule="evenodd" clip-rule="evenodd" d="M1127.58 298.438C1127.58 304.881 1122.49 310.048 1116.2 310.048C1114.71 310.048 1113.23 309.75 1111.85 309.17C1110.46 308.59 1109.21 307.739 1108.15 306.667C1107.09 305.594 1106.26 304.321 1105.68 302.919C1105.11 301.518 1104.82 300.016 1104.82 298.499C1104.82 292.055 1109.91 286.889 1116.2 286.889C1117.7 286.889 1119.18 287.188 1120.56 287.768C1121.94 288.348 1123.2 289.199 1124.25 290.271C1125.31 291.344 1126.15 292.617 1126.72 294.018C1127.29 295.42 1127.59 296.922 1127.58 298.438Z" fill="#EBBE44"/>
<path fill-rule="evenodd" clip-rule="evenodd" d="M1125.91 298.438C1125.91 303.908 1121.53 308.285 1116.2 308.285C1110.87 308.285 1106.49 303.908 1106.49 298.499C1106.49 293.029 1110.87 288.652 1116.2 288.652C1121.59 288.652 1125.91 293.029 1125.91 298.438Z" fill="#F2D03F"/>
<path fill-rule="evenodd" clip-rule="evenodd" d="M1124.23 298.438C1124.23 300.598 1123.38 302.67 1121.88 304.197C1120.37 305.725 1118.33 306.583 1116.2 306.583C1115.15 306.584 1114.12 306.375 1113.15 305.969C1112.18 305.563 1111.3 304.968 1110.56 304.217C1109.82 303.466 1109.24 302.575 1108.84 301.593C1108.44 300.612 1108.23 299.561 1108.23 298.499C1108.23 294.001 1111.77 290.354 1116.2 290.354C1120.63 290.354 1124.23 294.001 1124.23 298.438Z" fill="#F7DD3F"/>
<path fill-rule="evenodd" clip-rule="evenodd" d="M1122.55 298.438C1122.55 302.024 1119.74 304.881 1116.26 304.881C1114.59 304.88 1112.99 304.208 1111.81 303.011C1110.63 301.814 1109.97 300.191 1109.97 298.499C1109.97 294.913 1112.79 292.055 1116.26 292.055C1117.09 292.055 1117.9 292.22 1118.67 292.541C1119.43 292.862 1120.12 293.332 1120.71 293.924C1121.29 294.517 1121.76 295.221 1122.07 295.995C1122.39 296.77 1122.55 297.6 1122.55 298.438Z" fill="#F9E740"/>
<path fill-rule="evenodd" clip-rule="evenodd" d="M1120.87 298.438C1120.87 299.68 1120.39 300.87 1119.52 301.747C1118.66 302.625 1117.48 303.118 1116.26 303.118C1113.74 303.118 1111.65 301.051 1111.65 298.499C1111.65 297.258 1112.13 296.068 1113 295.191C1113.86 294.313 1115.04 293.82 1116.26 293.819C1118.78 293.819 1120.87 295.886 1120.87 298.438Z" fill="#F9E740"/>
<path fill-rule="evenodd" clip-rule="evenodd" d="M1120.87 298.438C1120.87 299.68 1120.39 300.87 1119.52 301.747C1118.66 302.625 1117.48 303.118 1116.26 303.118C1113.74 303.118 1111.65 301.051 1111.65 298.499C1111.65 297.258 1112.13 296.068 1113 295.191C1113.86 294.313 1115.04 293.82 1116.26 293.819C1118.78 293.819 1120.87 295.886 1120.87 298.438Z" fill="#F9E740"/>
<path fill-rule="evenodd" clip-rule="evenodd" d="M1119.26 298.438C1119.26 300.201 1117.88 301.598 1116.2 301.598C1115.39 301.595 1114.62 301.267 1114.04 300.687C1113.47 300.106 1113.15 299.32 1113.14 298.499C1113.14 296.736 1114.52 295.338 1116.2 295.338C1117.01 295.342 1117.79 295.67 1118.36 296.25C1118.93 296.831 1119.25 297.617 1119.26 298.438Z" fill="#FBF0A6"/>
<path fill-rule="evenodd" clip-rule="evenodd" d="M1117.76 298.438C1117.76 299.349 1117.04 300.019 1116.2 300.019C1115.36 300.019 1114.7 299.349 1114.7 298.499C1114.7 297.588 1115.36 296.918 1116.2 296.918C1117.04 296.918 1117.76 297.588 1117.76 298.438Z" fill="white"/>
<path fill-rule="evenodd" clip-rule="evenodd" d="M1087.5 303.24C1087.8 305.915 1089.6 306.887 1092.24 306.887C1093.43 306.887 1095.77 306.703 1096.13 305.063C1096.43 303.239 1094.21 302.874 1092.95 302.632C1087.56 301.477 1081.21 299.957 1082.59 292.785C1083.19 289.867 1085.17 286.95 1087.86 285.249C1090.62 283.546 1093.85 283 1096.85 283C1102 283 1106.56 285.128 1107.33 290.354L1099.37 292.665C1098.95 290.416 1097.45 289.626 1095.17 289.626C1093.97 289.626 1092.18 289.99 1091.82 291.57C1091.52 293.151 1093.67 293.455 1094.69 293.759C1097.45 294.305 1100.32 294.793 1102.66 296.129C1105.24 297.71 1106.25 300.567 1105.6 303.849C1104.22 311.083 1096.55 314 1090.44 314C1084.21 314 1079.18 311.325 1078.82 304.822L1087.5 303.24ZM1177.85 287.437V284.337H1176.89V283.971H1179.23V284.337H1178.27V287.437H1177.85ZM1180.06 287.437H1179.71V283.971H1180.36L1181.38 286.768L1182.4 283.971H1183V287.437H1182.58V284.397L1181.5 287.437H1181.2L1180.06 284.397V287.437Z" fill="#38488F"/>
<path fill-rule="evenodd" clip-rule="evenodd" d="M987.572 313.937H1003.21V304.759H996.56V283.546L987.572 283.607V313.937ZM1026.69 313.937V283.607H1035.68V293.757H1040.83V283.607H1049.82V313.937H1040.83V302.146H1035.62L1035.68 313.937H1026.69ZM977.508 283.607H985.236V313.999H976.249V310.656H968.821L966.843 313.999H956L977.508 283.607ZM976.309 302.389V297.83L973.374 302.389H976.309ZM1061.56 283.607H1068.99L1079.11 313.937H1070.07L1068.03 307.981L1062.16 308.041L1060.66 313.937H1050.96L1061.56 283.607ZM1067.19 302.084L1065.34 295.156L1063.3 302.084H1067.19ZM1004.53 313.999V283.607H1011.78C1014.71 283.607 1019.26 283.667 1021.84 285.43C1024.36 287.132 1025.56 291.143 1025.56 294.244C1025.56 297.344 1024.48 301.234 1021.42 303.118C1019.08 304.577 1017.71 304.698 1014.65 304.698H1012.79V313.999H1004.53ZM1013.99 296.614C1014.59 296.614 1015.13 296.736 1015.73 296.371C1016.09 296.187 1017.11 295.641 1017.11 293.878C1017.11 291.933 1016.21 291.629 1015.67 291.325C1015.19 291.082 1014.59 291.082 1014.05 291.082L1012.8 291.142L1012.73 296.613L1013.99 296.614ZM1072.05 287.072V283.971H1071.09V283.607H1073.48V283.971H1072.47V287.072H1072.05ZM1074.26 287.072H1073.9V283.607H1074.56L1075.58 286.402L1076.6 283.607H1077.26V287.072H1076.84V284.033H1076.78L1075.7 287.072H1075.4L1074.32 284.033H1074.26V287.072Z" fill="#C9322D"/>
<path fill-rule="evenodd" clip-rule="evenodd" d="M712.442 226C739.269 226 761.038 247.495 761.038 274C761.038 300.505 739.269 322 712.442 322C685.615 322 663.847 300.505 663.847 274C663.847 247.495 685.615 226 712.442 226Z" fill="#00AEEF"/>
<path fill-rule="evenodd" clip-rule="evenodd" d="M671.409 278.559H677.643C677.592 278.81 677.592 278.96 677.592 279.06C677.592 279.612 677.694 280.113 677.899 280.664C678.665 282.868 680.658 283.921 683.775 283.921C685.308 283.921 686.586 283.67 687.659 283.169C689.038 282.568 689.754 281.566 689.754 280.213C689.754 278.81 688.783 277.808 686.79 277.257L684.388 276.555L680.454 275.553C675.088 274.2 672.38 271.645 672.38 267.887C672.38 267.035 672.482 266.083 672.738 265.031C673.3 262.726 674.731 260.973 677.081 259.87C679.023 258.918 681.322 258.468 683.98 258.468C690.776 258.468 694.608 261.223 695.477 266.685C695.528 267.035 695.579 267.286 695.579 267.436V268.238H689.601V267.436C689.601 266.083 688.987 265.031 687.812 264.33C686.841 263.728 685.615 263.428 684.133 263.428H683.469C683.213 263.478 682.958 263.478 682.702 263.528C680.045 263.728 678.716 264.831 678.716 266.735C678.716 268.037 679.687 268.939 681.629 269.44L689.141 271.445C693.893 272.697 696.243 275.252 696.243 279.161C696.243 280.012 696.141 280.914 695.886 281.816C695.273 284.271 693.791 286.125 691.44 287.378C689.447 288.48 687.046 288.981 684.286 288.981H682.651L681.578 288.831C678.512 288.38 676.11 287.328 674.424 285.674C672.38 283.87 671.409 281.465 671.409 278.559ZM699.054 278.76V259.169H705.237V278.81C705.237 282.167 707.281 283.87 711.42 283.87C713.157 283.87 714.537 283.42 715.61 282.568C716.632 281.716 717.143 280.463 717.143 278.81V259.169H723.326V278.76C723.326 284.873 719.954 288.23 713.26 288.931C712.697 288.981 712.34 289.031 712.135 289.031H710.398C706.923 289.031 704.164 288.23 702.171 286.576C700.127 284.722 699.054 282.167 699.054 278.76ZM727.159 288.33V259.169H733.904L744.532 276.405C745.503 278.008 746.321 280.063 746.934 282.618L746.423 279.211C746.168 277.457 746.014 276.405 746.014 276.004V259.169H752.197V288.28H745.35L734.364 270.493C733.699 269.34 733.086 267.837 732.524 265.933L732.064 264.33L732.78 268.238L733.291 270.743V288.33H727.159Z" fill="white"/>
<path fill-rule="evenodd" clip-rule="evenodd" d="M766.403 288.33V259.169H779.229C784.39 259.169 787.61 260.722 788.938 263.779C789.347 264.681 789.5 265.633 789.5 266.635C789.5 269.04 788.529 270.894 786.536 272.146L785.157 272.747C786.741 273.148 788.018 274 788.938 275.353C789.909 276.706 790.369 278.259 790.369 279.912C790.369 281.365 790.011 282.768 789.245 284.121C788.478 285.424 787.456 286.426 786.179 287.127C784.646 287.929 782.602 288.33 780.098 288.33H766.403ZM772.586 270.443H779.434C781.682 270.443 782.96 269.641 783.266 268.038C783.317 267.737 783.368 267.486 783.368 267.286C783.368 265.382 782.04 264.43 779.383 264.43H772.586V270.443ZM772.586 283.169H779.791C781.324 283.169 782.5 282.618 783.317 281.466C783.828 280.764 784.033 280.063 784.033 279.211C784.033 276.756 782.5 275.553 779.383 275.553H772.535V283.169H772.586ZM792.106 273.749C792.106 268.739 793.639 264.831 796.705 262.075C799.362 259.67 802.633 258.518 806.567 258.518C810.502 258.518 813.772 259.72 816.43 262.075C819.496 264.831 821.029 268.739 821.029 273.749C821.029 278.76 819.496 282.668 816.43 285.424C813.772 287.829 810.502 288.981 806.567 288.981C802.633 288.981 799.362 287.779 796.705 285.424C793.639 282.668 792.106 278.76 792.106 273.749ZM798.647 273.749C798.647 274.451 798.698 275.203 798.8 276.004C799.567 281.415 802.173 284.121 806.619 284.121C811.064 284.121 813.67 281.415 814.437 276.004C814.64 274.508 814.64 272.991 814.437 271.495C813.619 266.084 811.013 263.378 806.619 263.378C802.173 263.378 799.567 266.084 798.8 271.495C798.698 272.296 798.647 273.048 798.647 273.749ZM823.124 273.749C823.124 268.739 824.657 264.831 827.774 262.075C830.431 259.67 833.701 258.518 837.636 258.518C841.571 258.518 844.841 259.72 847.498 262.075C850.564 264.831 852.097 268.739 852.097 273.749C852.097 278.76 850.564 282.668 847.498 285.424C844.841 287.829 841.571 288.981 837.636 288.981C833.701 288.981 830.431 287.779 827.774 285.424C824.708 282.668 823.124 278.76 823.124 273.749ZM829.664 273.749C829.664 274.451 829.715 275.203 829.818 276.004C830.584 281.415 833.19 284.121 837.636 284.121C842.082 284.121 844.688 281.415 845.454 276.004C845.658 274.508 845.658 272.991 845.454 271.495C844.637 266.084 842.03 263.378 837.636 263.378C833.19 263.378 830.584 266.084 829.818 271.495C829.715 272.296 829.664 273.048 829.664 273.749ZM853.426 278.559H859.66C859.609 278.81 859.609 278.96 859.609 279.061C859.609 279.612 859.711 280.113 859.915 280.664C860.682 282.868 862.675 283.921 865.792 283.921C867.325 283.921 868.602 283.67 869.675 283.169C871.055 282.568 871.77 281.566 871.77 280.213C871.77 278.81 870.799 277.808 868.807 277.257L866.405 276.555L862.47 275.553C857.105 274.2 854.397 271.645 854.397 267.887C854.397 267.035 854.499 266.084 854.754 265.031C855.316 262.727 856.747 260.973 859.098 259.871C861.039 258.919 863.339 258.468 865.996 258.468C872.792 258.468 876.625 261.223 877.493 266.685C877.545 267.035 877.596 267.286 877.596 267.436V268.238H871.515V267.436C871.515 266.084 870.902 265.031 869.726 264.33C868.755 263.729 867.529 263.428 866.047 263.428H865.383C865.127 263.478 864.872 263.478 864.616 263.528C861.959 263.729 860.631 264.831 860.631 266.735C860.631 268.038 861.602 268.939 863.543 269.44L871.055 271.445C875.807 272.697 878.158 275.253 878.158 279.161C878.158 280.013 878.056 280.914 877.8 281.816C877.187 284.271 875.705 286.125 873.354 287.378C871.362 288.48 868.96 288.981 866.2 288.981H864.565L863.492 288.831C860.426 288.38 858.025 287.328 856.338 285.674C854.397 283.871 853.426 281.466 853.426 278.559ZM877.136 264.43V259.169H901.255V264.43H892.261V288.33H886.078V264.43H877.136ZM902.43 256.914V253.708H901.204V253.307H904.116V253.708H902.89V256.914H902.43ZM904.627 256.914V253.307H905.343L906.211 255.862C906.314 256.113 906.365 256.263 906.365 256.413L906.569 255.812L907.438 253.307H908.102V256.914H907.642V253.908L906.569 256.914H906.109L905.036 253.808V256.914H904.627Z" fill="#00AEEF"/>
<line x1="276.5" y1="376" x2="276.5" stroke="#B5B5B5"/>
<line x1="624.5" y1="376" x2="624.5" stroke="#B5B5B5"/>
<line x1="925.5" y1="376" x2="925.5" stroke="#B5B5B5"/>
<line x1="4.27862e-06" y1="178.5" x2="1184.01" y2="178.51" stroke="#B5B5B5"/>
<path fill-rule="evenodd" clip-rule="evenodd" d="M795.53 13C789.449 24.7701 788.257 40.7635 787.598 53.5569C787.598 56.3725 786.275 67.375 787.731 69.2945C789.581 65.4568 795.53 36.7973 795.53 13ZM761.158 71.0866C760.629 69.1672 760.497 66.9919 759.836 65.0724C756.134 53.5569 752.169 42.0427 749.392 30.1441C748.863 27.5856 746.616 14.1519 744.368 14.1519C744.501 15.9428 745.162 17.4779 745.425 19.1415C747.276 31.6791 749.391 43.9621 754.547 55.7322C756.794 60.9776 759.042 65.9685 761.158 71.0866ZM706.427 23.1077C711.186 32.1908 715.416 42.6829 721.762 51.2556C729.033 60.4672 735.511 69.6789 743.575 78.2515C741.989 75.6918 740.799 72.8775 739.212 70.3191C731.676 59.3153 724.934 48.0582 718.192 36.5427C715.152 31.5518 709.996 27.4571 706.427 23.1077ZM870.224 45.1141C869.298 44.8582 868.107 46.1375 867.581 46.5219C861.235 51.8959 852.905 55.4777 846.032 60.0841C836.115 67.1217 826.729 75.436 819.061 85.032C837.041 73.3892 855.019 60.2114 870.224 45.1141ZM677.475 52.6621C688.183 65.4568 708.144 75.5633 721.365 83.2398C724.67 85.158 728.239 86.6956 731.412 88.8697C715.416 75.9477 698.099 59.314 677.475 52.6621ZM829.242 128.147C828.713 124.311 826.863 120.215 825.804 116.379C823.822 108.318 823.16 105.888 818.269 99.1047C815.493 95.0112 812.585 90.0229 809.411 86.4385C806.237 83.1113 801.082 80.297 797.512 77.2256C797.512 77.2256 777.02 72.236 762.214 74.2828C759.173 74.7944 756.001 75.1789 753.093 76.0749C747.673 80.4243 730.619 92.0684 728.372 97.0579C725.992 102.432 724.934 108.445 723.613 113.947C721.895 120.727 720.44 128.276 718.06 134.929C727.975 135.314 743.575 134.033 753.886 133.52C779.006 131.986 804.388 129.941 829.242 128.147ZM655 99.2332C675.358 106.397 693.735 108.19 715.548 107.934C702.195 103.838 688.447 102.689 674.698 101.153C668.485 100.385 661.214 98.7203 655 99.2332ZM895.868 105.759C881.99 105.375 846.69 107.422 830.694 110.493C851.715 115.61 875.643 111.515 896 105.759H895.868ZM705.633 126.101C689.638 124.182 663.461 130.194 656.587 131.09L656.72 132.115C672.186 132.115 690.827 130.194 705.633 126.101Z" fill="#EFD284"/>
<path fill-rule="evenodd" clip-rule="evenodd" d="M749.392 46.2647C748.73 46.5206 747.277 46.7764 746.351 46.7764H731.676C730.354 46.7764 729.164 46.5206 727.842 46.2647V50.7426H729.164C729.428 48.8232 730.486 48.3115 732.337 48.3115H736.832C736.832 50.9985 737.096 55.6037 737.096 60.2101V65.1997C737.096 67.1192 736.7 67.7581 735.113 68.2698V68.9101C736.434 68.9101 737.625 68.7815 738.946 68.7815C740.137 68.7815 741.458 68.9101 742.78 68.9101V68.2698C741.326 67.7581 740.665 67.2464 740.665 65.1997V58.4192C740.665 54.5816 740.798 50.9998 740.798 48.3115H745.028C746.879 48.3115 747.804 48.8232 748.202 50.7426H749.392V46.2647ZM761.289 62.514L762.48 65.4568C762.744 66.0971 762.877 66.6088 762.877 67.1204C762.877 67.7594 762.48 68.2711 761.819 68.2711V68.9114C762.877 68.9114 763.934 68.7828 765.125 68.7828C766.182 68.7828 767.372 68.9114 768.43 68.9114V68.2711C767.239 68.1438 766.975 67.1204 765.785 64.1776L758.513 46.2647H758.116L751.11 63.4088C750.448 64.9439 749.259 68.0153 747.936 68.2711V68.9114C748.862 68.9114 749.786 68.7828 750.712 68.7828C751.77 68.7828 752.696 68.9114 753.62 68.9114V68.2711C752.827 68.2711 752.43 67.6308 752.43 66.8633C752.43 66.4802 752.43 65.8399 752.694 65.3283L753.488 62.514H761.289ZM754.15 60.9776L757.324 52.5335L760.761 60.9776H754.15ZM770.41 68.9101C771.468 68.9101 772.527 68.7815 773.716 68.7815C774.773 68.7815 775.83 68.9101 776.889 68.9101V68.2698C775.302 67.8867 774.509 66.7348 774.509 64.1763L774.377 52.0219L790.771 69.2945H791.96L792.093 51.2543C792.093 48.6946 792.755 47.544 794.208 47.2881V46.6479C793.152 46.6479 791.962 46.7764 790.906 46.7764C789.847 46.7764 788.788 46.6479 787.6 46.6479V47.2881C789.185 47.544 790.113 48.44 790.113 52.405V63.4075L773.981 46.2647H772.527V65.201C772.527 66.9919 771.734 67.888 770.41 68.2711V68.9101ZM803.991 46.6492C802.8 46.6492 801.612 46.7777 800.553 46.7777C799.362 46.7777 798.306 46.6492 797.115 46.6492V47.2894C798.438 47.5452 798.571 48.5686 798.571 49.8478C798.571 51.8946 798.968 57.5244 798.968 61.3633V65.9698C798.968 67.3776 798.306 68.2724 797.248 68.2724V68.9126C798.438 68.9126 799.494 68.7841 800.686 68.7841C801.744 68.7841 802.932 68.9126 804.124 68.9126V68.2724C802.8 68.2724 802.403 66.9932 802.403 65.9698V59.701C802.403 56.375 802.536 52.5361 802.536 49.466C802.536 48.3141 802.669 47.5465 803.992 47.2907L803.991 46.6492ZM808.749 46.7777L807.559 54.8374H808.618L810.864 46.7777H808.749ZM827.919 47.544C825.937 46.5206 823.689 46.2647 821.44 46.2647C817.21 46.2647 813.773 48.9517 813.773 53.1738C813.773 61.6179 825.011 58.2906 825.011 63.9205C825.011 66.3516 823.029 68.0153 820.517 68.0153C818.402 68.0153 816.02 66.6075 815.494 64.4322H814.303L814.701 67.8867C815.759 68.5269 818.403 69.2945 820.518 69.2945C824.482 69.2945 828.184 66.9906 828.184 62.8971C828.184 54.1972 816.947 58.2906 816.947 51.6387C816.947 49.3361 818.929 47.544 821.179 47.544C823.691 47.544 825.805 48.5673 826.599 50.9998H827.92V47.544H827.919ZM698.758 86.5671C696.775 85.5424 694.527 85.2866 692.281 85.2866C688.05 85.2866 684.613 88.1009 684.613 92.3255C684.613 100.642 695.851 97.4423 695.851 103.072C695.851 105.503 693.867 107.037 691.355 107.037C689.24 107.037 686.861 105.631 686.332 103.581H685.142L685.539 106.909C686.597 107.677 689.24 108.445 691.355 108.445C695.32 108.445 699.023 106.014 699.023 101.919C699.023 93.2177 687.786 97.4423 687.786 90.6593C687.786 88.4853 689.769 86.6944 692.017 86.6944C694.529 86.6944 696.644 87.5879 697.437 90.0216H698.758V86.5671ZM702.857 96.9307C702.857 104.223 708.012 108.446 715.68 108.446C723.215 108.446 728.504 104.223 728.504 96.9307C728.504 89.5112 723.215 85.2866 715.68 85.2866C708.012 85.2866 702.857 89.5099 702.857 96.9307ZM707.352 96.9307C707.352 91.5567 709.996 86.6956 715.681 86.6956C721.234 86.6956 723.878 91.5567 723.878 96.9307C723.878 102.176 721.234 107.037 715.681 107.037C709.996 107.037 707.352 102.176 707.352 96.9307ZM731.676 108.062C732.47 108.062 733.395 107.933 734.188 107.933H745.028C746.085 107.933 747.143 108.062 748.202 108.445L749.656 103.966L748.466 103.325C747.673 105.375 746.615 106.397 740.931 106.397C738.816 106.397 738.156 106.268 737.362 106.141V95.1398C737.362 92.1969 737.494 90.1476 737.494 89.2541C737.494 87.5892 737.892 86.8229 739.345 86.4398V85.671C738.023 85.671 736.833 85.7996 735.511 85.7996C734.321 85.7996 732.999 85.671 731.809 85.671V86.4398C732.999 86.6957 733.925 87.5905 733.925 89.1268V105.376C733.925 106.398 732.999 107.294 731.677 107.294L731.676 108.062ZM763.933 101.536L764.99 104.479C765.255 105.119 765.388 105.759 765.388 106.141C765.388 106.91 764.99 107.293 764.33 107.293V108.062C765.521 108.062 766.577 107.933 767.634 107.933C768.824 107.933 769.882 108.062 771.072 108.062V107.293C769.882 107.164 769.486 106.141 768.428 103.325L761.157 85.2866H760.761L753.753 102.56C753.093 104.094 751.771 107.037 750.448 107.294V108.063C751.505 108.063 752.431 107.934 753.357 107.934C754.282 107.934 755.208 108.063 756.132 108.063V107.294C755.339 107.294 754.942 106.783 754.942 106.016C754.942 105.632 755.075 104.864 755.206 104.351L756.131 101.537L763.933 101.536ZM756.794 100.001L759.968 91.5567L763.273 100.001H756.794ZM778.873 87.7177C778.873 86.9515 779.799 86.8242 780.723 86.8242C784.294 86.8242 785.614 89.5112 785.614 92.4541C785.614 95.5229 783.102 97.4436 780.062 97.4436C779.667 97.4436 779.27 97.4436 778.741 97.3151L778.873 87.7177ZM773.584 108.062C774.774 108.062 775.832 107.933 777.019 107.933C778.21 107.933 779.401 108.062 780.59 108.062V107.293C778.873 107.037 778.74 106.015 778.74 104.735V98.3359C779.534 98.3359 780.193 99.232 780.722 99.7449L786.142 105.886C786.539 106.396 786.671 106.653 786.671 106.909C786.671 107.164 786.538 107.293 786.273 107.293V108.062C787.464 108.062 788.52 107.933 789.579 107.933C790.637 107.933 791.825 108.062 792.884 108.062V107.293C791.958 107.164 790.902 106.141 790.372 105.502L783.76 98.08C786.668 97.3138 789.71 95.267 789.71 92.0684C789.71 88.6125 786.802 85.6697 780.852 85.6697C778.34 85.6697 777.414 85.7983 776.358 85.7983C775.299 85.7983 774.242 85.6697 773.184 85.6697V86.4385C774.903 86.6944 775.036 87.5892 775.036 88.997C775.036 91.8112 775.169 94.4982 775.169 97.3138V105.502C775.169 106.524 774.64 107.036 773.583 107.293L773.584 108.062ZM812.32 85.671C811.13 85.671 810.074 85.7996 808.882 85.7996C807.69 85.7996 806.636 85.671 805.444 85.671V86.4398C806.9 86.5684 807.032 87.5905 807.032 88.9982C807.032 90.9164 807.296 96.5463 807.296 100.385V104.99C807.296 106.397 806.634 107.293 805.576 107.293V108.062C806.766 108.062 807.822 107.933 809.014 107.933C810.205 107.933 811.26 108.062 812.452 108.062V107.293C811.128 107.293 810.864 106.141 810.864 104.99V98.8488C810.864 95.393 810.997 91.6852 810.997 88.6138C810.997 87.4632 811.13 86.5671 812.32 86.4398V85.671ZM815.361 108.062C816.417 108.062 817.476 107.933 818.532 107.933C819.722 107.933 820.781 108.062 821.837 108.062V107.293C820.252 106.909 819.458 105.759 819.458 103.325L819.325 91.1723L835.718 108.446H836.908V90.4047C836.908 87.8463 837.703 86.6957 839.155 86.4398V85.671C838.096 85.671 836.908 85.7996 835.849 85.7996C834.793 85.7996 833.603 85.671 832.544 85.671V86.4398C834.132 86.6957 835.059 87.5905 835.059 91.5567V102.56L818.928 85.2866H817.474L817.342 104.223C817.342 106.016 816.68 107.037 815.36 107.294L815.361 108.062ZM863.215 86.5671C860.836 86.0554 859.118 85.2866 854.886 85.2866C847.484 85.2866 842.195 90.1476 842.195 96.8021C842.195 102.56 846.557 108.446 856.341 108.446C858.587 108.446 860.173 108.19 862.817 107.677L863.875 104.094L862.817 103.71C861.363 106.015 858.984 107.037 856.341 107.037C853.564 107.037 846.821 105.503 846.821 96.5463C846.821 91.1723 849.2 86.6956 854.885 86.6956C857.792 86.6956 860.966 87.8463 862.025 90.9164H863.478L863.215 86.5671ZM867.976 106.781C867.976 107.677 868.635 108.446 869.694 108.446C870.62 108.446 871.412 107.677 871.412 106.781C871.412 105.888 870.62 105.119 869.694 105.119C868.635 105.119 867.976 105.888 867.976 106.781Z" fill="#0E0E0E"/>
<defs>
<clipPath id="clip0_147_252">
<rect width="246" height="64" fill="white" transform="translate(1 269)"/>
</clipPath>
</defs>
</svg>
