<svg width="33" height="39" viewBox="0 0 33 39" fill="none" xmlns="http://www.w3.org/2000/svg">
<path d="M33 19.5C33.0012 20.0093 32.8706 20.5102 32.6209 20.9541C32.3712 21.3979 32.0109 21.7696 31.575 22.033L4.56 38.5585C4.10454 38.8373 3.58288 38.9896 3.0489 38.9995C2.51492 39.0094 1.98798 38.8765 1.5225 38.6147C1.06146 38.3569 0.677393 37.981 0.409807 37.5256C0.142221 37.0702 0.000770358 36.5518 0 36.0236V2.97642C0.000770358 2.44823 0.142221 1.92977 0.409807 1.47437C0.677393 1.01897 1.06146 0.64306 1.5225 0.385292C1.98798 0.123458 2.51492 -0.00937367 3.0489 0.000514375C3.58288 0.0104024 4.10454 0.162652 4.56 0.44154L31.575 16.967C32.0109 17.2304 32.3712 17.6021 32.6209 18.0459C32.8706 18.4898 33.0012 18.9907 33 19.5Z" fill="white"/>
</svg>
