<svg width="67" height="67" viewBox="0 0 67 67" fill="none" xmlns="http://www.w3.org/2000/svg">
<path d="M15.075 54.7166C12.9813 52.6228 11.3407 50.2034 10.1533 47.4583C8.96591 44.7131 8.37314 41.8749 8.375 38.9437C8.375 36.0124 8.93334 33.1165 10.05 30.256C11.1667 27.3955 12.9813 24.708 15.4938 22.1937C17.1222 20.5652 19.135 19.1694 21.5321 18.0062C23.9292 16.843 26.7674 15.9236 30.0467 15.248C33.326 14.5743 37.0715 14.1676 41.2832 14.0281C45.4949 13.8885 50.2053 14.0513 55.4146 14.5166C55.7868 19.4485 55.9031 23.985 55.7635 28.126C55.624 32.2669 55.2396 36.0013 54.6106 39.3289C53.9834 42.6547 53.0994 45.5618 51.9585 48.0501C50.8176 50.5384 49.4106 52.621 47.7375 54.2978C45.2715 56.7638 42.6539 58.5672 39.8845 59.7081C37.1152 60.849 34.2891 61.4185 31.4063 61.4166C28.3819 61.4166 25.4274 60.8229 22.5427 59.6355C19.658 58.4481 17.1688 56.8085 15.075 54.7166ZM22.8917 53.5999C24.241 54.3909 25.6256 54.9613 27.0457 55.3112C28.4657 55.6611 29.9192 55.8351 31.4063 55.8333C33.5465 55.8333 35.6635 55.4024 37.7573 54.5407C39.851 53.679 41.8517 52.2953 43.7594 50.3895C44.5969 49.552 45.4465 48.3767 46.3082 46.8636C47.1699 45.3506 47.9143 43.3741 48.5415 40.9341C49.1687 38.4905 49.6451 35.536 49.9708 32.0706C50.2965 28.6052 50.3431 24.4754 50.1104 19.6812C47.8306 19.5881 45.2604 19.5537 42.3998 19.5779C39.5393 19.6021 36.689 19.8226 33.849 20.2395C31.0108 20.6583 28.3122 21.3329 25.7531 22.2635C23.1941 23.194 21.1004 24.4735 19.4719 26.102C17.3781 28.1958 15.9358 30.2662 15.1448 32.3135C14.3538 34.3607 13.9583 36.3381 13.9583 38.2458C13.9583 40.9909 14.4822 43.3992 15.53 45.4706C16.5779 47.542 17.4963 48.9955 18.2854 49.8312C20.2396 46.109 22.8219 42.5375 26.0323 39.1168C29.2427 35.696 32.9882 32.8932 37.2688 30.7083C33.9188 33.6395 30.9996 36.9551 28.5113 40.655C26.023 44.3549 24.1498 48.6698 22.8917 53.5999Z" fill="#F7CF2F"/>
</svg>
